<?xml version="1.0" encoding="UTF-8"?>
<svg id="Layer_1" data-name="Layer 1" xmlns="http://www.w3.org/2000/svg" xmlns:xlink="http://www.w3.org/1999/xlink" viewBox="0 0 590.6 552.64">
  <defs>
    <style>
      .cls-1 {
        fill: none;
      }

      .cls-2 {
        fill: url(#linear-gradient);
      }

      .cls-3 {
        clip-path: url(#clippath-1);
      }

      .cls-4 {
        clip-path: url(#clippath);
      }
    </style>
    <clipPath id="clippath">
      <rect class="cls-1" width="590.6" height="552.64"/>
    </clipPath>
    <clipPath id="clippath-1">
      <path class="cls-1" d="M590.6,132.93l-7.9,5.28h-.01l-31.64,21.14,8.79,5.87h0s0,0,0,0l12.3-8.2v6.25l-7.62,5.08,14.65,9.77v7.43l-33.39-22.3v-29.76h0v-18.71l5.26,3.51v19.16h0s0,0,0,0h0s0,0,0,0h0s0,0,0,0l5.93-3.96h0l1.98-1.32,4.1,2.73-12.01,8.02v10.95h0s0,0,0,0h0s0,0,0,0h0s0,0,0,0l7.3-4.87,29.61-19.76v-51.58h0s0,0,0,0l-8.79,5.86v16.81l-5.27-3.51v-9.77h0s0,0,0,0l-14.06,9.38-5.27-3.52,36.03-24.07v-2.35l-7.9,5.28h-.01l-31.64,21.14,8.79,5.87h0s0,0,0,0l12.3-8.2v6.25l-7.62,5.08,14.65,9.77v7.43l-33.39-22.3v-9.6h0v-38.88l5.27,3.51v15.2h0v3.96h0s0,0,0,0h0s0,0,0,0h0s0,0,0,0l1.99-1.33,3.94-2.63h0l1.98-1.32,4.01,2.67.09.06-12.01,8.02v10.95h0s0,0,0,0h0s0,0,0,0h0s0,0,0,0l36.91-24.63V11.17h0s0,0,0,0l-8.79,5.86v16.81l-5.27-3.51v-9.77h0s0,0,0,0l-14.06,9.38-5.27-3.52,36.03-24.07V0l-7.9,5.28h-.01l-31.64,21.14,8.79,5.87h0s0,0,0,0l12.3-8.2v6.25l-7.62,5.08,14.65,9.77v7.43l-33.39-22.3V.54h0s-1.76,0-1.76,0v30.94l36.91,24.65h0s0,0,0,0v-12.12l-12.89-8.6,4.98-3.32,7.91,5.28h0s0,0,0,0v-19.15l5.27-3.52v47.28l-7.68,5.03h0l-25.71,16.86v-6.25l13.77-9.19h0s-.38-.25-.38-.25l-.91-.61-5.45-3.64v-6.25l11.42,7.62h0s0,0,0,0l7.91-5.28-37.79-25.26h0s0,0,0,0l-37.79,25.26,7.91,5.28h0s0,0,0,0l11.42-7.62v6.25l-4.62,3.08h0l-2.12,1.41h0,0s.81.54.81.54l12.96,8.65v6.26l-1.01-.66-24.7-16.19h0l-7.68-5.03V14.69l5.27,3.51v19.16h0s0,0,0,0l7.91-5.28,4.98,3.32-12.89,8.6v12.12h0s0,0,0,0l36.91-24.65V.54h0s-1.76,0-1.76,0v29.76l-33.39,22.3v-7.43l14.65-9.77-7.62-5.08v-6.25l12.3,8.2h0s0,0,0,0l8.79-5.87-31.64-21.14h-.01L492.17,0h0s0,0,0,0h0s0,0,0,0l-7.9,5.28h-.01l-31.64,21.14,8.79,5.87h0s0,0,0,0l12.3-8.2v6.25l-7.62,5.08,14.65,9.77v7.43l-33.39-22.3V.54h-1.76s0,0,0,0v30.94l36.91,24.65h0s0,0,0,0v-12.12l-12.89-8.6,4.98-3.32,7.91,5.28h0s0,0,0,0v-19.15l5.27-3.51v47.28l-7.68,5.03h0l-25.71,16.86v-6.26l11.7-7.81,2.07-1.38h0,0s-6.74-4.5-6.74-4.5v-6.25l11.42,7.62h0s0,0,0,0l7.91-5.28-37.79-25.26h0s0,0,0,0l-37.79,25.26,7.91,5.28h0s0,0,0,0l11.42-7.62v6.25l-4.62,3.08h0l-1.8,1.2-.32.21h0,0s13.77,9.19,13.77,9.19v6.25l-1.02-.67-24.7-16.19h0l-7.68-5.03V14.69l5.27,3.51v19.15h0s0,0,0,0l7.91-5.27,4.98,3.32-12.89,8.6v12.12h0s0,0,0,0l36.91-24.65V.54h-1.76s0,0,0,0v29.76l-33.39,22.3v-7.43l14.65-9.77-7.62-5.08v-6.25l12.3,8.2h0s0,0,0,0l8.79-5.87-31.64-21.14h-.02L393.73,0h0s-7.9,5.28-7.9,5.28h-.01l-31.64,21.14,8.79,5.87h0s0,0,0,0l12.3-8.2v6.25l-7.62,5.08,14.65,9.77v7.43l-33.39-22.3V.54h-1.77v30.94l36.91,24.65h0s0,0,0,0v-12.12l-12.89-8.6,4.98-3.32,7.91,5.28h0s0,0,0,0v-19.16l5.27-3.51v47.28l-7.68,5.03h0l-25.71,16.86v-6.26l13.77-9.19-.4-.27-6.34-4.23v-6.25l11.42,7.62h0s0,0,0,0l7.91-5.28-37.79-25.26h0s0,0,0,0l-37.79,25.26,7.91,5.28h0s0,0,0,0l11.42-7.62v6.25l-4.62,3.08h0l-2.12,1.41h0l.81.54,12.96,8.65v6.26l-1.01-.67-24.7-16.19h0l-7.68-5.03V14.69l5.27,3.52v19.15h0s0,0,0,0l7.91-5.28,4.98,3.32-12.89,8.6v12.12h0s0,0,0,0l36.91-24.65V.54h-1.77v29.76l-33.39,22.3v-7.43l14.65-9.77-7.61-5.08v-6.25l12.3,8.2h0s0,0,0,0l8.79-5.87-31.64-21.14h-.01L295.3,0h0s0,0,0,0h0s0,0,0,0l-7.9,5.28h-.01l-31.64,21.14,8.79,5.87h0s0,0,0,0l12.3-8.2v6.25l-7.61,5.08,14.65,9.77v7.43l-33.39-22.3V.54h-1.76s0,0,0,0v30.94l36.91,24.65h0s0,0,0,0v-12.12l-12.89-8.6,4.98-3.32,7.91,5.28h0s0,0,0,0v-19.15l5.27-3.51v47.28l-7.68,5.03h0l-25.71,16.86v-6.26l11.7-7.81,2.07-1.38h0,0s-6.74-4.5-6.74-4.5v-6.25l11.42,7.62h0s0,0,0,0l7.91-5.28-37.79-25.26h0s0,0,0,0l-37.79,25.26,7.91,5.28h0s0,0,0,0l11.42-7.62v6.25l-4.62,3.08h0l-1.8,1.2-.32.21h0s13.77,9.19,13.77,9.19v6.25l-1.01-.66-24.71-16.2h0l-7.68-5.03V14.69l5.27,3.51v19.15h0s0,0,0,0l7.91-5.27,4.98,3.32-12.89,8.6v12.12h0s0,0,0,0l36.91-24.65V.54h-1.76s0,0,0,0v29.76l-33.39,22.3v-7.43l14.65-9.77-7.62-5.08v-6.25l12.3,8.2h0s0,0,0,0l8.79-5.87-31.64-21.14h-.02L196.87,0h0s-7.9,5.28-7.9,5.28h-.01l-31.64,21.14,8.79,5.87h0s0,0,0,0l12.3-8.2v6.25l-7.61,5.08,14.65,9.77v7.43l-33.39-22.3V.54h-1.77v30.94l36.91,24.65h0s0,0,0,0v-12.12l-12.89-8.6,4.98-3.32,7.91,5.28h0s0,0,0,0v-19.16l5.27-3.51v47.28l-7.68,5.03h0l-25.71,16.86v-6.26l13.77-9.19-.4-.27-6.34-4.23v-6.25l11.42,7.62h0s0,0,0,0l7.91-5.28-37.79-25.26h0s0,0,0,0l-37.79,25.26,7.91,5.28h0s0,0,0,0l11.42-7.62v6.25l-4.62,3.08h0l-2.12,1.41h0,0l.81.54,12.96,8.65v6.26l-1.01-.67-24.7-16.19h0l-7.68-5.03V14.69l5.27,3.52v19.15h0s0,0,0,0l7.91-5.28,4.98,3.32-12.89,8.6v12.12h0s0,0,0,0l36.91-24.65V.54h-1.77v29.76l-33.39,22.3v-7.43l14.65-9.77-7.62-5.08v-6.25l12.3,8.2h0s0,0,0,0l8.79-5.87-31.64-21.14h-.01L98.43,0h0s0,0,0,0h0s0,0,0,0l-7.9,5.28h-.01l-31.64,21.14,8.79,5.87h0s0,0,0,0l12.3-8.2v6.25l-7.61,5.08,14.65,9.77v7.43l-33.39-22.3V.54h-1.76s0,0,0,0v30.94l36.91,24.65h0s0,0,0,0v-12.12l-12.89-8.6,4.98-3.32,7.91,5.28h0s0,0,0,0v-19.15l5.27-3.51v47.28l-7.68,5.03h0l-25.71,16.86v-6.26l11.7-7.81,2.07-1.38h0,0s-6.74-4.5-6.74-4.5v-6.25l11.42,7.62h0s0,0,0,0l7.91-5.28-37.79-25.26h0s0,0,0,0L11.42,60.02l7.91,5.28h0s0,0,0,0l11.42-7.62v6.25l-4.62,3.08h0l-1.8,1.2-.32.21h0s13.77,9.19,13.77,9.19v6.25l-1.02-.67-24.7-16.19h0l-7.68-5.03V14.69l5.27,3.51v19.15h0s0,0,0,0l7.91-5.27,4.98,3.32-12.89,8.6v12.12h0s0,0,0,0l36.91-24.65V.54h-1.76s0,0,0,0v29.76L11.43,52.61v-7.43l14.65-9.77-7.61-5.08v-6.25l12.3,8.2h0s0,0,0,0l8.79-5.87L7.92,5.28h-.02L0,0v2.35l36.03,24.07-5.27,3.52-14.06-9.38h0s0,0,0,0v9.77l-5.27,3.51v-16.81L2.64,11.17h0s0,0,0,0v51.58l36.15,24.12.77.51h0s0,0,0,0h0s0,0,0,0v-10.95l-12.01-8.02,4.1-2.73,1.98,1.32h0l5.93,3.96h0s0,0,0,0h0s0-19.15,0-19.15l5.26-3.51v18.71h0v29.76l-33.39,22.3v-7.43l14.65-9.77-7.62-5.08v-6.25l12.3,8.2h0s0,0,0,0l8.79-5.87-31.64-21.14h-.02l-7.9-5.28v2.35l36.03,24.07-5.27,3.52-14.06-9.38h0s0,0,0,0v9.77l-5.27,3.51v-16.81l-8.79-5.86h0s0,0,0,0v51.58l36.91,24.63h0s0,0,0,0h0s0,0,0,0h0s0,0,0,0v-10.95l-12.01-8.02,1.79-1.19.33-.22h0l1.98-1.32,1.98,1.32h0l4.53,3.02,1.41.94h0s0,0,0,0h0s0,0,0,0h0s0,0,0,0v-3.96h0v-15.2l5.26-3.51v38.88h0v9.6l-33.39,22.3v-7.43l14.65-9.77-7.62-5.08v-6.25l12.3,8.2h0s0,0,0,0l8.79-5.87-31.64-21.14h-.02L0,132.93v2.35l36.03,24.07-5.27,3.52-14.06-9.38h0s0,0,0,0v9.77l-5.27,3.51v-16.81l-8.79-5.86h0s0,0,0,0v51.58l36.15,24.12.77.51h0s0,0,0,0h0s0,0,0,0v-10.95l-12.01-8.02,4.1-2.73,1.98,1.32h0l5.93,3.96h0s0,0,0,0h0s0,0,0,0v-19.16l5.26-3.51v18.71h0v29.76l-33.39,22.3v-7.43l14.65-9.77-7.62-5.08v-6.25l12.3,8.2h0s0,0,0,0l8.79-5.87-31.64-21.14h-.02l-7.9-5.28v2.35l36.03,24.07-5.27,3.52-14.06-9.38h0s0,0,0,0v9.77l-5.27,3.51v-16.81l-8.79-5.86h0s0,0,0,0v51.58l36.91,24.63h0s0,0,0,0h0s0,0,0,0h0s0,0,0,0v-10.95l-12.01-8.02,4.1-2.73,1.98,1.32h0l2.65,1.76,3.29,2.19h0s0,0,0,0h0s0,0,0,0h0s0,0,0,0v-3.96h0v-15.2l5.26-3.51v38.88h0v9.6l-33.39,22.3v-7.43l14.65-9.77-7.61-5.08v-6.25l12.3,8.2h0s0,0,0,0l8.79-5.87-31.64-21.14h-.02L0,265.86v2.35l36.03,24.07-5.27,3.52-14.06-9.38h0s0,0,0,0v9.77l-5.27,3.51v-16.81l-8.79-5.86h0s0,0,0,0v51.58l36.15,24.12.77.51h0s0,0,0,0h0s0,0,0,0h0s0-10.95,0-10.95l-12.01-8.02,4.1-2.73,1.98,1.32h0l5.93,3.96h0s0,0,0,0h0s0,0,0,0v-19.16l5.26-3.51v18.71h0v29.76l-33.39,22.3v-7.43l14.65-9.77-7.62-5.08v-6.25l12.3,8.2h0s0,0,0,0l8.79-5.87-31.64-21.14h-.02l-7.9-5.28v2.35l36.03,24.07-5.27,3.52-14.06-9.38h0s0,0,0,0v9.77l-5.27,3.51v-16.81l-8.79-5.86h0s0,0,0,0v51.58l36.91,24.63h0s0,0,0,0h0s0,0,0,0h0s0,0,0,0v-10.95l-12.01-8.02,1.79-1.19.33-.22h0l1.98-1.32,1.98,1.32h0l4.53,3.02,1.41.94h0s0,0,0,0h0s0,0,0,0h0s0,0,0,0v-3.96h0v-15.2l5.26-3.51v38.88h0v9.6l-33.39,22.3v-7.43l14.65-9.77-7.62-5.08v-6.25l12.3,8.2h0s0,0,0,0l8.79-5.87-31.64-21.14h-.02L0,398.79v2.35l36.03,24.07-5.27,3.52-14.06-9.38h0s0,0,0,0v9.77l-5.27,3.51v-16.81l-8.79-5.86h0s0,0,0,0v51.58l36.15,24.12.77.51h0s0,0,0,0h0s0,0,0,0h0s0-10.95,0-10.95l-12.01-8.02,4.1-2.73,1.98,1.32h0l5.93,3.96h0s0,0,0,0h0s0,0,0,0v-19.16l5.26-3.51v18.71h0v29.76l-33.39,22.3v-7.43l14.65-9.77-7.62-5.08v-6.25l12.3,8.2h0s0,0,0,0l8.79-5.87-31.64-21.14h-.02l-7.9-5.28v2.35l36.03,24.07-5.27,3.52-14.06-9.38h0s0,0,0,0v9.77l-5.27,3.51v-16.81l-8.79-5.86h0s0,0,0,0v51.58l36.91,24.63h0s0,0,0,0v-10.95l-12.01-8.02,4.1-2.73,7.91,5.28h0s0,0,0,0v-19.16l5.26-3.51v38.88h1.76s0,0,0,0v-42.4h0s0,0,0,0l-8.79,5.87v16.8l-5.27-3.51v-9.77h0s0,0,0,0l-13.18,8.79-4.39-2.93,34.27-22.87,34.27,22.87-4.39,2.93-13.18-8.79h0s0,0,0,0v9.77l-5.27,3.51v-16.81l-8.79-5.87h0s0,0,0,0v42.4h1.76s0,0,0,0v-38.88l5.26,3.51v19.16h0s0,0,0,0l7.91-5.27,4.1,2.73-12.01,8.02v10.95h0s0,0,0,0l36.91-24.63v-51.58h0s0,0,0,0l-8.79,5.86v16.81l-5.27-3.51v-9.77h0s0,0,0,0l-14.06,9.38-5.27-3.52,36.03-24.06,36.03,24.06-5.27,3.52-14.06-9.38h0s0,0,0,0v9.77l-5.27,3.52v-16.81l-8.79-5.86h0s0,0,0,0v51.58l36.91,24.63h0s0,0,0,0v-10.95l-12.01-8.02,4.1-2.73,7.91,5.28h0s0,0,0,0v-19.15l5.27-3.51v38.88h1.77v-42.4h0s0,0,0,0l-8.79,5.87v16.8l-5.27-3.51v-9.77h0s0,0,0,0l-13.18,8.79-4.39-2.93,34.27-22.87,34.27,22.87-4.39,2.93-13.18-8.79h0s0,0,0,0v9.77l-5.27,3.51v-16.8l-8.79-5.87h0s0,0,0,0v42.4h1.77v-38.88l5.26,3.51v19.16h0s0,0,0,0l7.91-5.28,4.1,2.73-12.01,8.02v10.95h0s0,0,0,0l36.91-24.63v-51.58h0s0,0,0,0l-8.79,5.86v16.81l-5.27-3.51v-9.77h0s0,0,0,0l-14.06,9.38-5.27-3.52,36.03-24.07,36.03,24.07-5.27,3.52-14.06-9.38h0s0,0,0,0v9.77l-5.27,3.51v-16.81l-8.79-5.86h0s0,0,0,0v51.58l36.91,24.63h0s0,0,0,0v-10.95l-12.01-8.02,4.1-2.73,7.91,5.28h0s0,0,0,0v-19.16l5.26-3.51v38.88h1.76s0,0,0,0v-42.4h0s0,0,0,0l-8.79,5.87v16.8l-5.27-3.51v-9.77h0s0,0,0,0l-13.18,8.79-4.39-2.93,34.27-22.87,34.27,22.87-4.39,2.93-13.18-8.79h0s0,0,0,0v9.77l-5.27,3.51v-16.81l-8.79-5.87h0s0,0,0,0v42.4h1.76s0,0,0,0v-38.88l5.26,3.51v19.16h0s0,0,0,0l7.91-5.27,4.1,2.73-12.01,8.02v10.95h0s0,0,0,0l36.91-24.63v-51.58h0s0,0,0,0l-8.79,5.86v16.81l-5.27-3.51v-9.77h0s0,0,0,0l-14.06,9.38-5.27-3.52,36.03-24.06,36.03,24.06-5.27,3.52-14.06-9.38h0s0,0,0,0v9.77l-5.27,3.52v-16.81l-8.79-5.86h0s0,0,0,0v51.58l36.91,24.63h0s0,0,0,0v-10.95l-12.01-8.02,4.1-2.73,7.91,5.28h0s0,0,0,0v-19.15l5.27-3.51v38.88h1.77v-42.4h0s0,0,0,0l-8.79,5.87v16.8l-5.27-3.51v-9.77h0s0,0,0,0l-13.18,8.79-4.39-2.93,34.27-22.87,34.27,22.87-4.39,2.93-13.18-8.79h0s0,0,0,0v9.77l-5.27,3.51v-16.8l-8.79-5.87h0s0,0,0,0v42.4h1.77v-38.88l5.26,3.51v19.16h0s0,0,0,0l7.91-5.28,4.1,2.73-12.01,8.02v10.95h0s0,0,0,0l36.91-24.63v-51.58h0s0,0,0,0l-8.79,5.86v16.81l-5.27-3.51v-9.77h0s0,0,0,0l-14.06,9.38-5.27-3.52,36.03-24.07h0s36.03,24.07,36.03,24.07l-5.27,3.52-14.06-9.38h0s0,0,0,0v9.77l-5.27,3.51v-16.81l-8.79-5.86h0s0,0,0,0v51.58l36.91,24.63h0s0,0,0,0v-10.95l-12.01-8.02,4.1-2.73,7.91,5.28h0s0,0,0,0v-19.16l5.26-3.51v38.88h1.76s0,0,0,0v-42.4h0s0,0,0,0l-8.79,5.87v16.8l-5.27-3.51v-9.77h0s0,0,0,0l-13.18,8.79-4.39-2.93,34.27-22.87,34.27,22.87-4.39,2.93-13.18-8.79h0s0,0,0,0v9.77l-5.27,3.51v-16.81l-8.79-5.87h0s0,0,0,0v42.4h1.76s0,0,0,0v-38.88l5.26,3.51v19.16h0s0,0,0,0l7.91-5.27,4.1,2.73-12.01,8.02v10.95h0s0,0,0,0l36.91-24.63v-51.58h0s0,0,0,0l-8.79,5.86v16.81l-5.27-3.51v-9.77h0s0,0,0,0l-14.06,9.38-5.27-3.52,36.03-24.06,36.03,24.06-5.27,3.52-14.06-9.38h0s0,0,0,0v9.77l-5.27,3.51v-16.81l-8.79-5.86h0s0,0,0,0v51.58l36.91,24.63h0s0,0,0,0v-10.95l-12.01-8.02,4.1-2.73,7.91,5.28h0s0,0,0,0v-19.16l5.26-3.51v38.88h0s1.76,0,1.76,0v-42.4h0s0,0,0,0l-8.79,5.87v16.8l-5.27-3.51v-9.77h0s0,0,0,0l-13.18,8.79-4.39-2.93,34.27-22.87,34.27,22.87-4.39,2.93-13.18-8.79h0s0,0,0,0v9.77l-5.27,3.51v-16.8l-8.79-5.87h0s0,0,0,0v42.4h0s1.76,0,1.76,0v-38.88l5.26,3.51v19.15h0s0,0,0,0l7.91-5.28,4.1,2.73-12.01,8.02v10.95h0s0,0,0,0l36.91-24.63v-51.58h0s0,0,0,0l-8.79,5.86v16.81l-5.27-3.51v-9.77h0s0,0,0,0l-14.06,9.38-5.27-3.52,36.03-24.07v-2.35l-7.9,5.28h-.01l-31.64,21.14,8.79,5.87h0s0,0,0,0l12.3-8.2v6.25l-7.61,5.08,14.65,9.77v7.43l-33.39-22.3v-9.6h0v-38.88l5.26,3.51v15.2h0v3.96h0s0,0,0,0h0s0,0,0,0h0s0,0,0,0l1.99-1.33,3.94-2.63h0l1.98-1.32,4.01,2.67.09.06-12.01,8.02v10.95h0s0,0,0,0h0s0,0,0,0h0s36.91-24.63,36.91-24.63v-51.58h0s0,0,0,0l-8.79,5.86v16.81l-5.27-3.51v-9.77h0s0,0,0,0l-14.06,9.38-5.27-3.52,36.03-24.07v-2.35l-7.9,5.28h-.01l-31.64,21.14,8.79,5.87h0s0,0,0,0l12.3-8.2v6.25l-7.62,5.08,14.65,9.77v7.43l-33.39-22.3v-29.76h0v-18.71l5.26,3.51v19.15h0s0,0,0,0h0s0,0,0,0h0s0,0,0,0l5.93-3.96h0l1.98-1.32,4.1,2.73-12.01,8.02v10.95h0s0,0,0,0h0s0,0,0,0h0s0,0,0,0l7.3-4.87,29.61-19.76v-51.58h0s0,0,0,0l-8.79,5.86v16.81l-5.27-3.51v-9.77h0s0,0,0,0l-14.06,9.38-5.27-3.52,36.03-24.07v-2.35l-7.9,5.28h-.01l-31.64,21.14,8.79,5.87h0s0,0,0,0l12.3-8.2v6.25l-7.62,5.08,14.65,9.77v7.43l-33.39-22.3v-9.6h0v-38.88l5.27,3.51v15.2h0v3.96h0s0,0,0,0h0s0,0,0,0h0s0,0,0,0l1.99-1.33,3.94-2.63h0l1.98-1.32,4.01,2.67.09.06-12.01,8.02v10.95h0s0,0,0,0h0s0,0,0,0h0s36.91-24.63,36.91-24.63v-51.58h0s0,0,0,0l-8.79,5.86v16.81l-5.27-3.51v-9.77h0s0,0,0,0l-14.06,9.38-5.27-3.52,36.03-24.07v-2.35l-7.9,5.28h-.01l-31.64,21.14,8.79,5.87h0s0,0,0,0l12.3-8.2v6.25l-7.62,5.08,14.65,9.77v7.43l-33.39-22.3v-29.76h0v-18.71l5.26,3.51v19.16h0s0,0,0,0l1.68-1.12,4.25-2.83h0l1.98-1.32,4.1,2.73-12.01,8.02h0s0,0,0,0v10.95h0s0,0,0,0l36.91-24.63v-51.58h0s0,0,0,0l-8.79,5.86v16.81l-5.27-3.51v-9.77h0s0,0,0,0l-14.06,9.38-5.27-3.52,36.03-24.07v-2.35l-7.9,5.28h-.01l-31.64,21.14,8.79,5.87h0s0,0,0,0l12.3-8.2v6.25l-7.61,5.08,14.65,9.77v7.43l-33.39-22.3v-9.6h0v-38.88l5.26,3.51v15.2h0v3.96h0s0,0,0,0h0s0,0,0,0h0s0,0,0,0l1.99-1.33,3.94-2.63h0l1.98-1.32,4.01,2.67.09.06-12.01,8.02v10.95h0s0,0,0,0h0s0,0,0,0h0s0,0,0,0l36.91-24.63v-51.58h0s0,0,0,0l-8.79,5.86v16.81l-5.27-3.51v-9.77h0s0,0,0,0l-14.06,9.38-5.27-3.52,36.03-24.07v-2.35ZM511.5,62.95l-4.39-2.93,34.27-22.87,34.27,22.87-4.39,2.93-13.18-8.79h0s0,0,0,0v9.77l-5.17,3.45-.1.07v-16.8l-8.79-5.87h0s0,0,0,0v22.23h0v30.94l36.91,24.65h0s0,0,0,0v-12.12l-12.89-8.6,4.98-3.32,7.91,5.28h0s0,0,0,0v-19.15l5.27-3.52v47.28l-7.68,5.03h0l-19.5,12.79-6.21,4.07v-6.26l13.77-9.19h0s-.13-.08-.13-.08l-2-1.33h0l-4.62-3.08v-6.25l11.42,7.62h0s0,0,0,0l7.91-5.28-37.79-25.26h0s0,0,0,0l-37.79,25.26,7.91,5.28h0s0,0,0,0l11.42-7.62v6.25l-6.74,4.49h0,0s.81.54.81.54l12.96,8.65v6.26l-25.71-16.86h0l-7.68-5.03v-47.28l5.27,3.51v19.16h0s0,0,0,0l7.91-5.28,4.98,3.32-12.89,8.6v12.12h0s0,0,0,0l36.91-24.65v-10.77h0v-42.4h0s0,0,0,0l-8.79,5.87v16.37h0v.44l-5.27-3.51v-9.77h0s0,0,0,0l-13.18,8.79ZM530.31,136.49l1.4.94h0s0,0,0,0h0s0,0,0,0h0s0,0,0,0v-3.96h0v-15.2l5.26-3.51v38.88h0v9.6l-33.39,22.3v-7.43l14.65-9.77-7.61-5.08v-6.25l12.3,8.2h0s0,0,0,0l8.79-5.87-31.64-21.14h-.01l-7.9-5.27h0s0,0,0,0h0s0,0,0,0l-7.9,5.28h-.01l-31.64,21.14,8.79,5.87h0s0,0,0,0l12.3-8.2v6.25l-7.62,5.08,14.65,9.77v7.43l-33.39-22.3v-29.76h0v-18.71l5.26,3.51v19.16h0s0,0,0,0h0s0,0,0,0h0s0,0,0,0l5.93-3.96h0l1.98-1.32,4.1,2.73-12.01,8.02v10.95h0s0,0,0,0h0s0,0,0,0h0s0,0,0,0l7.3-4.87,29.61-19.76v-51.58h0s0,0,0,0l-8.79,5.86v16.81l-5.27-3.51v-9.77h0s0,0,0,0l-14.06,9.38-5.27-3.52,36.03-24.06,36.03,24.06-5.27,3.52-14.06-9.38h0s0,0,0,0v9.77l-5.27,3.51v-16.81l-8.79-5.86h0s0,0,0,0v51.58l36.91,24.63h0s0,0,0,0h0s0,0,0,0h0s0,0,0,0v-10.95l-12.01-8.02,1.56-1.04,2.54-1.69,1.98,1.32h0l4.53,3.02ZM494.8,144.1h0s0,0,0,0v51.58l36.16,24.13.76.51h0s0,0,0,0h0s0,0,0,0v-10.95l-12.01-8.02,4.1-2.73,1.98,1.32h0l5.93,3.96h0s0,0,0,0h0s0,0,0,0v-19.15l5.26-3.51v18.71h0v29.76l-33.39,22.3v-7.43l14.65-9.77-7.62-5.08v-6.25l12.3,8.2h0s0,0,0,0l8.79-5.87-31.64-21.14h-.01l-7.9-5.27h0s0,0,0,0h0s0,0,0,0l-7.9,5.28h-.01l-31.64,21.14,8.79,5.87h0s0,0,0,0l12.3-8.2v6.25l-7.62,5.08,14.65,9.77v7.43l-33.39-22.3v-9.6h0v-38.88l5.26,3.51v15.2h0v3.96h0s0,0,0,0h0s0,0,0,0h0s0,0,0,0l1.99-1.33,3.94-2.63h0l1.98-1.32,3.93,2.62.17.11-12.01,8.02v10.95h0s0,0,0,0h0s0,0,0,0h0s36.91-24.63,36.91-24.63v-51.58h0s0,0,0,0l-8.79,5.86v16.81l-5.27-3.51v-9.77h0s0,0,0,0l-14.06,9.38-5.27-3.52,36.03-24.06,36.03,24.06-5.27,3.52-14.06-9.38h0s0,0,0,0v9.77l-5.27,3.52v-16.81l-8.79-5.86ZM494.8,210.57h0s0,0,0,0v51.58l36.91,24.63h0s0,0,0,0h0s0,0,0,0h0s0,0,0,0v-10.95l-12.01-8.02,4.1-2.73,1.98,1.32h0l2.66,1.77,3.28,2.19h0s0,0,0,0h0s0,0,0,0h0s0,0,0,0v-3.96h0v-15.2l5.26-3.51v38.88h0v9.6l-33.39,22.3v-7.43l14.65-9.77-7.62-5.08v-6.25l12.3,8.2h0s0,0,0,0l8.79-5.87-31.64-21.14h-.01l-7.9-5.27h0s0,0,0,0h0s0,0,0,0l-7.9,5.28h-.01l-31.64,21.14,8.79,5.87h0s0,0,0,0l12.3-8.2v6.25l-7.62,5.08,14.65,9.77v7.43l-33.39-22.3v-29.76h0v-18.71l5.26,3.51v19.16h0s0,0,0,0l1.68-1.12,4.25-2.83h0l1.97-1.32,4.1,2.73-12.01,8.02h0s0,0,0,0v10.95h0s0,0,0,0l36.91-24.63v-51.58h0s0,0,0,0l-8.79,5.86v16.81l-5.27-3.51v-9.77h0s0,0,0,0l-14.06,9.38-5.27-3.52,36.03-24.06,36.03,24.06-5.27,3.52-14.06-9.38h0s0,0,0,0v9.77l-5.27,3.52v-16.81l-8.79-5.86ZM494.8,277.03h0s0,0,0,0v51.58l36.16,24.13.76.51h0s0,0,0,0h0s0,0,0,0v-10.95l-12.01-8.02,4.1-2.73,1.98,1.32h0l5.93,3.96h0s0,0,0,0h0s0,0,0,0v-19.16l5.27-3.51v18.71h0v29.76l-33.39,22.3v-7.43l14.65-9.77-7.62-5.08v-6.25l12.3,8.2h0s0,0,0,0l8.79-5.87-31.64-21.14h-.01l-7.9-5.27h0s0,0,0,0h0s0,0,0,0l-7.9,5.28h-.01l-31.64,21.14,8.79,5.87h0s0,0,0,0l12.3-8.2v6.25l-7.61,5.08,14.65,9.77v7.43l-33.39-22.3v-9.6h0v-38.88l5.26,3.51v15.2h0v3.96h0s0,0,0,0h0s0,0,0,0h0s0,0,0,0l1.99-1.33,3.94-2.63h0l1.98-1.32,3.93,2.62.17.11-12.01,8.02v10.95h0s0,0,0,0h0s0,0,0,0h0s36.91-24.63,36.91-24.63v-51.58h0s0,0,0,0l-8.79,5.86v16.81l-5.27-3.51v-9.77h0s0,0,0,0l-14.06,9.38-5.27-3.52,36.03-24.06,36.03,24.06-5.27,3.52-14.06-9.38h0s0,0,0,0v9.77l-5.27,3.51v-16.81l-8.79-5.86ZM494.8,343.5h0s0,0,0,0v51.58l36.91,24.63h0s0,0,0,0h0s0,0,0,0h0s0,0,0,0v-10.95l-12.01-8.02,1.56-1.04,2.54-1.69,1.98,1.32h0l4.53,3.02,1.4.94h0s0,0,0,0h0s0,0,0,0h0s0,0,0,0v-3.96h0v-15.2l5.26-3.51v38.88h0v9.6l-33.39,22.3v-7.43l14.65-9.77-7.61-5.08v-6.25l12.3,8.2h0s0,0,0,0l8.79-5.87-31.64-21.14h-.01l-7.9-5.27h0s0,0,0,0h0s0,0,0,0l-7.9,5.28h-.01l-31.64,21.14,8.79,5.87h0s0,0,0,0l12.3-8.2v6.25l-7.62,5.08,14.65,9.77v7.43l-33.39-22.3v-29.76h0v-18.71l5.26,3.51v19.16h0s0,0,0,0h0s0,0,0,0h0s0,0,0,0l5.93-3.96h0l1.98-1.32,4.1,2.73-12.01,8.02v10.95h0s0,0,0,0h0s0,0,0,0h0s0,0,0,0l7.3-4.87,29.61-19.76v-51.58h0s0,0,0,0l-8.79,5.86v16.81l-5.27-3.51v-9.77h0s0,0,0,0l-14.06,9.38-5.27-3.52,36.03-24.06,36.03,24.06-5.27,3.52-14.06-9.38h0s0,0,0,0v9.77l-5.27,3.51v-16.81l-8.79-5.86ZM468.14,467.21h0s-6.74-4.5-6.74-4.5v-6.25l11.42,7.62h0s0,0,0,0l7.91-5.28-37.79-25.26h0s0,0,0,0l-37.79,25.26,7.91,5.28h0s0,0,0,0l11.42-7.62v6.25l-4.62,3.08h0l-1.8,1.2-.32.21h0,0s13.77,9.19,13.77,9.19v6.25l-1.02-.67-24.7-16.19h0l-7.68-5.03v-47.28l5.27,3.51v19.15h0s0,0,0,0l7.91-5.27,4.98,3.32-12.89,8.6v12.12h0s0,0,0,0l36.91-24.65v-30.94h0v-22.23h0s0,0,0,0l-8.79,5.87v16.8l-.07-.05-5.2-3.47v-9.77h0s0,0,0,0l-13.18,8.79-4.39-2.93,34.27-22.87,34.27,22.87-4.39,2.93-13.18-8.79h0s0,0,0,0v9.77l-5.27,3.51v-.44h0v-16.37l-8.79-5.87h0s0,0,0,0v42.4h0v10.77l36.91,24.65h0s0,0,0,0v-12.12l-12.89-8.6,4.98-3.32,7.91,5.28h0s0,0,0,0v-19.15l5.27-3.51v47.28l-7.68,5.03h0l-25.71,16.86v-6.26l11.7-7.81,2.07-1.38h0ZM385.83,404.07h-.01l-31.64,21.14,8.79,5.87h0s0,0,0,0l12.3-8.2v6.25l-7.62,5.08,14.65,9.77v7.43l-33.39-22.3v-29.76h0v-18.71l5.26,3.51v19.16h0s0,0,0,0h0s0,0,0,0h0s0,0,0,0l5.93-3.96h0l1.98-1.32,4.1,2.73-12.01,8.02v10.95h0s0,0,0,0h0s0,0,0,0h0s0,0,0,0l7.32-4.88,29.59-19.75v-51.58h0s0,0,0,0l-8.79,5.86v16.81l-5.27-3.51v-9.77h0s0,0,0,0l-14.06,9.38-5.27-3.52,36.03-24.07h0s36.03,24.07,36.03,24.07l-5.27,3.52-14.06-9.38h0s0,0,0,0v9.77l-5.27,3.51v-16.81l-8.79-5.86h0s0,0,0,0v51.58l36.91,24.63h0s0,0,0,0h0s0,0,0,0h0s0,0,0,0v-10.95l-12.01-8.02,1.79-1.19.33-.22h0l1.98-1.32,1.98,1.32h0l4.53,3.02,1.41.94h0s0,0,0,0h0s0,0,0,0h0s0,0,0,0v-3.96h0v-15.2l5.26-3.51v38.88h0v9.6l-33.39,22.3v-7.43l14.65-9.77-7.62-5.08v-6.25l12.3,8.2h0s0,0,0,0l8.79-5.87-31.64-21.14h-.02l-7.9-5.28h0s-7.9,5.28-7.9,5.28ZM369.71,467.21h0l-.4-.27-6.34-4.23v-6.25l11.42,7.62h0s0,0,0,0l7.91-5.28-37.79-25.26h0s0,0,0,0l-37.79,25.26,7.91,5.28h0s0,0,0,0l11.42-7.62v6.25l-4.62,3.08h0l-2.12,1.41.81.54,12.96,8.65v6.26l-1.01-.67-24.7-16.19h0l-7.68-5.03v-47.28l5.27,3.51v19.15h0s0,0,0,0l7.91-5.28,4.98,3.32-12.89,8.6v12.12h0s0,0,0,0l36.91-24.65v-30.94h0v-22.23h0s0,0,0,0l-8.79,5.87v16.8l-.07-.05-5.2-3.47v-9.77h0s0,0,0,0l-13.18,8.79-4.39-2.93,34.27-22.87,34.27,22.87-4.39,2.93-13.18-8.79h0s0,0,0,0v9.77l-5.27,3.51v-.43h0v-16.37l-8.79-5.87h0s0,0,0,0v42.4h0v10.77l36.91,24.65h0s0,0,0,0v-12.12l-12.89-8.6,4.98-3.32,7.91,5.28h0s0,0,0,0v-19.16l5.27-3.51v47.28l-7.68,5.03h0l-25.71,16.86v-6.26l13.77-9.19h0ZM295.3,398.79h0s0,0,0,0l-7.9,5.28h-.01l-31.64,21.14,8.79,5.87h0s0,0,0,0l12.3-8.2v6.25l-7.62,5.08,14.65,9.77v7.43l-33.39-22.3v-29.76h0v-18.71l5.26,3.51v19.16h0s0,0,0,0h0s0,0,0,0h0s0,0,0,0l5.93-3.96h0l1.98-1.32,4.1,2.73-12.01,8.02v10.95h0s0,0,0,0h0s0,0,0,0h0s0,0,0,0l7.32-4.88,29.59-19.75v-51.58h0s0,0,0,0l-8.79,5.86v16.81l-5.27-3.51v-9.77h0s0,0,0,0l-14.06,9.38-5.27-3.52,36.03-24.06,36.03,24.06-5.27,3.52-14.06-9.38h0s0,0,0,0v9.77l-5.27,3.51v-16.81l-8.79-5.86h0s0,0,0,0v51.58l36.91,24.63h0s0,0,0,0h0s0,0,0,0h0s0,0,0,0v-10.95l-12.01-8.02,1.68-1.12,2.41-1.61,1.98,1.32h0l4.52,3.01,1.41.94h0s0,0,0,0h0s0,0,0,0h0s0,0,0,0v-3.96h0v-15.2l5.26-3.51v38.88h0v9.6l-33.39,22.3v-7.43l14.65-9.77-7.62-5.08v-6.25l12.3,8.2h0s0,0,0,0l8.79-5.87-31.64-21.14h-.01l-7.9-5.28h0s0,0,0,0ZM271.28,467.21h0s-6.74-4.5-6.74-4.5v-6.25l11.42,7.62h0s0,0,0,0l7.91-5.28-37.79-25.26h0s0,0,0,0l-37.79,25.26,7.91,5.28h0s0,0,0,0l11.42-7.62v6.25l-4.62,3.08h0l-1.8,1.2-.32.21h0,0s13.77,9.19,13.77,9.19v6.25l-1.01-.66-24.71-16.2h0l-7.68-5.03v-47.28l5.27,3.51v19.15h0s0,0,0,0l7.91-5.27,4.98,3.32-12.89,8.6v12.12h0s0,0,0,0l36.91-24.65v-30.94h0v-22.23h0s0,0,0,0l-8.79,5.87v16.8l-.07-.05-5.2-3.47v-9.77h0s0,0,0,0l-13.18,8.79-4.39-2.93,34.27-22.87,34.27,22.87-4.39,2.93-13.18-8.79h0s0,0,0,0v9.77l-5.27,3.51v-.44h0v-16.37l-8.79-5.87h0s0,0,0,0v42.4h0v10.77l36.91,24.65h0s0,0,0,0v-12.12l-12.89-8.6,4.98-3.32,7.91,5.28h0s0,0,0,0v-19.15l5.27-3.51v47.28l-7.68,5.03h0l-25.71,16.86v-6.26l11.7-7.81,2.07-1.38h0ZM188.97,404.07h-.01l-31.64,21.14,8.79,5.87h0s0,0,0,0l12.3-8.2v6.25l-7.62,5.08,14.65,9.77v7.43l-33.39-22.3v-29.76h0v-18.71l5.26,3.51v19.16h0s0,0,0,0h0s0,0,0,0h0s0,0,0,0l5.93-3.96h0l1.98-1.32,4.1,2.73-12.01,8.02v10.95h0s0,0,0,0h0s0,0,0,0h0s0,0,0,0l7.32-4.88,29.59-19.75v-51.58h0s0,0,0,0l-8.79,5.86v16.81l-5.27-3.51v-9.77h0s0,0,0,0l-14.06,9.38-5.27-3.52,36.03-24.07,36.03,24.07-5.27,3.52-14.06-9.38h0s0,0,0,0v9.77l-5.27,3.51v-16.81l-8.79-5.86h0s0,0,0,0v51.58l36.91,24.63h0s0,0,0,0h0s0,0,0,0h0s0,0,0,0v-10.95l-12.01-8.02,1.79-1.19.33-.22h0l1.98-1.32,1.98,1.32h0l4.52,3.01,1.42.95h0s0,0,0,0h0s0,0,0,0h0s0,0,0,0v-3.96h0v-15.2l5.26-3.51v38.88h0v9.6l-33.39,22.3v-7.43l14.65-9.77-7.62-5.08v-6.25l12.3,8.2h0s0,0,0,0l8.79-5.87-31.64-21.14h-.02l-7.9-5.28h0s-7.9,5.28-7.9,5.28ZM172.84,467.21h0l-.4-.27-6.34-4.23v-6.25l11.42,7.62h0s0,0,0,0l7.91-5.28-37.79-25.26h0s0,0,0,0l-37.79,25.26,7.91,5.28h0s0,0,0,0l11.42-7.62v6.25l-4.62,3.08h0l-2.12,1.41.81.54,12.96,8.65v6.26l-1.01-.67-24.7-16.19h0l-7.68-5.03v-47.28l5.27,3.51v19.15h0s0,0,0,0l7.91-5.28,4.98,3.32-12.89,8.6v12.12h0s0,0,0,0l36.91-24.65v-30.94h0v-22.23h0s0,0,0,0l-8.79,5.87v16.8l-.07-.05-5.2-3.47v-9.77h0s0,0,0,0l-13.18,8.79-4.39-2.93,34.27-22.87,34.27,22.87-4.39,2.93-13.18-8.79h0s0,0,0,0v9.77l-5.27,3.51v-.43h0v-16.37l-8.79-5.87h0s0,0,0,0v42.4h0v10.77l36.91,24.65h0s0,0,0,0v-12.12l-12.89-8.6,4.98-3.32,7.91,5.28h0s0,0,0,0v-19.16l5.27-3.51v47.28l-7.68,5.03h0l-25.71,16.86v-6.26l13.77-9.19h0ZM98.43,398.79h0s0,0,0,0l-7.9,5.28h-.01l-31.64,21.14,8.79,5.87h0s0,0,0,0l12.3-8.2v6.25l-7.62,5.08,14.65,9.77v7.43l-33.39-22.3v-29.76h0v-18.71l5.26,3.51v19.16h0s0,0,0,0h0s0,0,0,0h0s0,0,0,0l5.93-3.96h0l1.98-1.32,4.1,2.73-12.01,8.02v10.95h0s0,0,0,0h0s0,0,0,0h0s0,0,0,0l7.32-4.88,29.59-19.75v-51.58h0s0,0,0,0l-8.79,5.86v16.81l-5.27-3.51v-9.77h0s0,0,0,0l-14.06,9.38-5.27-3.52,36.03-24.06,36.03,24.06-5.27,3.52-14.06-9.38h0s0,0,0,0v9.77l-5.27,3.51v-16.81l-8.79-5.86h0s0,0,0,0v51.58l36.91,24.63h0s0,0,0,0h0s0,0,0,0h0s0,0,0,0v-10.95l-12.01-8.02,1.68-1.12,2.41-1.61,1.98,1.32h0l4.52,3.01,1.41.94h0s0,0,0,0h0s0,0,0,0h0s0,0,0,0v-3.96h0v-15.2l5.26-3.51v38.88h0v9.6l-33.39,22.3v-7.43l14.65-9.77-7.62-5.08v-6.25l12.3,8.2h0s0,0,0,0l8.79-5.87-31.64-21.14h-.01l-7.9-5.28h0s0,0,0,0ZM58.88,336.82h0s0,0,0,0h0s0,0,0,0h0s2.01-1.34,2.01-1.34l3.92-2.62h0l1.98-1.32,3.92,2.62.18.12-12.01,8.02v10.95h0s0,0,0,0h0s0,0,0,0h0s36.91-24.63,36.91-24.63v-51.58h0s0,0,0,0l-8.79,5.86v16.81l-5.27-3.51v-9.77h0s0,0,0,0l-14.06,9.38-5.27-3.52,36.03-24.07,36.03,24.07-5.27,3.52-14.06-9.38h0s0,0,0,0v9.77l-5.27,3.51v-16.81l-8.79-5.86h0s0,0,0,0v51.58l36.15,24.12.77.51h0s0,0,0,0h0s0,0,0,0h0s0-10.95,0-10.95l-12.01-8.02,4.1-2.73,1.98,1.32h0l5.93,3.96h0s0,0,0,0h0s0,0,0,0v-19.15l5.27-3.51v18.71h0v29.76l-33.39,22.3v-7.43l14.65-9.77-7.62-5.08v-6.25l12.3,8.2h0s0,0,0,0l8.79-5.87-31.64-21.14h-.01l-7.9-5.28h0s0,0,0,0h0s0,0,0,0l-7.9,5.28h-.01l-31.64,21.14,8.79,5.87h0s0,0,0,0l12.3-8.2v6.25l-7.62,5.08,14.65,9.77v7.43l-33.39-22.3v-9.6h0v-38.88l5.26,3.51v15.2h0v3.96h0ZM53.62,266.4v-18.71l5.26,3.51v19.16h0s0,0,0,0l1.7-1.13,4.24-2.82h0l1.97-1.32,4.1,2.73-12.01,8.02h0s0,0,0,0v10.95h0s0,0,0,0l36.91-24.63v-51.58h0s0,0,0,0l-8.79,5.86v16.81l-5.27-3.51v-9.77h0s0,0,0,0l-14.06,9.38-5.27-3.52,36.03-24.06,36.03,24.06-5.27,3.52-14.06-9.38h0s0,0,0,0v9.77l-5.27,3.51v-16.81l-8.79-5.86h0s0,0,0,0v51.58l36.91,24.63h0s0,0,0,0h0s0,0,0,0h0s0,0,0,0v-10.95l-12.01-8.02,4.1-2.73,1.98,1.32h0l2.63,1.75,3.3,2.2h0s0,0,0,0h0s0,0,0,0h0s0,0,0,0v-3.96h0v-15.2l5.27-3.52v38.88h0v9.6l-33.39,22.3v-7.43l14.65-9.77-7.62-5.08v-6.25l12.3,8.2h0s0,0,0,0l8.79-5.87-31.64-21.14h-.01l-7.9-5.28h0s0,0,0,0h0s0,0,0,0l-7.9,5.28h-.01l-31.64,21.14,8.79,5.87h0s0,0,0,0l12.3-8.2v6.25l-7.61,5.08,14.65,9.77v7.43l-33.39-22.3v-29.76h0ZM58.88,203.89h0s0,0,0,0h0s0,0,0,0h0s2.01-1.34,2.01-1.34l3.92-2.62h0l1.98-1.32,3.92,2.62.18.12-12.01,8.02v10.95h0s0,0,0,0h0s0,0,0,0h0s36.91-24.63,36.91-24.63v-51.58h0s0,0,0,0l-8.79,5.86v16.81l-5.27-3.51v-9.77h0s0,0,0,0l-14.06,9.38-5.27-3.52,36.03-24.07,36.03,24.07-5.27,3.52-14.06-9.38h0s0,0,0,0v9.77l-5.27,3.51v-16.81l-8.79-5.86h0s0,0,0,0v51.58l36.15,24.12.77.51h0s0,0,0,0h0s0,0,0,0v-10.95l-12.01-8.02,4.1-2.73,1.98,1.32h0l5.93,3.96h0s0,0,0,0h0s0,0,0,0v-19.16l5.26-3.51v18.71h0v29.76l-33.39,22.3v-7.43l14.65-9.77-7.62-5.08v-6.25l12.3,8.2h0s0,0,0,0l8.79-5.87-31.64-21.14h-.01l-7.9-5.28h0s0,0,0,0h0s0,0,0,0l-7.9,5.28h-.01l-31.64,21.14,8.79,5.87h0s0,0,0,0l12.3-8.2v6.25l-7.61,5.08,14.65,9.77v7.43l-33.39-22.3v-9.6h0v-38.88l5.26,3.51v15.2h0v3.96h0ZM53.62,133.47v-18.71l5.26,3.51v19.16h0s0,0,0,0h0s0,0,0,0h0s0,0,0,0l5.93-3.96h0l1.98-1.32,4.1,2.73-12.01,8.02v10.95h0s0,0,0,0h0s0,0,0,0h0s0,0,0,0l7.32-4.88,29.59-19.75v-51.58h0s0,0,0,0l-8.79,5.86v16.81l-5.27-3.51v-9.77h0s0,0,0,0l-14.06,9.38-5.27-3.52,36.03-24.06,36.03,24.06-5.27,3.52-14.06-9.38h0s0,0,0,0v9.77l-5.27,3.51v-16.81l-8.79-5.86h0s0,0,0,0v51.58l36.91,24.63h0s0,0,0,0h0s0,0,0,0h0s0,0,0,0v-10.95l-12.01-8.02,1.68-1.12,2.41-1.61,1.98,1.32h0l4.52,3.01,1.41.94h0s0,0,0,0h0s0,0,0,0h0s0,0,0,0v-3.96h0v-15.2l5.26-3.51v38.88h0v9.6l-33.39,22.3v-7.43l14.65-9.77-7.62-5.08v-6.25l12.3,8.2h0s0,0,0,0l8.79-5.87-31.64-21.14h-.01l-7.9-5.28h0s0,0,0,0h0s0,0,0,0l-7.9,5.28h-.01l-31.64,21.14,8.79,5.87h0s0,0,0,0l12.3-8.2v6.25l-7.62,5.08,14.65,9.77v7.43l-33.39-22.3v-29.76h0ZM157.31,153.85h0s0,0,0,0h0s0,0,0,0h0s7.32-4.88,7.32-4.88l29.59-19.75v-51.58h0s0,0,0,0l-8.79,5.86v16.81l-5.27-3.51v-9.77h0s0,0,0,0l-14.06,9.38-5.27-3.52,36.03-24.07,36.03,24.07-5.27,3.52-14.06-9.38h0s0,0,0,0v9.77l-5.27,3.51v-16.81l-8.79-5.86h0s0,0,0,0v51.58l36.91,24.63h0s0,0,0,0h0s0,0,0,0h0s0,0,0,0v-10.95l-12.01-8.02,1.79-1.19.33-.22h0l1.98-1.32,1.98,1.32h0l4.52,3.01,1.42.95h0s0,0,0,0h0s0,0,0,0h0s0,0,0,0v-3.96h0v-15.2l5.26-3.51v38.88h0v9.6l-33.39,22.3v-7.43l14.65-9.77-7.62-5.08v-6.25l12.3,8.2h0s0,0,0,0l8.79-5.87-31.64-21.14h-.02l-7.9-5.28h0s-7.9,5.28-7.9,5.28h-.01l-31.64,21.14,8.79,5.87h0s0,0,0,0l12.3-8.2v6.25l-7.62,5.08,14.65,9.77v7.43l-33.39-22.3v-29.76h0v-18.71l5.26,3.51v19.16h0s0,0,0,0h0s0,0,0,0h0s0,0,0,0l5.93-3.96h0l1.98-1.32,4.1,2.73-12.01,8.02v10.95h0ZM255.75,153.85h0s0,0,0,0h0s0,0,0,0h0s7.32-4.88,7.32-4.88l29.59-19.75v-51.58h0s0,0,0,0l-8.79,5.86v16.81l-5.27-3.51v-9.77h0s0,0,0,0l-14.06,9.38-5.27-3.52,36.03-24.06,36.03,24.06-5.27,3.52-14.06-9.38h0s0,0,0,0v9.77l-5.27,3.51v-16.81l-8.79-5.86h0s0,0,0,0v51.58l36.91,24.63h0s0,0,0,0h0s0,0,0,0h0s0,0,0,0v-10.95l-12.01-8.02,1.68-1.12,2.41-1.61,1.98,1.32h0l4.52,3.01,1.41.94h0s0,0,0,0h0s0,0,0,0h0s0,0,0,0v-3.96h0v-15.2l5.26-3.51v38.88h0v9.6l-33.39,22.3v-7.43l14.65-9.77-7.62-5.08v-6.25l12.3,8.2h0s0,0,0,0l8.79-5.87-31.64-21.14h-.01l-7.9-5.28h0s0,0,0,0h0s0,0,0,0l-7.9,5.28h-.01l-31.64,21.14,8.79,5.87h0s0,0,0,0l12.3-8.2v6.25l-7.62,5.08,14.65,9.77v7.43l-33.39-22.3v-29.76h0v-18.71l5.26,3.51v19.16h0s0,0,0,0h0s0,0,0,0h0s0,0,0,0l5.93-3.96h0l1.98-1.32,4.1,2.73-12.01,8.02v10.95h0ZM354.18,153.85h0s0,0,0,0h0s0,0,0,0h0s7.32-4.88,7.32-4.88l29.59-19.75v-51.58h0s0,0,0,0l-8.79,5.86v16.81l-5.27-3.51v-9.77h0s0,0,0,0l-14.06,9.38-5.27-3.52,36.03-24.07h0s36.03,24.07,36.03,24.07l-5.27,3.52-14.06-9.38h0s0,0,0,0v9.77l-5.27,3.51v-16.81l-8.79-5.86h0s0,0,0,0v51.58l36.91,24.63h0s0,0,0,0h0s0,0,0,0h0s0,0,0,0v-10.95l-12.01-8.02,1.79-1.19.33-.22h0l1.98-1.32,1.98,1.32h0l4.53,3.02,1.41.94h0s0,0,0,0h0s0,0,0,0h0s0,0,0,0v-3.96h0v-15.2l5.26-3.51v38.88h0v9.6l-33.39,22.3v-7.43l14.65-9.77-7.62-5.08v-6.25l12.3,8.2h0s0,0,0,0l8.79-5.87-31.64-21.14h-.02l-7.9-5.28h0s-7.9,5.28-7.9,5.28h-.01l-31.64,21.14,8.79,5.87h0s0,0,0,0l12.3-8.2v6.25l-7.62,5.08,14.65,9.77v7.43l-33.39-22.3v-29.76h0v-18.71l5.26,3.51v19.16h0s0,0,0,0h0s0,0,0,0h0s0,0,0,0l5.93-3.96h0l1.98-1.32,4.1,2.73-12.01,8.02v10.95h0ZM454.38,133.47v-16.37l-8.79-5.87h0s0,0,0,0v42.4h0v10.77l36.91,24.65h0s0,0,0,0v-12.12l-12.89-8.6,4.98-3.32,7.91,5.28h0s0,0,0,0v-19.15l5.27-3.51v47.28l-7.68,5.03h0l-25.71,16.86v-6.26l11.7-7.81,2.07-1.38h0s0,0,0,0l-6.74-4.49v-6.25l11.42,7.62h0s0,0,0,0l7.91-5.28-37.79-25.26h0s0,0,0,0l-37.79,25.26,7.91,5.28h0s0,0,0,0l11.42-7.62v6.25l-4.62,3.08h0l-1.8,1.2-.32.21h0,0s13.77,9.19,13.77,9.19v6.25l-1.02-.67-24.7-16.19h0l-7.68-5.03v-47.28l5.27,3.51v19.15h0s0,0,0,0l7.91-5.27,4.98,3.32-12.89,8.6v12.12h0s0,0,0,0l36.91-24.65v-30.94h0v-22.23h0s0,0,0,0l-8.79,5.87v16.8l-.07-.05-5.2-3.47v-9.77h0s0,0,0,0l-13.18,8.79-4.39-2.93,34.27-22.87,34.27,22.87-4.39,2.93-13.18-8.79h0s0,0,0,0v9.77l-5.27,3.51v-.44h0ZM445.59,177.7h0s0,0,0,0v22.23h0v30.94l36.91,24.65h0s0,0,0,0v-12.12l-12.89-8.6,4.98-3.32,7.91,5.28h0s0,0,0,0v-19.15l5.27-3.51v47.28l-7.68,5.03h0l-25.71,16.86v-6.26l11.7-7.81,2.07-1.38h0s0,0,0,0h0s0,0,0,0l-2.12-1.41h0l-4.61-3.08v-6.25l11.42,7.62h0s0,0,0,0l7.91-5.28-37.79-25.26h0s0,0,0,0l-37.79,25.26,7.91,5.28h0s0,0,0,0l11.42-7.62v6.25l-4.61,3.08h0l-1.8,1.2-.32.21h0,0s0,0,0,0h0s13.77,9.19,13.77,9.19v6.25l-25.71-16.86h0l-7.68-5.03v-47.28l5.27,3.51v19.15h0s0,0,0,0l7.91-5.27,4.98,3.32-12.89,8.6v12.12h0s0,0,0,0l36.91-24.65v-10.77h0v-42.4h0s0,0,0,0l-8.79,5.87v16.37h0v.43l-5.27-3.51v-9.77h0s0,0,0,0l-13.18,8.79-4.39-2.93,34.27-22.87,34.27,22.87-4.39,2.93-13.18-8.79h0s0,0,0,0v9.77l-5.17,3.45-.1.07v-16.8l-8.79-5.87ZM454.38,266.4v-16.37l-8.79-5.87h0s0,0,0,0v42.4h0v10.77l36.91,24.65h0s0,0,0,0v-12.12l-12.89-8.6,4.98-3.32,7.91,5.28h0s0,0,0,0v-19.15l5.27-3.51v47.28l-7.68,5.03h0l-25.71,16.86v-6.26l11.7-7.81,2.07-1.38h0s0,0,0,0l-6.74-4.49v-6.25l11.42,7.62h0s0,0,0,0l7.91-5.28-37.79-25.26h0s0,0,0,0l-37.79,25.26,7.91,5.28h0s0,0,0,0l11.42-7.62v6.25l-4.62,3.08h0l-1.8,1.2-.32.21h0,0s13.77,9.19,13.77,9.19v6.25l-1.02-.67-24.7-16.19h0l-7.68-5.03v-47.28l5.27,3.51v19.15h0s0,0,0,0l7.91-5.27,4.98,3.32-12.89,8.6v12.12h0s0,0,0,0l36.91-24.65v-30.94h0v-22.23h0s0,0,0,0l-8.79,5.87v16.8l-.18-.12-5.09-3.4v-9.77h0s0,0,0,0l-13.18,8.79-4.39-2.93,34.27-22.87,34.27,22.87-4.39,2.93-13.18-8.79h0s0,0,0,0v9.77l-5.18,3.46-.09.06v-.44h0ZM445.59,310.63h0s0,0,0,0v22.23h0v30.94l36.91,24.65h0s0,0,0,0v-12.12l-12.89-8.6,4.98-3.32,7.91,5.28h0s0,0,0,0v-19.16l5.27-3.51v47.28l-7.68,5.03h0l-19.4,12.72-6.32,4.14v-6.26l11.7-7.81,2.07-1.38h0s0,0,0,0l-2.12-1.41h0l-4.62-3.08v-6.25l11.42,7.62h0s0,0,0,0l7.91-5.28-37.79-25.26h0s0,0,0,0l-37.79,25.26,7.91,5.28h0s0,0,0,0l11.42-7.62v6.25l-5.72,3.82-1.01.68h0,0s13.77,9.19,13.77,9.19v6.25l-25.71-16.86h0l-7.68-5.03v-47.28l5.27,3.51v19.15h0s0,0,0,0l7.91-5.27,4.98,3.32-12.89,8.6v12.12h0s0,0,0,0l36.91-24.65v-10.77h0v-42.4h0s0,0,0,0l-8.79,5.87v16.37h0v.43l-5.27-3.51v-9.77h0s0,0,0,0l-13.18,8.79-4.39-2.93,34.27-22.87,34.27,22.87-4.39,2.93-13.18-8.79h0s0,0,0,0v9.77l-5.17,3.45-.1.07v-16.8l-8.79-5.87ZM385.83,337.6h-.01l-31.64,21.14,8.79,5.87h0s0,0,0,0l12.3-8.2v6.25l-7.62,5.08,14.65,9.77v7.43l-33.39-22.3v-9.6h0v-38.88l5.27,3.51v15.2h0v3.96h0s0,0,0,0h0s0,0,0,0h0s2.01-1.34,2.01-1.34l3.92-2.62h0l1.98-1.32,3.93,2.62.17.11-12.01,8.02v10.95h0s0,0,0,0h0s0,0,0,0h0s0,0,0,0l36.91-24.63v-51.58h0s0,0,0,0l-8.79,5.86v16.81l-5.27-3.51v-9.77h0s0,0,0,0l-14.06,9.38-5.27-3.52,36.03-24.07h0s36.03,24.07,36.03,24.07l-5.27,3.52-14.06-9.38h0s0,0,0,0v9.77l-5.27,3.51v-16.81l-8.79-5.86h0s0,0,0,0v51.58l36.16,24.13.76.5h0s0,0,0,0h0s0,0,0,0h0s0-10.95,0-10.95l-12.01-8.02,4.1-2.73,1.98,1.32h0l5.93,3.96h0s0,0,0,0h0s0,0,0,0v-19.16l5.26-3.51v18.71h0v29.76l-33.39,22.3v-7.43l14.65-9.77-7.61-5.08v-6.25l12.3,8.2h0s0,0,0,0l8.79-5.87-31.64-21.14h-.02l-7.9-5.28h0s-7.9,5.28-7.9,5.28ZM369.71,400.75h0l-.13-.08-2-1.33h0l-4.62-3.08v-6.25l11.42,7.62h0s0,0,0,0l7.91-5.28-37.79-25.26h0s0,0,0,0l-37.79,25.26,7.91,5.28h0s0,0,0,0l11.42-7.62v6.25l-6.74,4.49h0l.81.54,12.96,8.65v6.26l-25.71-16.86h0l-7.68-5.03v-47.28l5.27,3.51v19.16h0s0,0,0,0l7.91-5.28,4.98,3.32-12.89,8.6v12.12h0s0,0,0,0l36.91-24.65v-10.77h0v-42.4h0s0,0,0,0l-8.79,5.87v16.37h0v.44l-5.27-3.51v-9.77h0s0,0,0,0l-13.18,8.79-4.39-2.93,34.27-22.87,34.27,22.87-4.39,2.93-13.18-8.79h0s0,0,0,0v9.77l-5.17,3.45-.1.07v-16.8l-8.79-5.87h0s0,0,0,0v22.23h0v30.94l36.91,24.65h0s0,0,0,0v-12.12l-12.89-8.6,4.98-3.32,7.91,5.28h0s0,0,0,0v-19.15l5.27-3.51v47.28l-7.68,5.03h0l-19.49,12.78-6.23,4.08v-6.26l13.77-9.19h0ZM295.3,332.33h0s0,0,0,0l-7.9,5.28h-.01l-31.64,21.14,8.79,5.87h0s0,0,0,0l12.3-8.2v6.25l-7.62,5.08,14.65,9.77v7.43l-33.39-22.3v-9.6h0v-38.88l5.26,3.51v15.2h0v3.96h0s0,0,0,0h0s0,0,0,0h0s0,0,0,0l2.01-1.34,3.92-2.62h0l1.98-1.32,3.92,2.62.18.12-12.01,8.02v10.95h0s0,0,0,0h0s0,0,0,0h0s36.91-24.63,36.91-24.63v-51.58h0s0,0,0,0l-8.79,5.86v16.81l-5.27-3.51v-9.77h0s0,0,0,0l-14.06,9.38-5.27-3.52,36.03-24.07,36.03,24.07-5.27,3.52-14.06-9.38h0s0,0,0,0v9.77l-5.27,3.51v-16.81l-8.79-5.86h0s0,0,0,0v51.58l36.15,24.12.77.51h0s0,0,0,0h0s0,0,0,0h0s0-10.95,0-10.95l-12.01-8.02,4.1-2.73,1.98,1.32h0l5.93,3.96h0s0,0,0,0h0s0,0,0,0v-19.15l5.27-3.51v18.71h0v29.76l-33.39,22.3v-7.43l14.65-9.77-7.62-5.08v-6.25l12.3,8.2h0s0,0,0,0l8.79-5.87-31.64-21.14h-.01l-7.9-5.28h0s0,0,0,0ZM271.28,400.75h0s-2.12-1.42-2.12-1.42h0l-4.62-3.08v-6.25l11.42,7.62h0s0,0,0,0l7.91-5.28-37.79-25.26h0s0,0,0,0l-37.79,25.26,7.91,5.28h0s0,0,0,0l11.42-7.62v6.25l-5.72,3.82-1.01.68h0s13.77,9.19,13.77,9.19v6.25l-25.71-16.86h0l-7.68-5.03v-47.28l5.27,3.51v19.15h0s0,0,0,0l7.91-5.27,4.98,3.32-12.89,8.6v12.12h0s0,0,0,0l36.91-24.65v-10.77h0v-42.4h0s0,0,0,0l-8.79,5.87v16.37h0v.43l-5.27-3.51v-9.77h0s0,0,0,0l-13.18,8.79-4.39-2.93,34.27-22.87,34.27,22.87-4.39,2.93-13.18-8.79h0s0,0,0,0v9.77l-5.17,3.45-.1.07v-16.8l-8.79-5.87h0s0,0,0,0v22.23h0v30.94l36.91,24.65h0s0,0,0,0v-12.12l-12.89-8.6,4.98-3.32,7.91,5.28h0s0,0,0,0v-19.16l5.27-3.51v47.28l-7.68,5.03h0l-19.46,12.76-6.26,4.1v-6.26l11.7-7.81,2.07-1.38h0ZM188.97,337.6h-.01l-31.64,21.14,8.79,5.87h0s0,0,0,0l12.3-8.2v6.25l-7.62,5.08,14.65,9.77v7.43l-33.39-22.3v-9.6h0v-38.88l5.27,3.51v15.2h0v3.96h0s0,0,0,0h0s0,0,0,0h0s1.99-1.33,1.99-1.33l3.94-2.63h0l1.98-1.32,3.93,2.62.17.11-12.01,8.02v10.95h0s0,0,0,0h0s0,0,0,0h0s0,0,0,0l36.91-24.63v-51.58h0s0,0,0,0l-8.79,5.86v16.81l-5.27-3.51v-9.77h0s0,0,0,0l-14.06,9.38-5.27-3.52,36.03-24.07,36.03,24.07-5.27,3.52-14.06-9.38h0s0,0,0,0v9.77l-5.27,3.51v-16.81l-8.79-5.86h0s0,0,0,0v51.58l36.16,24.13.76.51h0s0,0,0,0h0s0,0,0,0h0s0-10.95,0-10.95l-12.01-8.02,4.1-2.73,1.98,1.32h0l5.93,3.96h0s0,0,0,0h0s0,0,0,0v-19.16l5.26-3.51v18.71h0v29.76l-33.39,22.3v-7.43l14.65-9.77-7.62-5.08v-6.25l12.3,8.2h0s0,0,0,0l8.79-5.87-31.64-21.14h-.01l-7.9-5.28h0s-7.9,5.28-7.9,5.28ZM172.84,400.75h0l-.13-.08-2-1.33h0l-4.62-3.08v-6.25l11.42,7.62h0s0,0,0,0l7.91-5.28-37.79-25.26h0s0,0,0,0l-37.79,25.26,7.91,5.28h0s0,0,0,0l11.42-7.62v6.25l-6.74,4.49h0,0l.81.54,12.96,8.65v6.26l-25.71-16.86h0l-7.68-5.03v-47.28l5.27,3.51v19.16h0s0,0,0,0l7.91-5.28,4.98,3.32-12.89,8.6v12.12h0s0,0,0,0l36.91-24.65v-10.77h0v-42.4h0s0,0,0,0l-8.79,5.87v16.37h0v.44l-5.27-3.51v-9.77h0s0,0,0,0l-13.18,8.79-4.39-2.93,34.27-22.87,34.27,22.87-4.39,2.93-13.18-8.79h0s0,0,0,0v9.77l-5.17,3.45-.1.07v-16.8l-8.79-5.87h0s0,0,0,0v22.23h0v30.94l36.91,24.65h0s0,0,0,0v-12.12l-12.89-8.6,4.98-3.32,7.91,5.28h0s0,0,0,0v-19.15l5.27-3.51v47.28l-7.68,5.03h0l-19.49,12.78-6.23,4.08v-6.26l13.77-9.19h0ZM122.46,334.28h0l.81.54,12.96,8.65v6.26l-1.01-.67-24.7-16.19h0l-7.68-5.03v-47.28l5.27,3.52v19.15h0s0,0,0,0l7.91-5.28,4.98,3.32-12.89,8.6v12.12h0s0,0,0,0l36.91-24.65v-30.94h0v-22.23h0s0,0,0,0l-8.79,5.87v16.8l-.18-.12-5.09-3.4v-9.77h0s0,0,0,0l-13.18,8.79-4.39-2.93,34.27-22.87,34.27,22.87-4.39,2.93-13.18-8.79h0s0,0,0,0v9.77l-5.18,3.46-.09.06v-.44h0v-16.37l-8.79-5.87h0s0,0,0,0v42.4h0v10.77l36.91,24.65h0s0,0,0,0v-12.12l-12.89-8.6,4.98-3.32,7.91,5.28h0s0,0,0,0v-19.16l5.27-3.51v47.28l-7.68,5.03h0l-25.71,16.86v-6.26l13.77-9.19-.4-.27-6.34-4.23v-6.25l11.42,7.62h0s0,0,0,0l7.91-5.28-37.79-25.26h0s0,0,0,0l-37.79,25.26,7.91,5.28h0s0,0,0,0l11.42-7.62v6.25l-4.62,3.08h0l-2.12,1.41h0ZM122.46,267.81h0s0,0,0,0l.81.54,12.96,8.65v6.25l-25.71-16.86h0l-7.68-5.03v-47.28l5.27,3.51v19.15h0s0,0,0,0l7.91-5.28,4.98,3.32-12.89,8.6v12.12h0s0,0,0,0l36.91-24.65v-10.77h0v-42.4h0s0,0,0,0l-8.79,5.87v16.37h0v.44l-5.27-3.51v-9.77h0s0,0,0,0l-13.18,8.79-4.39-2.93,34.27-22.87,34.27,22.87-4.39,2.93-13.18-8.79h0s0,0,0,0v9.77l-5.17,3.45-.1.07v-16.8l-8.79-5.87h0s0,0,0,0v22.23h0v30.94l36.91,24.65h0s0,0,0,0v-12.12l-12.89-8.6,4.98-3.32,7.91,5.28h0s0,0,0,0v-19.16l5.27-3.51v47.28l-7.68,5.03h0l-25.72,16.86v-6.25l13.77-9.19h0s0,0,0,0l-.13-.08-2-1.33h0l-4.61-3.08v-6.25l11.42,7.62h0s0,0,0,0l7.91-5.28-37.79-25.26h0s0,0,0,0l-37.79,25.26,7.91,5.28h0s0,0,0,0l11.42-7.62v6.25l-4.61,3.08h0l-2.12,1.41ZM157.31,220.32h0s0,0,0,0h0s0,0,0,0h0s36.91-24.63,36.91-24.63v-51.58h0s0,0,0,0l-8.79,5.86v16.81l-5.27-3.51v-9.77h0s0,0,0,0l-14.06,9.38-5.27-3.52,36.03-24.06,36.03,24.07-5.27,3.52-14.06-9.38h0s0,0,0,0v9.77l-5.27,3.51v-16.81l-8.79-5.86h0s0,0,0,0v51.58l36.16,24.13.76.51h0s0,0,0,0h0s0,0,0,0v-10.95l-12.01-8.02,4.1-2.73,1.98,1.32h0l5.93,3.96h0s0,0,0,0h0s0,0,0,0v-19.16l5.26-3.51v18.71h0v29.76l-33.39,22.3v-7.43l14.65-9.77-7.62-5.08v-6.25l12.3,8.2h0s0,0,0,0l8.79-5.87-31.64-21.14h-.02l-7.9-5.28h0s-7.9,5.28-7.9,5.28h-.01l-31.64,21.14,8.79,5.87h0s0,0,0,0l12.3-8.2v6.25l-7.62,5.08,14.65,9.77v7.43l-33.39-22.3v-9.6h0v-38.88l5.26,3.51v15.2h0v3.96h0s0,0,0,0h0s0,0,0,0h0s1.99-1.33,1.99-1.33l3.94-2.63h0l1.98-1.32,3.93,2.62.17.11-12.01,8.02v10.95h0ZM255.75,220.32h0s0,0,0,0h0s0,0,0,0h0s36.91-24.63,36.91-24.63v-51.58h0s0,0,0,0l-8.79,5.86v16.81l-5.27-3.51v-9.77h0s0,0,0,0l-14.06,9.38-5.27-3.52,36.03-24.07,36.03,24.07-5.27,3.52-14.06-9.38h0s0,0,0,0v9.77l-5.27,3.51v-16.81l-8.79-5.86h0s0,0,0,0v51.58l36.15,24.12.77.51h0s0,0,0,0h0s0,0,0,0v-10.95l-12.01-8.02,4.1-2.73,1.98,1.32h0l5.93,3.96h0s0,0,0,0h0s0,0,0,0v-19.16l5.26-3.51v18.71h0v29.76l-33.39,22.3v-7.43l14.65-9.77-7.62-5.08v-6.25l12.3,8.2h0s0,0,0,0l8.79-5.87-31.64-21.14h-.01l-7.9-5.28h0s0,0,0,0h0s0,0,0,0l-7.9,5.28h-.01l-31.64,21.14,8.79,5.87h0s0,0,0,0l12.3-8.2v6.25l-7.61,5.08,14.65,9.77v7.43l-33.39-22.3v-9.6h0v-38.88l5.26,3.51v15.2h0v3.96h0s0,0,0,0h0s0,0,0,0h0s0,0,0,0l2.01-1.34,3.92-2.62h0l1.98-1.32,3.92,2.62.18.12-12.01,8.02v10.95h0ZM354.18,220.32h0s0,0,0,0h0s0,0,0,0h0s36.91-24.63,36.91-24.63v-51.58h0s0,0,0,0l-8.79,5.86v16.81l-5.27-3.51v-9.77h0s0,0,0,0l-14.06,9.38-5.27-3.52,36.03-24.07h0s36.03,24.07,36.03,24.07l-5.27,3.52-14.06-9.38h0s0,0,0,0v9.77l-5.27,3.51v-16.81l-8.79-5.86h0s0,0,0,0v51.58l36.16,24.13.76.5h0s0,0,0,0h0s0,0,0,0v-10.95l-12.01-8.02,4.1-2.73,1.98,1.32h0l5.93,3.96h0s0,0,0,0h0s0,0,0,0v-19.16l5.26-3.51v18.71h0v29.76l-33.39,22.3v-7.43l14.65-9.77-7.62-5.08v-6.25l12.3,8.2h0s0,0,0,0l8.79-5.87-31.64-21.14h-.02l-7.9-5.28h0s-7.9,5.28-7.9,5.28h-.01l-31.64,21.14,8.79,5.87h0s0,0,0,0l12.3-8.2v6.25l-7.62,5.08,14.65,9.77v7.43l-33.39-22.3v-9.6h0v-38.88l5.26,3.51v15.2h0v3.96h0s0,0,0,0h0s0,0,0,0h0s2.01-1.34,2.01-1.34l3.92-2.62h0l1.98-1.32,3.93,2.62.17.11-12.01,8.02v10.95h0ZM396.37,210.57h0s0,0,0,0v51.58l36.91,24.63h0s0,0,0,0h0s0,0,0,0h0s0,0,0,0v-10.95l-12.01-8.02,4.1-2.73,1.98,1.32h0l2.65,1.76,3.29,2.19h0s0,0,0,0h0s0,0,0,0h0s0,0,0,0v-3.96h0v-15.2l5.26-3.51v38.88h0v9.6l-33.39,22.3v-7.43l14.65-9.77-7.62-5.08v-6.25l12.3,8.2h0s0,0,0,0l8.79-5.87-31.64-21.14h-.02l-7.9-5.28h0s-7.9,5.28-7.9,5.28h-.01l-31.64,21.14,8.79,5.87h0s0,0,0,0l12.3-8.2v6.25l-7.62,5.08,14.65,9.77v7.43l-33.39-22.3v-29.76h0v-18.71l5.26,3.51v19.16h0s0,0,0,0l1.7-1.13,4.24-2.83h0l1.98-1.32,4.1,2.73-12.01,8.02h0s0,0,0,0v10.95h0s0,0,0,0l36.91-24.63v-51.58h0s0,0,0,0l-8.79,5.86v16.81l-5.27-3.51v-9.77h0s0,0,0,0l-14.06,9.38-5.27-3.52,36.03-24.07h0s36.03,24.07,36.03,24.07l-5.27,3.52-14.06-9.38h0s0,0,0,0v9.77l-5.27,3.51v-16.81l-8.79-5.86ZM369.71,334.28h0l-.4-.27-6.34-4.23v-6.25l11.42,7.62h0s0,0,0,0l7.91-5.28-37.79-25.26h0s0,0,0,0l-37.79,25.26,7.91,5.28h0s0,0,0,0l11.42-7.62v6.25l-4.62,3.08h0l-2.12,1.41h0l.81.54,12.96,8.65v6.26l-1.01-.67-24.7-16.19h0l-7.68-5.03v-47.28l5.27,3.52v19.15h0s0,0,0,0l7.91-5.28,4.98,3.32-12.89,8.6v12.12h0s0,0,0,0l36.91-24.65v-30.94h0v-22.23h0s0,0,0,0l-8.79,5.87v16.8l-.18-.12-5.09-3.4v-9.77h0s0,0,0,0l-13.18,8.79-4.39-2.93,34.27-22.87,34.27,22.87-4.39,2.93-13.18-8.79h0s0,0,0,0v9.77l-5.18,3.46-.09.06v-.44h0v-16.37l-8.79-5.87h0s0,0,0,0v42.4h0v10.77l36.91,24.65h0s0,0,0,0v-12.12l-12.89-8.6,4.98-3.32,7.91,5.28h0s0,0,0,0v-19.16l5.27-3.51v47.28l-7.68,5.03h0l-25.71,16.86v-6.26l13.77-9.19ZM295.3,265.86h0s0,0,0,0l-7.9,5.28h-.01l-31.64,21.14,8.79,5.87h0s0,0,0,0l12.3-8.2v6.25l-7.61,5.08,14.65,9.77v7.43l-33.39-22.3v-29.76h0v-18.71l5.26,3.51v19.16h0s0,0,0,0l1.7-1.13,4.24-2.82h0l1.97-1.32,4.1,2.73-12.01,8.02h0s0,0,0,0v10.95h0s0,0,0,0l36.91-24.63v-51.58h0s0,0,0,0l-8.79,5.86v16.81l-5.27-3.51v-9.77h0s0,0,0,0l-14.06,9.38-5.27-3.52,36.03-24.06,36.03,24.06-5.27,3.52-14.06-9.38h0s0,0,0,0v9.77l-5.27,3.51v-16.81l-8.79-5.86h0s0,0,0,0v51.58l36.91,24.63h0s0,0,0,0h0s0,0,0,0h0s0,0,0,0v-10.95l-12.01-8.02,4.1-2.73,1.98,1.32h0l2.63,1.75,3.3,2.2h0s0,0,0,0h0s0,0,0,0h0s0,0,0,0v-3.96h0v-15.2l5.27-3.52v38.88h0v9.6l-33.39,22.3v-7.43l14.65-9.77-7.61-5.08v-6.25l12.3,8.2h0s0,0,0,0l8.79-5.87-31.64-21.14h-.01l-7.9-5.28h0s0,0,0,0ZM271.28,334.28h0s-6.74-4.5-6.74-4.5v-6.25l11.42,7.62h0s0,0,0,0l7.91-5.28-37.79-25.26h0s0,0,0,0l-37.79,25.26,7.91,5.28h0s0,0,0,0l11.42-7.62v6.25l-4.62,3.08h0l-1.8,1.2-.32.21h0s13.77,9.19,13.77,9.19v6.25l-1.01-.66-24.71-16.2h0l-7.68-5.03v-47.28l5.27,3.51v19.15h0s0,0,0,0l7.91-5.27,4.98,3.32-12.89,8.6v12.12h0s0,0,0,0l36.91-24.65v-30.94h0v-22.23h0s0,0,0,0l-8.79,5.87v16.8l-.18-.12-5.09-3.4v-9.77h0s0,0,0,0l-13.18,8.79-4.39-2.93,34.27-22.87,34.27,22.87-4.39,2.93-13.18-8.79h0s0,0,0,0v9.77l-5.18,3.46-.09.06v-.44h0v-16.37l-8.79-5.87h0s0,0,0,0v42.4h0v10.77l36.91,24.65h0s0,0,0,0v-12.12l-12.89-8.6,4.98-3.32,7.91,5.28h0s0,0,0,0v-19.15l5.27-3.51v47.28l-7.68,5.03h0l-25.71,16.86v-6.26l11.7-7.81,2.07-1.38h0ZM188.97,271.14h-.01l-31.64,21.14,8.79,5.87h0s0,0,0,0l12.3-8.2v6.25l-7.61,5.08,14.65,9.77v7.43l-33.39-22.3v-29.76h0v-18.71l5.26,3.51v19.16h0s0,0,0,0l1.68-1.12,4.25-2.84h0l1.98-1.32,4.1,2.73-12.01,8.02h0s0,0,0,0v10.95h0s0,0,0,0l36.91-24.63v-51.58h0s0,0,0,0l-8.79,5.86v16.81l-5.27-3.51v-9.77h0s0,0,0,0l-14.06,9.38-5.27-3.52,36.03-24.07,36.03,24.07-5.27,3.52-14.06-9.38h0s0,0,0,0v9.77l-5.27,3.51v-16.81l-8.79-5.86h0s0,0,0,0v51.58l36.91,24.63h0s0,0,0,0h0s0,0,0,0h0s0,0,0,0v-10.95l-12.01-8.02,4.1-2.73,1.98,1.32h0l2.62,1.75,3.31,2.21h0s0,0,0,0h0s0,0,0,0h0s0,0,0,0v-3.96h0v-15.2l5.26-3.51v38.88h0v9.6l-33.39,22.3v-7.43l14.65-9.77-7.62-5.08v-6.25l12.3,8.2h0s0,0,0,0l8.79-5.87-31.64-21.14h-.02l-7.9-5.28h0s-7.9,5.28-7.9,5.28ZM361.22,187.08h0s0,0,0,0v9.77l-5.17,3.45-.1.07v-16.8l-8.79-5.87h0s0,0,0,0v22.23h0v30.94l36.91,24.65h0s0,0,0,0v-12.12l-12.89-8.6,4.98-3.32,7.91,5.28h0s0,0,0,0v-19.16l5.27-3.51v47.28l-7.68,5.03h0l-25.72,16.86v-6.25l13.77-9.19h0s0,0,0,0l-.13-.08-2-1.33h0l-4.61-3.08v-6.25l11.42,7.62h0s0,0,0,0l7.91-5.28-37.79-25.26h0s0,0,0,0l-37.79,25.26,7.91,5.28h0s0,0,0,0l11.42-7.62v6.25l-4.61,3.08h0l-2.12,1.41h0s0,0,0,0l.81.54,12.96,8.65v6.25l-25.71-16.86h0l-7.68-5.03v-47.28l5.27,3.51v19.15h0s0,0,0,0l7.91-5.28,4.98,3.32-12.89,8.6v12.12h0s0,0,0,0l36.91-24.65v-10.77h0v-42.4h0s0,0,0,0l-8.79,5.87v16.37h0v.44l-5.27-3.51v-9.77h0s0,0,0,0l-13.18,8.79-4.39-2.93,34.27-22.87,34.27,22.87-4.39,2.93-13.18-8.79ZM262.78,187.08h0s0,0,0,0v9.77l-5.17,3.45-.1.07v-16.8l-8.79-5.87h0s0,0,0,0v22.23h0v30.94l36.91,24.65h0s0,0,0,0v-12.12l-12.89-8.6,4.98-3.32,7.91,5.28h0s0,0,0,0v-19.15l5.27-3.51v47.28l-7.68,5.03h0l-25.71,16.86v-6.26l11.7-7.81,2.07-1.38h0s0,0,0,0h0s0,0,0,0l-2.12-1.41h0l-4.61-3.08v-6.25l11.42,7.62h0s0,0,0,0l7.91-5.28-37.79-25.26h0s0,0,0,0l-37.79,25.26,7.91,5.28h0s0,0,0,0l11.42-7.62v6.25l-4.61,3.08h0l-1.8,1.2-.32.21h0,0s0,0,0,0h0s13.77,9.19,13.77,9.19v6.25l-25.71-16.86h0l-7.68-5.03v-47.28l5.27,3.51v19.15h0s0,0,0,0l7.91-5.27,4.98,3.32-12.89,8.6v12.12h0s0,0,0,0l36.91-24.65v-10.77h0v-42.4h0s0,0,0,0l-8.79,5.87v16.37h0v.43l-5.27-3.51v-9.77h0s0,0,0,0l-13.18,8.79-4.39-2.93,34.27-22.87,34.27,22.87-4.39,2.93-13.18-8.79ZM361.22,120.62h0s0,0,0,0v9.77l-5.27,3.51v-.43h0v-16.37l-8.79-5.87h0s0,0,0,0v42.4h0v10.77l36.91,24.65h0s0,0,0,0v-12.12l-12.89-8.6,4.98-3.32,7.91,5.28h0s0,0,0,0v-19.16l5.27-3.51v47.28l-7.68,5.03h0l-25.71,16.86v-6.26l13.77-9.19h0l-.4-.27-6.34-4.23v-6.25l11.42,7.62h0s0,0,0,0l7.91-5.28-37.79-25.26h0s0,0,0,0l-37.79,25.26,7.91,5.28h0s0,0,0,0l11.42-7.62v6.25l-4.62,3.08h0l-2.12,1.41.81.54,12.96,8.65v6.26l-1.01-.67-24.7-16.19h0l-7.68-5.03v-47.28l5.27,3.52v19.15h0s0,0,0,0l7.91-5.28,4.98,3.32-12.89,8.6v12.12h0s0,0,0,0l36.91-24.65v-30.94h0v-22.23h0s0,0,0,0l-8.79,5.87v16.8l-.07-.05-5.2-3.47v-9.77h0s0,0,0,0l-13.18,8.79-4.39-2.93,34.27-22.87,34.27,22.87-4.39,2.93-13.18-8.79ZM262.78,120.62h0s0,0,0,0v9.77l-5.27,3.51v-.44h0v-16.37l-8.79-5.87h0s0,0,0,0v42.4h0v10.77l36.91,24.65h0s0,0,0,0v-12.12l-12.89-8.6,4.98-3.32,7.91,5.28h0s0,0,0,0v-19.15l5.27-3.51v47.28l-7.68,5.03h0l-25.71,16.86v-6.26l11.7-7.81,2.07-1.38h0s0,0,0,0l-6.74-4.49v-6.25l11.42,7.62h0s0,0,0,0l7.91-5.28-37.79-25.26h0s0,0,0,0l-37.79,25.26,7.91,5.28h0s0,0,0,0l11.42-7.62v6.25l-4.62,3.08h0l-1.8,1.2-.32.21h0,0s13.77,9.19,13.77,9.19v6.25l-1.01-.66-24.71-16.2h0l-7.68-5.03v-47.28l5.27,3.51v19.15h0s0,0,0,0l7.91-5.27,4.98,3.32-12.89,8.6v12.12h0s0,0,0,0l36.91-24.65v-30.94h0v-22.23h0s0,0,0,0l-8.79,5.87v16.8l-.07-.05-5.2-3.47v-9.77h0s0,0,0,0l-13.18,8.79-4.39-2.93,34.27-22.87,34.27,22.87-4.39,2.93-13.18-8.79ZM164.35,120.62h0s0,0,0,0v9.77l-5.27,3.51v-.43h0v-16.37l-8.79-5.87h0s0,0,0,0v42.4h0v10.77l36.91,24.65h0s0,0,0,0v-12.12l-12.89-8.6,4.98-3.32,7.91,5.28h0s0,0,0,0v-19.16l5.27-3.51v47.28l-7.68,5.03h0l-25.71,16.86v-6.26l13.77-9.19h0l-.4-.27-6.34-4.23v-6.25l11.42,7.62h0s0,0,0,0l7.91-5.28-37.79-25.26h0s0,0,0,0l-37.79,25.26,7.91,5.28h0s0,0,0,0l11.42-7.62v6.25l-4.62,3.08h0l-2.12,1.41.81.54,12.96,8.65v6.26l-1.01-.67-24.7-16.19h0l-7.68-5.03v-47.28l5.27,3.52v19.15h0s0,0,0,0l7.91-5.28,4.98,3.32-12.89,8.6v12.12h0s0,0,0,0l36.91-24.65v-30.94h0v-22.23h0s0,0,0,0l-8.79,5.87v16.8l-.07-.05-5.2-3.47v-9.77h0s0,0,0,0l-13.18,8.79-4.39-2.93,34.27-22.87,34.27,22.87-4.39,2.93-13.18-8.79ZM464.46,68.31l.17.11-12.01,8.02v10.95h0s0,0,0,0h0s0,0,0,0h0s36.91-24.63,36.91-24.63V11.17h0s0,0,0,0l-8.79,5.86v16.81l-5.27-3.51v-9.77h0s0,0,0,0l-14.06,9.38-5.27-3.52,36.03-24.06,36.03,24.06-5.27,3.52-14.06-9.38h0s0,0,0,0v9.77l-5.27,3.52v-16.81l-8.79-5.86h0s0,0,0,0v51.58l36.16,24.13.76.51h0s0,0,0,0h0s0,0,0,0v-10.95l-12.01-8.02,4.1-2.73,1.98,1.32h0l5.93,3.96h0s0,0,0,0h0s0,0,0,0v-19.15l5.27-3.51v18.71h0v29.76l-33.39,22.3v-7.43l14.65-9.77-7.62-5.08v-6.25l12.3,8.2h0s0,0,0,0l8.79-5.87-31.64-21.14h-.01l-7.9-5.27h0s0,0,0,0h0s0,0,0,0l-7.9,5.28h-.01l-31.64,21.14,8.79,5.87h0s0,0,0,0l12.3-8.2v6.25l-7.61,5.08,14.65,9.77v7.43l-33.39-22.3v-9.6h0v-38.88l5.26,3.51v15.2h0v3.96h0s0,0,0,0h0s0,0,0,0h0s0,0,0,0l1.99-1.33,3.94-2.63h0l1.98-1.32,3.93,2.62ZM413.07,62.95l-4.39-2.93,34.27-22.87,34.27,22.87-4.39,2.93-13.18-8.79h0s0,0,0,0v9.77l-5.17,3.45-.1.07v-16.8l-8.79-5.87h0s0,0,0,0v22.23h0v30.94l36.91,24.65h0s0,0,0,0v-12.12l-12.89-8.6,4.98-3.32,7.91,5.28h0s0,0,0,0v-19.15l5.27-3.51v47.28l-7.68,5.03h0l-19.4,12.72-6.32,4.14v-6.26l11.7-7.81,2.07-1.38h0s0,0,0,0l-2.12-1.41h0l-4.62-3.08v-6.25l11.42,7.62h0s0,0,0,0l7.91-5.28-37.79-25.26h0s0,0,0,0l-37.79,25.26,7.91,5.28h0s0,0,0,0l11.42-7.62v6.25l-5.72,3.82-1.01.68h0,0s13.77,9.19,13.77,9.19v6.25l-25.71-16.86h0l-7.68-5.03v-47.28l5.27,3.51v19.15h0s0,0,0,0l7.91-5.27,4.98,3.32-12.89,8.6v12.12h0s0,0,0,0l36.91-24.65v-10.77h0v-42.4h0s0,0,0,0l-8.79,5.87v16.37h0v.43l-5.27-3.51v-9.77h0s0,0,0,0l-13.18,8.79ZM366.02,68.3l.17.11-12.01,8.02v10.95h0s0,0,0,0h0s0,0,0,0h0s36.91-24.63,36.91-24.63V11.17h0s0,0,0,0l-8.79,5.86v16.81l-5.27-3.52v-9.77h0s0,0,0,0l-14.06,9.38-5.27-3.52,36.03-24.07h0s36.03,24.07,36.03,24.07l-5.27,3.52-14.06-9.38h0s0,0,0,0v9.77l-5.27,3.51v-16.81l-8.79-5.86h0s0,0,0,0v51.58l36.16,24.13.76.5h0s0,0,0,0h0s0,0,0,0v-10.95l-12.01-8.02,4.1-2.73,1.98,1.32h0l5.93,3.96h0s0,0,0,0h0s0-19.15,0-19.15l5.26-3.51v18.71h0v29.76l-33.39,22.3v-7.43l14.65-9.77-7.61-5.08v-6.25l12.3,8.2h0s0,0,0,0l8.79-5.87-31.64-21.14h-.02l-7.9-5.28h0s-7.9,5.28-7.9,5.28h-.01l-31.64,21.14,8.79,5.87h0s0,0,0,0l12.3-8.2v6.25l-7.62,5.08,14.65,9.77v7.43l-33.39-22.3v-9.6h0v-38.88l5.27,3.51v15.2h0v3.96h0s0,0,0,0h0s0,0,0,0h0s2.01-1.34,2.01-1.34l3.92-2.62h0l1.98-1.32,3.93,2.62ZM314.63,62.95l-4.39-2.93,34.27-22.87,34.27,22.87-4.39,2.93-13.18-8.79h0s0,0,0,0v9.77l-5.17,3.45-.1.07v-16.8l-8.79-5.87h0s0,0,0,0v22.23h0v30.94l36.91,24.65h0s0,0,0,0v-12.12l-12.89-8.6,4.98-3.32,7.91,5.27h0s0,0,0,0v-19.16l5.27-3.51v47.28l-7.68,5.03h0l-19.49,12.78-6.23,4.08v-6.26l13.77-9.19h0l-.13-.08-2-1.33h0l-4.62-3.08v-6.25l11.42,7.62h0s0,0,0,0l7.91-5.28-37.79-25.26h0s0,0,0,0l-37.79,25.26,7.91,5.28h0s0,0,0,0l11.42-7.62v6.25l-6.74,4.49h0l.81.54,12.96,8.65v6.26l-25.71-16.86h0l-7.68-5.03v-47.28l5.27,3.51v19.15h0s0,0,0,0l7.91-5.28,4.98,3.32-12.89,8.6v12.12h0s0,0,0,0l36.91-24.65v-10.77h0v-42.4h0s0,0,0,0l-8.79,5.87v16.37h0v.44l-5.27-3.51v-9.77h0s0,0,0,0l-13.18,8.79ZM267.58,68.3l.18.12-12.01,8.02v10.95h0s0,0,0,0h0s0,0,0,0h0s36.91-24.63,36.91-24.63V11.17h0s0,0,0,0l-8.79,5.86v16.81l-5.27-3.51v-9.77h0s0,0,0,0l-14.06,9.38-5.27-3.52,36.03-24.07,36.03,24.07-5.27,3.52-14.06-9.38h0s0,0,0,0v9.77l-5.27,3.51v-16.81l-8.79-5.86h0s0,0,0,0v51.58l36.15,24.12.77.51h0s0,0,0,0h0s0,0,0,0v-10.95l-12.01-8.02,4.1-2.73,1.98,1.32h0l5.93,3.96h0s0,0,0,0h0s0,0,0,0v-19.16l5.27-3.51v18.71h0v29.76l-33.39,22.3v-7.43l14.65-9.77-7.62-5.08v-6.25l12.3,8.2h0s0,0,0,0l8.79-5.87-31.64-21.14h-.01l-7.9-5.28h0s0,0,0,0h0s0,0,0,0l-7.9,5.28h-.01l-31.64,21.14,8.79,5.87h0s0,0,0,0l12.3-8.2v6.25l-7.62,5.08,14.65,9.77v7.43l-33.39-22.3v-9.6h0v-38.88l5.26,3.51v15.2h0v3.96h0s0,0,0,0h0s0,0,0,0h0s0,0,0,0l2.01-1.34,3.92-2.62h0l1.98-1.32,3.92,2.62ZM216.2,62.95l-4.39-2.93,34.27-22.87,34.27,22.87-4.39,2.93-13.18-8.79h0s0,0,0,0v9.77l-5.17,3.45-.1.07v-16.8l-8.79-5.87h0s0,0,0,0v22.23h0v30.94l36.91,24.65h0s0,0,0,0v-12.12l-12.89-8.6,4.98-3.32,7.91,5.28h0s0,0,0,0v-19.15l5.27-3.51v47.28l-7.68,5.03h0l-19.46,12.76-6.26,4.1v-6.26l11.7-7.81,2.07-1.38h0s0,0,0,0l-2.12-1.41h0l-4.62-3.08v-6.25l11.42,7.62h0s0,0,0,0l7.91-5.28-37.79-25.26h0s0,0,0,0l-37.79,25.26,7.91,5.28h0s0,0,0,0l11.42-7.62v6.25l-5.72,3.82-1.01.68h0s13.77,9.19,13.77,9.19v6.25l-25.71-16.86h0l-7.68-5.03v-47.28l5.27,3.51v19.15h0s0,0,0,0l7.91-5.27,4.98,3.32-12.89,8.6v12.12h0s0,0,0,0l36.91-24.65v-10.77h0v-42.4h0s0,0,0,0l-8.79,5.87v16.37h0v.43l-5.27-3.51v-9.77h0s0,0,0,0l-13.18,8.79ZM169.15,68.3l.17.11-12.01,8.02v10.95h0s0,0,0,0h0s0,0,0,0h0s36.91-24.63,36.91-24.63V11.17h0s0,0,0,0l-8.79,5.86v16.81l-5.27-3.52v-9.77h0s0,0,0,0l-14.06,9.38-5.27-3.52L196.87,2.35l36.03,24.07-5.27,3.52-14.06-9.38h0s0,0,0,0v9.77l-5.27,3.51v-16.81l-8.79-5.86h0s0,0,0,0v51.58l36.16,24.13.76.51h0s0,0,0,0h0s0,0,0,0v-10.95l-12.01-8.02,4.1-2.73,1.98,1.32h0l5.93,3.96h0s0,0,0,0h0s0-19.15,0-19.15l5.26-3.51v18.71h0v29.76l-33.39,22.3v-7.43l14.65-9.77-7.62-5.08v-6.25l12.3,8.2h0s0,0,0,0l8.79-5.87-31.64-21.14h-.01l-7.9-5.28h0s-7.9,5.28-7.9,5.28h-.01l-31.64,21.14,8.79,5.87h0s0,0,0,0l12.3-8.2v6.25l-7.62,5.08,14.65,9.77v7.43l-33.39-22.3v-9.6h0v-38.88l5.27,3.51v15.2h0v3.96h0s0,0,0,0h0s0,0,0,0h0s1.99-1.33,1.99-1.33l3.94-2.63h0l1.98-1.32,3.93,2.62ZM117.77,62.95l-4.39-2.93,34.27-22.87,34.27,22.87-4.39,2.93-13.18-8.79h0s0,0,0,0v9.77l-5.17,3.45-.1.07v-16.8l-8.79-5.87h0s0,0,0,0v22.23h0v30.94l36.91,24.65h0s0,0,0,0v-12.12l-12.89-8.6,4.98-3.32,7.91,5.27h0s0,0,0,0v-19.16l5.27-3.51v47.28l-7.68,5.03h0l-19.49,12.78-6.23,4.08v-6.26l13.77-9.19h0l-.13-.08-2-1.33h0l-4.62-3.08v-6.25l11.42,7.62h0s0,0,0,0l7.91-5.28-37.79-25.26h0s0,0,0,0l-37.79,25.26,7.91,5.28h0s0,0,0,0l11.42-7.62v6.25l-6.74,4.49h0,0l.81.54,12.96,8.65v6.26l-25.71-16.86h0l-7.68-5.03v-47.28l5.27,3.51v19.15h0s0,0,0,0l7.91-5.28,4.98,3.32-12.89,8.6v12.12h0s0,0,0,0l36.91-24.65v-10.77h0v-42.4h0s0,0,0,0l-8.79,5.87v16.37h0v.44l-5.27-3.51v-9.77h0s0,0,0,0l-13.18,8.79ZM70.72,68.3l.18.12-12.01,8.02v10.95h0s0,0,0,0h0s0,0,0,0h0s36.91-24.63,36.91-24.63V11.17h0s0,0,0,0l-8.79,5.86v16.81l-5.27-3.51v-9.77h0s0,0,0,0l-14.06,9.38-5.27-3.52L98.43,2.35l36.03,24.07-5.27,3.52-14.06-9.38h0s0,0,0,0v9.77l-5.27,3.51v-16.81l-8.79-5.86h0s0,0,0,0v51.58l36.15,24.12.77.51h0s0,0,0,0h0s0,0,0,0v-10.95l-12.01-8.02,4.1-2.73,1.98,1.32h0l5.93,3.96h0s0,0,0,0h0s0,0,0,0v-19.16l5.27-3.51v18.71h0v29.76l-33.39,22.3v-7.43l14.65-9.77-7.62-5.08v-6.25l12.3,8.2h0s0,0,0,0l8.79-5.87-31.64-21.14h-.01l-7.9-5.28h0s0,0,0,0h0s0,0,0,0l-7.9,5.28h-.01l-31.64,21.14,8.79,5.87h0s0,0,0,0l12.3-8.2v6.25l-7.62,5.08,14.65,9.77v7.43l-33.39-22.3v-9.6h0v-38.88l5.26,3.51v15.2h0v3.96h0s0,0,0,0h0s0,0,0,0h0s0,0,0,0l2.01-1.34,3.92-2.62h0l1.98-1.32,3.92,2.62ZM30.76,130.39l-5.72,3.82-1.01.68h0s13.77,9.19,13.77,9.19v6.25l-25.71-16.86h0l-7.68-5.03v-47.28l5.27,3.51v19.15h0s0,0,0,0l7.91-5.27,4.98,3.32-12.89,8.6v12.12h0s0,0,0,0l36.91-24.65v-10.77h0v-42.4h0s0,0,0,0l-8.79,5.87v16.37h0v.43l-5.27-3.51v-9.77h0s0,0,0,0l-13.18,8.79-4.39-2.93,34.27-22.87,34.27,22.87-4.39,2.93-13.18-8.79h0s0,0,0,0v9.77l-5.17,3.45-.1.07v-16.8l-8.79-5.87h0s0,0,0,0v22.23h0v30.94l36.91,24.65h0s0,0,0,0v-12.12l-12.89-8.6,4.98-3.32,7.91,5.28h0s0,0,0,0v-19.15l5.27-3.51v47.28l-7.68,5.03h0l-19.38,12.71-6.33,4.15v-6.26l11.7-7.81,2.07-1.38h0s0,0,0,0l-2.12-1.41h0l-4.62-3.08v-6.25l11.42,7.62h0s0,0,0,0l7.91-5.28-37.79-25.26h0s0,0,0,0l-37.79,25.26,7.91,5.28h0s0,0,0,0l11.42-7.62v6.25ZM30.76,196.86l-4.62,3.08h0l-1.8,1.2-.32.21h0,0s13.77,9.19,13.77,9.19v6.25l-1.02-.67-24.7-16.19h0l-7.68-5.03v-47.28l5.27,3.51v19.15h0s0,0,0,0l7.91-5.27,4.98,3.32-12.89,8.6v12.12h0s0,0,0,0l36.91-24.65v-30.94h0v-22.23h0s0,0,0,0l-8.79,5.87v16.8l-.07-.05-5.2-3.47v-9.77h0s0,0,0,0l-13.18,8.79-4.39-2.93,34.27-22.87,34.27,22.87-4.39,2.93-13.18-8.79h0s0,0,0,0v9.77l-5.27,3.51v-.44h0v-16.37l-8.79-5.87h0s0,0,0,0v42.4h0v10.77l36.91,24.65h0s0,0,0,0v-12.12l-12.89-8.6,4.98-3.32,7.91,5.28h0s0,0,0,0v-19.15l5.27-3.51v47.28l-7.68,5.03h0l-25.71,16.86v-6.26l11.7-7.81,2.07-1.38h0s0,0,0,0l-6.74-4.49v-6.25l11.42,7.62h0s0,0,0,0l7.91-5.28-37.79-25.26h0s0,0,0,0l-37.79,25.26,7.91,5.28h0s0,0,0,0l11.42-7.62v6.25ZM30.76,263.32l-4.61,3.08h0l-1.8,1.2-.32.21h0,0s0,0,0,0h0s13.77,9.19,13.77,9.19v6.25l-25.71-16.86h0l-7.68-5.03v-47.28l5.27,3.51v19.15h0s0,0,0,0l7.91-5.27,4.98,3.32-12.89,8.6v12.12h0s0,0,0,0l36.91-24.65v-10.77h0v-42.4h0s0,0,0,0l-8.79,5.87v16.37h0v.43l-5.27-3.51v-9.77h0s0,0,0,0l-13.18,8.79-4.39-2.93,34.27-22.87,34.27,22.87-4.39,2.93-13.18-8.79h0s0,0,0,0v9.77l-5.17,3.45-.1.07v-16.8l-8.79-5.87h0s0,0,0,0v22.23h0v30.94l36.91,24.65h0s0,0,0,0v-12.12l-12.89-8.6,4.98-3.32,7.91,5.28h0s0,0,0,0v-19.15l5.27-3.51v47.28l-7.68,5.03h0l-25.71,16.86v-6.26l11.7-7.81,2.07-1.38h0s0,0,0,0h0s0,0,0,0l-2.12-1.41h0l-4.61-3.08v-6.25l11.42,7.62h0s0,0,0,0l7.91-5.28-37.79-25.26h0s0,0,0,0l-37.79,25.26,7.91,5.28h0s0,0,0,0l11.42-7.62v6.25ZM30.76,329.79l-4.62,3.08h0l-1.8,1.2-.32.21h0s13.77,9.19,13.77,9.19v6.25l-1.02-.67-24.7-16.19h0l-7.68-5.03v-47.28l5.27,3.51v19.15h0s0,0,0,0l7.91-5.27,4.98,3.32-12.89,8.6v12.12h0s0,0,0,0l36.91-24.65v-30.94h0v-22.23h0s0,0,0,0l-8.79,5.87v16.8l-.18-.12-5.09-3.4v-9.77h0s0,0,0,0l-13.18,8.79-4.39-2.93,34.27-22.87,34.27,22.87-4.39,2.93-13.18-8.79h0s0,0,0,0v9.77l-5.18,3.46-.09.06v-.44h0v-16.37l-8.79-5.87h0s0,0,0,0v42.4h0v10.77l36.91,24.65h0s0,0,0,0v-12.12l-12.89-8.6,4.98-3.32,7.91,5.28h0s0,0,0,0v-19.15l5.27-3.51v47.28l-7.68,5.03h0l-25.71,16.86v-6.26l11.7-7.81,2.07-1.38h0s0,0,0,0l-6.74-4.49v-6.25l11.42,7.62h0s0,0,0,0l7.91-5.28-37.79-25.26h0s0,0,0,0l-37.79,25.26,7.91,5.28h0s0,0,0,0l11.42-7.62v6.25ZM30.76,396.25l-5.72,3.82-1.01.68h0s13.77,9.19,13.77,9.19v6.25l-25.71-16.86h0l-7.68-5.03v-47.28l5.27,3.51v19.15h0s0,0,0,0l7.91-5.27,4.98,3.32-12.89,8.6v12.12h0s0,0,0,0l36.91-24.65v-10.77h0v-42.4h0s0,0,0,0l-8.79,5.87v16.37h0v.43l-5.27-3.51v-9.77h0s0,0,0,0l-13.18,8.79-4.39-2.93,34.27-22.87,34.27,22.87-4.39,2.93-13.18-8.79h0s0,0,0,0v9.77l-5.17,3.45-.1.07v-16.8l-8.79-5.87h0s0,0,0,0v22.23h0v30.94l36.91,24.65h0s0,0,0,0v-12.12l-12.89-8.6,4.98-3.32,7.91,5.28h0s0,0,0,0v-19.16l5.27-3.51v47.28l-7.68,5.03h0l-19.38,12.71-6.33,4.15v-6.26l11.7-7.81,2.07-1.38h0s0,0,0,0l-2.12-1.41h0l-4.62-3.08v-6.25l11.42,7.62h0s0,0,0,0l7.91-5.28-37.79-25.26h0s0,0,0,0l-37.79,25.26,7.91,5.28h0s0,0,0,0l11.42-7.62v6.25ZM30.76,462.72l-4.62,3.08h0l-1.8,1.2-.32.21h0,0s13.77,9.19,13.77,9.19v6.25l-1.02-.67-24.7-16.19h0l-7.68-5.03v-47.28l5.27,3.51v19.15h0s0,0,0,0l7.91-5.27,4.98,3.32-12.89,8.6v12.12h0s0,0,0,0l36.91-24.65v-30.94h0v-22.23h0s0,0,0,0l-8.79,5.87v16.8l-.07-.05-5.2-3.47v-9.77h0s0,0,0,0l-13.18,8.79-4.39-2.93,34.27-22.87,34.27,22.87-4.39,2.93-13.18-8.79h0s0,0,0,0v9.77l-5.27,3.51v-.44h0v-16.37l-8.79-5.87h0s0,0,0,0v42.4h0v10.77l36.91,24.65h0s0,0,0,0v-12.12l-12.89-8.6,4.98-3.32,7.91,5.28h0s0,0,0,0v-19.15l5.27-3.51v47.28l-7.68,5.03h0l-25.71,16.86v-6.26l11.7-7.81,2.07-1.38h0s0,0,0,0l-6.74-4.49v-6.25l11.42,7.62h0s0,0,0,0l7.91-5.28-37.79-25.26h0s0,0,0,0l-37.79,25.26,7.91,5.28h0s0,0,0,0l11.42-7.62v6.25ZM88.76,502.62h0s0,0,0,0v-19.16l5.27-3.51v47.28l-33.4,21.89v-6.26l11.7-7.81,2.07-1.38h0s0,0,0,0l-6.74-4.49v-6.25l11.42,7.62h0s0,0,0,0l7.91-5.28-37.79-25.26h0s0,0,0,0l-37.79,25.26,7.91,5.28h0s0,0,0,0l11.42-7.62v6.25l-5.72,3.82-1.01.68h0,0s13.77,9.19,13.77,9.19v6.25l-33.4-21.89v-47.28l5.27,3.51v19.15h0s0,0,0,0l7.91-5.27,4.98,3.32-12.89,8.6v12.12h0s0,0,0,0l36.91-24.65v-10.77h0v-42.4h0s0,0,0,0l-8.79,5.87v16.37h0v.43l-5.27-3.51v-9.77h0s0,0,0,0l-13.18,8.79-4.39-2.93,34.27-22.87,34.27,22.87-4.39,2.93-13.18-8.79h0s0,0,0,0v9.77l-5.17,3.45-.1.07v-16.8l-8.79-5.87h0s0,0,0,0v22.23h0v30.94l36.91,24.65h0s0,0,0,0v-12.12l-12.89-8.6,4.98-3.32,7.91,5.28ZM116.89,489.33l12.3,8.2h0s0,0,0,0l8.79-5.87-31.64-21.14h-.01l-7.9-5.28h0s0,0,0,0h0s0,0,0,0l-7.9,5.28h-.01l-31.64,21.14,8.79,5.87h0s0,0,0,0l12.3-8.2v6.25l-7.61,5.08,14.65,9.77v7.43l-33.39-22.3v-9.6h0v-38.88l5.26,3.51v15.2h0v3.96h0s0,0,0,0h0s0,0,0,0h0s0,0,0,0l2.01-1.34,3.92-2.62h0l1.98-1.32,3.92,2.62.18.12-12.01,8.02v10.95h0s0,0,0,0h0s0,0,0,0h0s36.91-24.63,36.91-24.63v-51.58h0s0,0,0,0l-8.79,5.86v16.81l-5.27-3.51v-9.77h0s0,0,0,0l-14.06,9.38-5.27-3.52,36.03-24.07,36.03,24.07-5.27,3.52-14.06-9.38h0s0,0,0,0v9.77l-5.27,3.51v-16.81l-8.79-5.86h0s0,0,0,0v51.58l36.15,24.12.77.51h0s0,0,0,0h0s0,0,0,0h0s0-10.95,0-10.95l-12.01-8.02,4.1-2.73,1.98,1.32h0l5.93,3.96h0s0,0,0,0h0s0,0,0,0v-19.15l5.26-3.51v18.71h0v29.76l-33.39,22.3v-7.43l14.65-9.77-7.62-5.08v-6.25ZM187.2,502.62h0s0,0,0,0v-19.15l5.27-3.52v47.28l-33.4,21.89v-6.26l13.77-9.19-.4-.27-6.34-4.23v-6.25l11.42,7.62h0s0,0,0,0l7.91-5.28-37.79-25.26h0s0,0,0,0l-37.79,25.26,7.91,5.28h0s0,0,0,0l11.42-7.62v6.25l-6.74,4.49.81.54,12.96,8.65v6.26l-33.4-21.89v-47.28l5.27,3.51v19.16h0s0,0,0,0l7.91-5.28,4.98,3.32-12.89,8.6v12.12h0s0,0,0,0l36.91-24.65v-10.77h0v-42.4h0s0,0,0,0l-8.79,5.87v16.37h0v.44l-5.27-3.51v-9.77h0s0,0,0,0l-13.18,8.79-4.39-2.93,34.27-22.87,34.27,22.87-4.39,2.93-13.18-8.79h0s0,0,0,0v9.77l-5.17,3.45-.1.07v-16.8l-8.79-5.87h0s0,0,0,0v22.23h0v30.94l36.91,24.65h0s0,0,0,0v-12.12l-12.89-8.6,4.98-3.32,7.91,5.28ZM215.33,489.33l12.3,8.2h0s0,0,0,0l8.79-5.87-31.64-21.14h-.02l-7.9-5.28h0s-7.9,5.28-7.9,5.28h-.01l-31.64,21.14,8.79,5.87h0s0,0,0,0l12.3-8.2v6.25l-7.62,5.08,14.65,9.77v7.43l-33.39-22.3v-9.6h0v-38.88l5.26,3.51v15.2h0v3.96h0s0,0,0,0h0s0,0,0,0h0s1.99-1.33,1.99-1.33l3.94-2.63h0l1.98-1.32,3.93,2.62.17.11-12.01,8.02v10.95h0s0,0,0,0h0s0,0,0,0h0s0,0,0,0l36.91-24.63v-51.58h0s0,0,0,0l-8.79,5.86v16.81l-5.27-3.51v-9.77h0s0,0,0,0l-14.06,9.38-5.27-3.52,36.03-24.07,36.03,24.07-5.27,3.52-14.06-9.38h0s0,0,0,0v9.77l-5.27,3.51v-16.81l-8.79-5.86h0s0,0,0,0v51.58l36.16,24.13.76.51h0s0,0,0,0h0s0,0,0,0h0s0-10.95,0-10.95l-12.01-8.02,4.1-2.73,1.98,1.32h0l5.93,3.96h0s0,0,0,0h0s0,0,0,0v-19.16l5.26-3.51v18.71h0v29.76l-33.39,22.3v-7.43l14.65-9.77-7.62-5.08v-6.25ZM285.63,502.62h0s0,0,0,0v-19.16l5.27-3.51v47.28l-33.4,21.89v-6.26l11.7-7.81,2.07-1.38h0s0,0,0,0l-6.74-4.49v-6.25l11.42,7.62h0s0,0,0,0l7.91-5.28-37.79-25.26h0s0,0,0,0l-37.79,25.26,7.91,5.28h0s0,0,0,0l11.42-7.62v6.25l-5.72,3.82-1.01.68h0,0s13.77,9.19,13.77,9.19v6.25l-33.4-21.89v-47.28l5.27,3.51v19.15h0s0,0,0,0l7.91-5.27,4.98,3.32-12.89,8.6v12.12h0s0,0,0,0l36.91-24.65v-10.77h0v-42.4h0s0,0,0,0l-8.79,5.87v16.37h0v.43l-5.27-3.51v-9.77h0s0,0,0,0l-13.18,8.79-4.39-2.93,34.27-22.87,34.27,22.87-4.39,2.93-13.18-8.79h0s0,0,0,0v9.77l-5.17,3.45-.1.07v-16.8l-8.79-5.87h0s0,0,0,0v22.23h0v30.94l36.91,24.65h0s0,0,0,0v-12.12l-12.89-8.6,4.98-3.32,7.91,5.28ZM313.76,489.33l12.3,8.2h0s0,0,0,0l8.79-5.87-31.64-21.14h-.01l-7.9-5.28h0s0,0,0,0h0s0,0,0,0l-7.9,5.28h-.01l-31.64,21.14,8.79,5.87h0s0,0,0,0l12.3-8.2v6.25l-7.61,5.08,14.65,9.77v7.43l-33.39-22.3v-9.6h0v-38.88l5.26,3.51v15.2h0v3.96h0s0,0,0,0h0s0,0,0,0h0s0,0,0,0l2.01-1.34,3.92-2.62h0l1.98-1.32,3.92,2.62.18.12-12.01,8.02v10.95h0s0,0,0,0h0s0,0,0,0h0s36.91-24.63,36.91-24.63v-51.58h0s0,0,0,0l-8.79,5.86v16.81l-5.27-3.51v-9.77h0s0,0,0,0l-14.06,9.38-5.27-3.52,36.03-24.07,36.03,24.07-5.27,3.52-14.06-9.38h0s0,0,0,0v9.77l-5.27,3.51v-16.81l-8.79-5.86h0s0,0,0,0v51.58l36.15,24.12.77.51h0s0,0,0,0h0s0,0,0,0h0s0-10.95,0-10.95l-12.01-8.02,4.1-2.73,1.98,1.32h0l5.93,3.96h0s0,0,0,0h0s0,0,0,0v-19.15l5.26-3.51v18.71h0v29.76l-33.39,22.3v-7.43l14.65-9.77-7.62-5.08v-6.25ZM384.06,502.62h0s0,0,0,0v-19.15l5.27-3.52v47.28l-33.4,21.89v-6.26l13.77-9.19-.4-.27-6.34-4.23v-6.25l11.42,7.62h0s0,0,0,0l7.91-5.28-37.79-25.26h0s0,0,0,0l-37.79,25.26,7.91,5.28h0s0,0,0,0l11.42-7.62v6.25l-6.74,4.49.81.54,12.96,8.65v6.26l-33.4-21.89v-47.28l5.27,3.51v19.16h0s0,0,0,0l7.91-5.28,4.98,3.32-12.89,8.6v12.12h0s0,0,0,0l36.91-24.65v-10.77h0v-42.4h0s0,0,0,0l-8.79,5.87v16.37h0v.44l-5.27-3.51v-9.77h0s0,0,0,0l-13.18,8.79-4.39-2.93,34.27-22.87,34.27,22.87-4.39,2.93-13.18-8.79h0s0,0,0,0v9.77l-5.17,3.45-.1.07v-16.8l-8.79-5.87h0s0,0,0,0v22.23h0v30.94l36.91,24.65h0s0,0,0,0v-12.12l-12.89-8.6,4.98-3.32,7.91,5.28ZM412.19,489.33l12.3,8.2h0s0,0,0,0l8.79-5.87-31.64-21.14h-.02l-7.9-5.28h0s-7.9,5.28-7.9,5.28h-.01l-31.64,21.14,8.79,5.87h0s0,0,0,0l12.3-8.2v6.25l-7.62,5.08,14.65,9.77v7.43l-33.39-22.3v-9.6h0v-38.88l5.26,3.51v15.2h0v3.96h0s0,0,0,0h0s0,0,0,0h0s2.01-1.34,2.01-1.34l3.92-2.62h0l1.98-1.32,3.93,2.62.17.11-12.01,8.02v10.95h0s0,0,0,0h0s0,0,0,0h0s0,0,0,0l36.91-24.63v-51.58h0s0,0,0,0l-8.79,5.86v16.81l-5.27-3.51v-9.77h0s0,0,0,0l-14.06,9.38-5.27-3.52,36.03-24.07h0s36.03,24.07,36.03,24.07l-5.27,3.52-14.06-9.38h0s0,0,0,0v9.77l-5.27,3.51v-16.81l-8.79-5.86h0s0,0,0,0v51.58l36.16,24.13.76.5h0s0,0,0,0h0s0,0,0,0h0s0-10.95,0-10.95l-12.01-8.02,4.1-2.73,1.98,1.32h0l5.93,3.96h0s0,0,0,0h0s0,0,0,0v-19.16l5.26-3.51v18.71h0v29.76l-33.39,22.3v-7.43l14.65-9.77-7.62-5.08v-6.25ZM482.5,502.62h0s0,0,0,0v-19.16l5.27-3.51v47.28l-33.4,21.89v-6.26l11.7-7.81,2.07-1.38h0s0,0,0,0l-6.74-4.49v-6.25l11.42,7.62h0s0,0,0,0l7.91-5.28-37.79-25.26h0s0,0,0,0l-37.79,25.26,7.91,5.28h0s0,0,0,0l11.42-7.62v6.25l-5.72,3.82-1.01.68h0,0s13.77,9.19,13.77,9.19v6.25l-33.4-21.89v-47.28l5.27,3.51v19.15h0s0,0,0,0l7.91-5.27,4.98,3.32-12.89,8.6v12.12h0s0,0,0,0l36.91-24.65v-10.77h0v-42.4h0s0,0,0,0l-8.79,5.87v16.37h0v.43l-5.27-3.51v-9.77h0s0,0,0,0l-13.18,8.79-4.39-2.93,34.27-22.87,34.27,22.87-4.39,2.93-13.18-8.79h0s0,0,0,0v9.77l-5.17,3.45-.1.07v-16.8l-8.79-5.87h0s0,0,0,0v22.23h0v30.94l36.91,24.65h0s0,0,0,0v-12.12l-12.89-8.6,4.98-3.32,7.91,5.28ZM510.62,489.33l12.3,8.2h0s0,0,0,0l8.79-5.87-31.64-21.14h-.01l-7.9-5.27h0s0,0,0,0h0s0,0,0,0l-7.9,5.28h-.01l-31.64,21.14,8.79,5.87h0s0,0,0,0l12.3-8.2v6.25l-7.62,5.08,14.65,9.77v7.43l-33.39-22.3v-9.6h0v-38.88l5.26,3.51v15.2h0v3.96h0s0,0,0,0h0s0,0,0,0h0s0,0,0,0l1.99-1.33,3.94-2.63h0l1.98-1.32,3.93,2.62.17.11-12.01,8.02v10.95h0s0,0,0,0h0s0,0,0,0h0s36.91-24.63,36.91-24.63v-51.58h0s0,0,0,0l-8.79,5.86v16.81l-5.27-3.51v-9.77h0s0,0,0,0l-14.06,9.38-5.27-3.52,36.03-24.06,36.03,24.06-5.27,3.52-14.06-9.38h0s0,0,0,0v9.77l-5.27,3.51v-16.81l-8.79-5.86h0s0,0,0,0v51.58l36.16,24.13.76.51h0s0,0,0,0h0s0,0,0,0v-10.95l-12.01-8.02,4.1-2.73,1.98,1.32h0l5.93,3.96h0s0,0,0,0h0s0,0,0,0v-19.16l5.26-3.51v18.71h0v29.76l-33.39,22.3v-7.43l14.65-9.77-7.62-5.08v-6.25ZM558.08,452.94h0s0,0,0,0v9.77l-5.17,3.45-.1.07v-16.8l-8.79-5.87h0s0,0,0,0v22.23h0v30.94l36.91,24.65h0s0,0,0,0v-12.12l-12.89-8.6,4.98-3.32,7.91,5.28h0s0,0,0,0v-19.15l5.27-3.51v47.28l-33.4,21.89v-6.26l13.77-9.19h0s0,0,0,0l-.4-.26-6.34-4.23v-6.25l11.42,7.62h0s0,0,0,0l7.91-5.28-37.79-25.26h0s0,0,0,0l-37.79,25.26,7.91,5.28h0s0,0,0,0l11.42-7.62v6.25l-6.74,4.49h0s.81.54.81.54l12.96,8.65v6.26l-33.4-21.89v-47.28l5.27,3.51v19.16h0s0,0,0,0l7.91-5.28,4.98,3.32-12.89,8.6v12.12h0s0,0,0,0l36.91-24.65v-10.77h0v-42.4h0s0,0,0,0l-8.79,5.87v16.37h0v.44l-5.27-3.51v-9.77h0s0,0,0,0l-13.18,8.79-4.39-2.93,34.27-22.87,34.27,22.87-4.39,2.93-13.18-8.79ZM558.08,386.48h0s0,0,0,0v9.77l-5.27,3.51v-.43h0v-16.37l-8.79-5.87h0s0,0,0,0v42.4h0v10.77l36.91,24.65h0s0,0,0,0v-12.12l-12.89-8.6,4.98-3.32,7.91,5.28h0s0,0,0,0v-19.15l5.27-3.51v47.28l-7.68,5.03h0l-25.71,16.86v-6.25l13.77-9.19h0s-.38-.25-.38-.25l-.91-.61-5.45-3.64v-6.25l11.42,7.62h0s0,0,0,0l7.91-5.28-37.79-25.26h0s0,0,0,0l-37.79,25.26,7.91,5.28h0s0,0,0,0l11.42-7.62v6.25l-4.62,3.08h0l-2.12,1.41h0s.81.54.81.54l12.96,8.65v6.26l-1.01-.66-24.7-16.19h0l-7.68-5.03v-47.28l5.27,3.51v19.16h0s0,0,0,0l7.91-5.28,4.98,3.32-12.89,8.6v12.12h0s0,0,0,0l36.91-24.65v-30.94h0v-22.23h0s0,0,0,0l-8.79,5.87v16.8l-.07-.05-5.2-3.47v-9.77h0s0,0,0,0l-13.18,8.79-4.39-2.93,34.27-22.87,34.27,22.87-4.39,2.93-13.18-8.79ZM558.08,320.01h0s0,0,0,0v9.77l-5.17,3.45-.1.07v-16.8l-8.79-5.87h0s0,0,0,0v22.23h0v30.94l36.91,24.65h0s0,0,0,0v-12.12l-12.89-8.6,4.98-3.32,7.91,5.28h0s0,0,0,0v-19.15l5.27-3.52v47.28l-7.68,5.03h0l-19.5,12.79-6.21,4.07v-6.26l13.77-9.19h0s-.13-.08-.13-.08l-2-1.33h0l-4.62-3.08v-6.25l11.42,7.62h0s0,0,0,0l7.91-5.28-37.79-25.26h0s0,0,0,0l-37.79,25.26,7.91,5.28h0s0,0,0,0l11.42-7.62v6.25l-6.74,4.49h0s0,0,0,0l.81.54,12.96,8.65v6.26l-25.71-16.86h0l-7.68-5.03v-47.28l5.27,3.51v19.16h0s0,0,0,0l7.91-5.28,4.98,3.32-12.89,8.6v12.12h0s0,0,0,0l36.91-24.65v-10.77h0v-42.4h0s0,0,0,0l-8.79,5.87v16.37h0v.44l-5.27-3.51v-9.77h0s0,0,0,0l-13.18,8.79-4.39-2.93,34.27-22.87,34.27,22.87-4.39,2.93-13.18-8.79ZM558.08,253.55h0s0,0,0,0v9.77l-5.18,3.46-.09.06v-.43h0v-16.37l-8.79-5.87h0s0,0,0,0v42.4h0v10.77l36.91,24.65h0s0,0,0,0v-12.12l-12.89-8.6,4.98-3.32,7.91,5.28h0s0,0,0,0v-19.15l5.27-3.52v47.28l-7.68,5.03h0l-25.71,16.86v-6.25l13.77-9.19h0s-.38-.25-.38-.25l-.91-.61-5.45-3.64v-6.25l11.42,7.62h0s0,0,0,0l7.91-5.28-37.79-25.26h0s0,0,0,0l-37.79,25.26,7.91,5.28h0s0,0,0,0l11.42-7.62v6.25l-4.62,3.08h0l-2.12,1.41h0s0,0,0,0l.81.54,12.96,8.65v6.26l-1.01-.66-24.7-16.19h0l-7.68-5.03v-47.28l5.27,3.51v19.16h0s0,0,0,0l7.91-5.28,4.98,3.32-12.89,8.6v12.12h0s0,0,0,0l36.91-24.65v-30.94h0v-22.23h0s0,0,0,0l-8.79,5.87v16.8l-.18-.12-5.09-3.4v-9.77h0s0,0,0,0l-13.18,8.79-4.39-2.93,34.27-22.87,34.27,22.87-4.39,2.93-13.18-8.79ZM558.08,187.08h0s0,0,0,0v9.77l-5.17,3.45-.1.07v-16.8l-8.79-5.87h0s0,0,0,0v22.23h0v30.94l36.91,24.65h0s0,0,0,0v-12.12l-12.89-8.6,4.98-3.32,7.91,5.28h0s0,0,0,0v-19.15l5.27-3.52v47.28l-7.68,5.03h0l-25.72,16.86v-6.26l13.77-9.19h0s0,0,0,0h0,0s-.13-.08-.13-.08l-2-1.33h0l-4.61-3.08v-6.25l11.42,7.62h0s0,0,0,0l7.91-5.28-37.79-25.26h0s0,0,0,0l-37.79,25.26,7.91,5.28h0s0,0,0,0l11.42-7.62v6.25l-4.61,3.08h0l-2.12,1.41h0s0,0,0,0h0s.81.54.81.54l12.96,8.65v6.26l-25.71-16.86h0s0,0,0,0l-7.68-5.03v-47.28l5.27,3.51v19.16h0s0,0,0,0l7.91-5.28,4.98,3.32-12.89,8.6v12.12h0s0,0,0,0l36.91-24.65v-10.77h0v-42.4h0s0,0,0,0l-8.79,5.87v16.37h0v.44l-5.27-3.51v-9.77h0s0,0,0,0l-13.18,8.79-4.39-2.93,34.27-22.87,34.27,22.87-4.39,2.93-13.18-8.79ZM580.93,170.29h0s0,0,0,0v-19.15l5.27-3.52v47.28l-7.68,5.03h0l-25.71,16.86v-6.25l13.77-9.19h0s-.38-.25-.38-.25l-.91-.61-5.45-3.64v-6.25l11.42,7.62h0s0,0,0,0l7.91-5.28-37.79-25.26h0s0,0,0,0l-37.79,25.26,7.91,5.28h0s0,0,0,0l11.42-7.62v6.25l-4.62,3.08h0l-2.12,1.41h0s.81.54.81.54l12.96,8.65v6.26l-1.01-.66-24.7-16.19h0l-7.68-5.03v-47.28l5.27,3.51v19.16h0s0,0,0,0l7.91-5.28,4.98,3.32-12.89,8.6v12.12h0s0,0,0,0l36.91-24.65v-30.94h0v-22.23h0s0,0,0,0l-8.79,5.87v16.8l-.07-.05-5.2-3.47v-9.77h0s0,0,0,0l-13.18,8.79-4.39-2.93,34.27-22.87,34.27,22.87-4.39,2.93-13.18-8.79h0s0,0,0,0v9.77l-5.27,3.51v-.43h0v-16.37l-8.79-5.87h0s0,0,0,0v42.4h0v10.77l36.91,24.65h0s0,0,0,0v-12.12l-12.89-8.6,4.98-3.32,7.91,5.28Z"/>
    </clipPath>
    <linearGradient id="linear-gradient" x1="-660.86" y1="840.36" x2="-660.4" y2="840.36" gradientTransform="translate(-220688.1517 1845894.5029) rotate(45) scale(1738.9078 -1738.9078)" gradientUnits="userSpaceOnUse">
      <stop offset="0" stop-color="#aa7b36"/>
      <stop offset=".19" stop-color="#b78437"/>
      <stop offset=".52" stop-color="#d99d3a"/>
      <stop offset=".74" stop-color="#e6ba70"/>
      <stop offset="1" stop-color="#f7e0b7"/>
    </linearGradient>
  </defs>
  <g class="cls-4">
    <g class="cls-3">
      <polygon class="cls-2" points="295.3 -328.35 839.1 276.32 295.3 881 -248.5 276.32 295.3 -328.35"/>
    </g>
  </g>
</svg>