<?xml version="1.0" encoding="UTF-8"?>
<!DOCTYPE svg PUBLIC "-//W3C//DTD SVG 1.1//EN" "http://www.w3.org/Graphics/SVG/1.1/DTD/svg11.dtd">
<!-- Creator: CorelDRAW -->
<svg xmlns="http://www.w3.org/2000/svg" xml:space="preserve" width="41.9364mm" height="41.9364mm" version="1.1" style="shape-rendering:geometricPrecision; text-rendering:geometricPrecision; image-rendering:optimizeQuality; fill-rule:evenodd; clip-rule:evenodd"
viewBox="0 0 834.61 834.61"
 xmlns:xlink="http://www.w3.org/1999/xlink"
 xmlns:xodm="http://www.corel.com/coreldraw/odm/2003">
 <defs>
  <style type="text/css">
   <![CDATA[
    .fil0 {fill:url(#id0);fill-rule:nonzero}
    .fil5 {fill:url(#id1);fill-rule:nonzero}
    .fil1 {fill:url(#id2);fill-rule:nonzero}
    .fil2 {fill:url(#id3);fill-rule:nonzero}
    .fil4 {fill:url(#id4);fill-rule:nonzero}
    .fil8 {fill:url(#id5);fill-rule:nonzero}
    .fil3 {fill:url(#id6);fill-rule:nonzero}
    .fil6 {fill:url(#id7);fill-rule:nonzero}
    .fil7 {fill:url(#id8);fill-rule:nonzero}
   ]]>
  </style>
  <linearGradient id="id0" gradientUnits="userSpaceOnUse" x1="1620.1" y1="-18473.18" x2="1620.12" y2="-18473.19">
   <stop offset="0" style="stop-opacity:1; stop-color:#E5D28B"/>
   <stop offset="1" style="stop-opacity:1; stop-color:#A47E33"/>
  </linearGradient>
  <linearGradient id="id1" gradientUnits="userSpaceOnUse" xlink:href="#id0" x1="-10289.08" y1="-3342.87" x2="-10289.08" y2="-3342.87">
  </linearGradient>
  <linearGradient id="id2" gradientUnits="userSpaceOnUse" xlink:href="#id0" x1="-8347.94" y1="-4479.69" x2="-8347.94" y2="-4479.69">
  </linearGradient>
  <linearGradient id="id3" gradientUnits="userSpaceOnUse" xlink:href="#id0" x1="-11632.74" y1="-2250.28" x2="-11632.74" y2="-2250.28">
  </linearGradient>
  <linearGradient id="id4" gradientUnits="userSpaceOnUse" xlink:href="#id0" x1="-10954.39" y1="-2808.67" x2="-10954.39" y2="-2808.67">
  </linearGradient>
  <linearGradient id="id5" gradientUnits="userSpaceOnUse" xlink:href="#id0" x1="-5216.05" y1="-5583.05" x2="-5216.05" y2="-5583.06">
  </linearGradient>
  <linearGradient id="id6" gradientUnits="userSpaceOnUse" xlink:href="#id0" x1="-11499.24" y1="-2348.16" x2="-11499.24" y2="-2348.17">
  </linearGradient>
  <linearGradient id="id7" gradientUnits="userSpaceOnUse" xlink:href="#id0" x1="-8372.44" y1="-4958.45" x2="-8372.44" y2="-4958.45">
  </linearGradient>
  <linearGradient id="id8" gradientUnits="userSpaceOnUse" xlink:href="#id0" x1="-9047.9" y1="-4283.29" x2="-9047.9" y2="-4283.29">
  </linearGradient>
 </defs>
 <g id="Layer_x0020_1">
  <metadata id="CorelCorpID_0Corel-Layer"/>
  <path class="fil0" d="M834.61 417.31l0 0c0,230.48 -186.83,417.31 -417.31,417.31 -230.48,0 -417.31,-186.83 -417.31,-417.31 0,-230.48 186.83,-417.31 417.31,-417.31 230.48,0 417.31,186.83 417.31,417.31l0 0c0,-230.48 -186.83,-417.31 -417.31,-417.31 -230.48,0 -417.31,186.83 -417.31,417.31 0,230.48 186.83,417.31 417.31,417.31 230.48,0 417.31,-186.83 417.31,-417.31l0 0z"/>
  <path class="fil1" d="M709.29 373.65c-6.37,9.58 -14.16,26.96 -20.22,48.34 -1.37,4.84 -2.63,9.95 -3.79,15.11 -1.84,8.37 -3.47,17.06 -4.53,26.01 -0.74,6.06 -1.47,11.32 -2.37,15.96 -3,15.74 -7.37,24.27 -16.38,31.49 -7,5.63 -16.75,10.53 -30.75,17.54 -12.11,4.53 -25.38,8.37 -39.23,11.74 -76.3,18.27 -169.61,19.75 -171.34,19.8 -2.53,0 -95.36,-1.47 -171.29,-19.64l-0 0c-13.85,-3.32 -27.17,-7.16 -39.28,-11.69 -37.39,-18.64 -44.39,-22.33 -49.55,-64.93 -0.53,-4.26 -1.16,-8.42 -1.84,-12.53 -1.74,-10.06 -3.95,-19.69 -6.48,-28.59 -6.11,-21.33 -13.85,-38.75 -20.27,-48.29 84.04,19.32 250.07,28.22 288.72,27.33 1.74,0 3.69,0.05 5.9,0.05 47.44,0 202.47,-9.06 282.72,-27.59l0 -0.11zm-288.93 -16.69l0 -3.63 0.47 0 0 3.63 -0.47 0zm-260.71 -10.11c-6.37,-1.11 -12.74,-2.26 -19.11,-3.47 0.9,-4.79 1.84,-9.58 2.74,-14.43 8.74,1.63 17.54,3.21 26.33,4.69 0.16,0 0.21,0 0.37,0.05 8.79,1.47 17.64,2.9 26.54,4.21 -0.74,4.79 -1.47,9.64 -2.21,14.48 -6.42,-0.95 -12.85,-1.95 -19.27,-3 -0.42,2.42 -0.79,4.84 -1.21,7.27 15.74,2.53 31.49,4.84 47.34,6.9 0.32,-2.42 0.63,-4.84 0.95,-7.27 -6.42,-0.84 -12.85,-1.74 -19.32,-2.63 0.74,-4.84 1.42,-9.69 2.16,-14.53 8.85,1.32 17.69,2.42 26.64,3.58l0 0c9,1.11 18.06,2.11 27.17,3.05 -0.53,4.9 -1.05,9.74 -1.58,14.59 -6.53,-0.63 -13.01,-1.37 -19.48,-2.16 -0.32,2.42 -0.58,4.84 -0.9,7.27 15.9,1.84 31.81,3.47 47.76,4.79 0.26,-2.42 0.42,-4.84 0.63,-7.27 -6.48,-0.53 -13.01,-1.11 -19.48,-1.79 0.53,-4.84 1,-9.69 1.47,-14.59 8.9,0.9 17.9,1.63 26.86,2.37 0.16,0 0.26,0 0.37,0 9,0.74 18.01,1.32 27.07,1.84 -0.32,4.84 -0.63,9.79 -0.95,14.64 -6.53,-0.42 -13.11,-0.84 -19.64,-1.32 -0.16,2.42 -0.37,4.9 -0.58,7.27 16.01,1.16 32.07,2.11 48.18,2.68 0.11,-2.42 0.21,-4.9 0.37,-7.32 -6.53,-0.21 -13.11,-0.58 -19.64,-0.9 0.32,-4.9 0.58,-9.74 0.84,-14.64 9,0.47 18.01,0.9 27.07,1.21l0.31 0c9.11,0.32 18.17,0.53 27.22,0.63 -0.11,4.9 -0.16,9.79 -0.26,14.69 -6.64,-0.11 -13.22,-0.26 -19.8,-0.47 -0.11,2.42 -0.16,4.9 -0.26,7.32 16.11,0.47 32.28,0.63 48.5,0.58l0 -7.32c-6.58,0 -13.17,0 -19.75,0 0.11,-4.9 0.16,-9.79 0.21,-14.69 9,0.11 18.01,0.05 27.07,0l0 3.63c-7.79,0.11 -15.59,0.11 -23.38,0.05 0,2.42 0,4.9 -0.05,7.32 6.53,0 13.17,0 19.75,0l0 14.64c-18.8,0.16 -37.49,-0.11 -56.18,-0.68 0.21,-4.9 0.37,-9.74 0.53,-14.64 6.58,0.21 13.17,0.37 19.75,0.47 0.05,-2.42 0.11,-4.84 0.16,-7.32 -7.9,-0.16 -15.69,-0.37 -23.59,-0.63l-0 0c-7.9,-0.26 -15.85,-0.58 -23.75,-1 -0.16,2.48 -0.26,4.9 -0.42,7.32 6.53,0.37 13.06,0.63 19.64,0.84 -0.21,4.9 -0.42,9.74 -0.63,14.59 -18.64,-0.68 -37.28,-1.74 -55.82,-3.16 0.42,-4.84 0.79,-9.69 1.21,-14.53 6.53,0.47 13.06,0.95 19.59,1.37 0.16,-2.42 0.32,-4.9 0.47,-7.37 -7.79,-0.47 -15.59,-1.05 -23.38,-1.63 -0.11,0 -0.26,0 -0.37,0 -7.79,-0.63 -15.53,-1.26 -23.28,-2 -0.21,2.42 -0.47,4.9 -0.74,7.32 6.48,0.63 12.95,1.21 19.48,1.74 -0.42,4.84 -0.84,9.69 -1.26,14.53 -18.53,-1.53 -37.02,-3.37 -55.39,-5.58 0.63,-4.84 1.21,-9.69 1.84,-14.53 6.48,0.74 12.95,1.53 19.43,2.21 0.26,-2.42 0.53,-4.9 0.84,-7.32 -7.74,-0.84 -15.48,-1.74 -23.22,-2.68 -0.11,0 -0.21,0 -0.37,0 -7.69,-0.95 -15.32,-1.95 -23.01,-3 -0.37,2.42 -0.68,4.84 -1.05,7.27 6.42,0.9 12.85,1.74 19.27,2.58 -0.63,4.84 -1.26,9.64 -1.9,14.48 -18.38,-2.32 -36.65,-4.95 -54.82,-8 0.79,-4.79 1.63,-9.58 2.42,-14.43 6.37,1.05 12.79,2.05 19.22,3.05 0.37,-2.42 0.74,-4.84 1.11,-7.27 -7.63,-1.16 -15.32,-2.42 -22.96,-3.69 -0.16,0 -0.21,0 -0.37,-0.05 -7.58,-1.26 -15.22,-2.63 -22.75,-4 -0.47,2.42 -0.95,4.79 -1.37,7.21 6.37,1.21 12.69,2.32 19.06,3.42 -0.84,4.74 -1.69,9.58 -2.53,14.38 -17.06,-2.9 -34.07,-6.16 -50.97,-9.69 0.16,-1.05 0.58,-2.21 1.32,-3.47 15.43,3.21 31.02,6.16 46.6,8.9 0.42,-2.42 0.84,-4.79 1.26,-7.21l-0.11 0.26zm485.02 -9.06c8.9,-1.32 17.69,-2.74 26.54,-4.21 0.11,0 0.26,0 0.37,-0.05 8.79,-1.47 17.59,-3.11 26.33,-4.74 0.95,4.79 1.84,9.58 2.79,14.43 -6.37,1.21 -12.74,2.37 -19.11,3.47 0.42,2.42 0.84,4.79 1.26,7.21 15.59,-2.74 31.17,-5.69 46.6,-8.95 0,0 0.05,0.11 0.11,0.16 0.26,0.53 0.47,1 0.68,1.42 0.05,0.21 0.16,0.37 0.21,0.53 0.11,0.37 0.21,0.68 0.26,1.05 0,0.11 0,0.21 0,0.26 -16.9,3.53 -33.86,6.79 -50.92,9.74 -0.84,-4.79 -1.74,-9.58 -2.53,-14.43 6.37,-1.11 12.74,-2.21 19.06,-3.42l-1.32 -7.21c-7.58,1.42 -15.22,2.79 -22.8,4.05 -0.11,0 -0.21,0 -0.32,0.05 -7.63,1.26 -15.32,2.48 -23.01,3.69 0.37,2.42 0.74,4.84 1.11,7.27 6.42,-1 12.85,-2.05 19.22,-3.11 0.84,4.79 1.63,9.58 2.48,14.43 -18.22,3.05 -36.49,5.74 -54.87,8.06 -0.63,-4.84 -1.26,-9.69 -1.9,-14.53 6.42,-0.79 12.85,-1.69 19.27,-2.58 -0.32,-2.42 -0.68,-4.84 -1,-7.27 -7.69,1.11 -15.32,2.11 -23.01,3.05 -0.11,0 -0.26,0 -0.37,0 -7.74,0.95 -15.43,1.84 -23.22,2.68 0.26,2.42 0.58,4.9 0.84,7.32 6.48,-0.68 12.95,-1.42 19.43,-2.21 0.63,4.84 1.21,9.69 1.79,14.48 -18.38,2.21 -36.86,4.11 -55.39,5.63 -0.42,-4.9 -0.84,-9.69 -1.26,-14.59 6.48,-0.58 12.95,-1.11 19.48,-1.74 -0.26,-2.42 -0.47,-4.9 -0.74,-7.37 -7.74,0.74 -15.48,1.42 -23.22,2.05 -0.16,0 -0.26,0 -0.37,0 -7.79,0.63 -15.59,1.16 -23.38,1.63 0.16,2.42 0.32,4.9 0.53,7.32 6.53,-0.42 13.06,-0.9 19.59,-1.37 0.37,4.84 0.79,9.69 1.16,14.59 -18.53,1.42 -37.18,2.48 -55.82,3.16 -0.26,-4.84 -0.47,-9.74 -0.63,-14.59 6.53,-0.26 13.06,-0.53 19.59,-0.9 -0.16,-2.42 -0.26,-4.9 -0.42,-7.32 -7.85,0.42 -15.59,0.74 -23.43,1l-0.32 0c-7.85,0.26 -15.69,0.47 -23.59,0.63 0.05,2.48 0.16,4.9 0.16,7.37 6.58,-0.11 13.17,-0.26 19.75,-0.47 0.21,4.9 0.37,9.74 0.58,14.64 -18.69,0.58 -37.44,0.84 -56.18,0.74l0 -14.64c6.58,0.05 13.11,0.05 19.75,0 0,-2.42 -0.05,-4.9 -0.11,-7.32 -7.79,0.05 -15.59,0 -23.33,0l0 -3.63c9.06,0.05 18.06,0.05 27.07,0 0.05,4.9 0.16,9.79 0.21,14.64 -6.58,0.05 -13.17,0.05 -19.75,0.05 0,2.42 0,4.9 0,7.32 16.22,0.05 32.33,-0.16 48.45,-0.63 -0.05,-2.42 -0.16,-4.9 -0.26,-7.32 -6.58,0.16 -13.22,0.37 -19.8,0.47 -0.11,-4.9 -0.21,-9.79 -0.32,-14.64 9.21,-0.16 18.43,-0.37 27.59,-0.74l-0 0c9.06,-0.32 18.06,-0.68 27.07,-1.21 0.32,4.9 0.58,9.79 0.84,14.64 -6.53,0.37 -13.06,0.63 -19.64,0.95 0.11,2.42 0.21,4.84 0.37,7.32 16.11,-0.63 32.12,-1.58 48.13,-2.74 -0.21,-2.42 -0.37,-4.9 -0.58,-7.32 -6.53,0.47 -13.06,0.95 -19.64,1.32 -0.37,-4.9 -0.63,-9.79 -0.95,-14.64 9.06,-0.53 18.06,-1.16 27.07,-1.84l-0 0c9.06,-0.74 18.17,-1.53 27.22,-2.42 0.47,4.9 1,9.74 1.47,14.59 -6.48,0.63 -12.95,1.26 -19.48,1.79 0.26,2.42 0.42,4.9 0.63,7.27 16.01,-1.37 31.91,-2.95 47.76,-4.84 -0.26,-2.42 -0.58,-4.84 -0.9,-7.27 -6.48,0.79 -12.95,1.53 -19.48,2.21 -0.53,-4.9 -1,-9.74 -1.53,-14.59 9.06,-0.95 18.11,-2 27.12,-3.11l0 -0c8.9,-1.11 17.8,-2.26 26.64,-3.53 0.74,4.84 1.42,9.64 2.11,14.48 -6.42,0.95 -12.85,1.84 -19.32,2.63 0.32,2.42 0.63,4.84 1,7.27 15.8,-2 31.59,-4.37 47.29,-6.95 -0.37,-2.42 -0.79,-4.79 -1.21,-7.21 -6.42,1.05 -12.85,2.05 -19.27,3 -0.74,-4.84 -1.47,-9.64 -2.21,-14.48l-0.05 0.06zm-513.98 -7.53c-1.26,-0.21 -2.58,-0.53 -3.84,-0.74 0.05,-0.05 0.11,-0.11 0.16,-0.21 1,-1.05 1.9,-2.05 2.63,-3 1.79,0.37 3.53,0.74 5.32,1.05 -0.95,4.79 -1.84,9.58 -2.79,14.38 -5.06,-1 -10.11,-2 -15.17,-3.05 0.11,-0.11 0.21,-0.21 0.32,-0.26 0.53,-0.47 1.11,-1 1.74,-1.53 0.47,-0.42 0.95,-0.84 1.42,-1.21 2.9,0.58 5.85,1.16 8.79,1.74 0.47,-2.42 0.95,-4.79 1.42,-7.21l0 0.05zm575.49 -3.11c1.79,-0.37 3.53,-0.68 5.32,-1.05 0.79,0.95 1.63,1.9 2.58,2.95 0.11,0.11 0.16,0.16 0.26,0.26 -1.26,0.26 -2.53,0.53 -3.79,0.74l1.42 7.21c2.9,-0.58 5.85,-1.16 8.74,-1.79 0.47,0.42 0.95,0.79 1.42,1.26 0.74,0.63 1.42,1.21 2.05,1.84 -5.06,1.05 -10.11,2.05 -15.17,3.05 -0.95,-4.79 -1.9,-9.58 -2.84,-14.38l0 -0.11zm-20.9 -74.25c1.26,20.06 7.06,37.91 12.43,50.18 -24.8,7.63 -115,31.33 -276.87,29.7 0,0 -0.26,0 -0.42,0l-0.11 0c-161.81,1.79 -252.07,-21.85 -276.87,-29.49 5.42,-12.27 11.22,-30.17 12.37,-50.34 85.04,11.27 168.98,17.32 249.49,17.96 5.16,0 10.32,0.05 15.48,0.05 86.2,0 172.93,-5.95 264.5,-18.06zm-429.1 -22.48c0,0 0,0 0,0 9.58,-4.42 20.64,-6.95 32.38,-6.95 14.48,0 27.91,3.84 38.81,10.32 -8.95,-0.26 -18.11,-0.63 -27.33,-1 -3.69,-0.63 -7.53,-1 -11.48,-1 -1.79,0 -3.58,0.05 -5.32,0.21 0,0 -0.05,0 -0.11,0 -9.16,-0.47 -18.22,-1 -27.01,-1.58l0.05 0zm243.8 3.74c11.01,-6.69 24.64,-10.64 39.39,-10.64 12.32,0 23.85,2.74 33.7,7.58 -8.11,0.47 -16.38,0.9 -24.7,1.32 -2.9,-0.37 -5.9,-0.58 -8.95,-0.58 -5,0 -9.9,0.53 -14.53,1.53 0,0 0,0 0,0 -8.48,0.32 -16.85,0.58 -24.91,0.79 0,0 0,0 0,0l0 0zm68.4 4.26c0,0 0,0 0,0 5.32,-0.26 10.48,-0.58 15.53,-0.9l0.11 0c2.42,-0.16 4.84,-0.32 7.21,-0.47 4.16,-0.26 8.27,-0.53 12.22,-0.84 0,0 0,0 0,0 51.45,-3.84 81.99,-9.32 84.2,-15.43 -2.16,9.74 -2.84,19.43 -2.48,28.64 -96.99,12.85 -188.56,18.8 -279.77,18.01 -80.46,-0.63 -164.4,-6.69 -249.38,-17.96 0.32,-9.21 -0.37,-18.8 -2.53,-28.49 2,5.48 26.59,10.37 68.45,14.11 0,0 0,0 0,0 7.16,0.63 14.85,1.26 23.06,1.79 0,0 0,0 0,0 5.06,0.37 10.32,0.68 15.74,1 0,0 0,0 0,0 5.06,0.26 10.27,0.58 15.59,0.84 0.37,0 0.74,0 1.11,0.05 2.79,0.16 5.63,0.26 8.53,0.37 0.63,0 1.32,0.05 1.95,0.11 1.69,0.05 3.42,0.16 5.11,0.21 0.21,0 0.42,0 0.63,0 8.85,0.37 18.06,0.68 27.59,0.95 0,0 0,0 0,0 16.01,0.47 32.96,0.84 50.76,1.05 8.11,0.11 16.38,0.21 24.8,0.26 1.37,0 2.74,0 4.11,0 2.37,0 4.74,0 7.11,0 3.95,0 8,0 12.01,0l1 0c30.44,0 58.92,-0.42 85.09,-1.05 0,0 0,0 0,0 22.54,-0.58 43.34,-1.37 62.19,-2.32l0.05 0.05zm-387.24 -18.17c-3.95,-1.11 2.48,-2.95 17.17,-5 -2.53,2.48 -4.95,5.06 -7.21,7.69 -3.9,-0.84 -7.27,-1.74 -10,-2.68l0.05 0zm446.32 -7.06c25.33,2.74 37.65,5.42 32.54,6.85 -5.11,1.79 -12.48,3.42 -21.48,4.79 -3.32,-4.11 -7,-8 -11.01,-11.69l-0.05 0.05zm-187.77 12.37c7.27,1.21 14.32,2.95 21.12,5.11 17.69,-19.69 46.34,-32.54 78.56,-32.54 32.23,0 57.98,11.58 75.83,29.65 -3.95,0.42 -8.06,0.79 -12.27,1.16 0,0 0,0 0,0 -12.37,-10.74 -28.75,-18.38 -47.23,-21.22l-0.11 0c-5.27,-0.79 -10.69,-1.21 -16.22,-1.21 -1.84,0 -3.69,0 -5.48,0.16l-0.11 0c-25.8,1.32 -48.55,11.85 -63.4,27.49 0.53,0.21 1.11,0.47 1.63,0.68 -10,0.21 -19.11,0.32 -26.75,0.42 0,0 0,0 0,0 -10,-2.21 -20.48,-3.42 -31.33,-3.42 -1,0 -2,0 -3,0 -9.48,0.21 -18.69,1.32 -27.49,3.26 -8.16,-0.11 -17.27,-0.26 -27.07,-0.53 0,0 0,0 0,0 0.37,-0.16 0.74,-0.37 1.16,-0.47 -13.8,-14.53 -34.44,-24.64 -57.98,-27.07 -3.58,-0.37 -7.27,-0.58 -11.01,-0.58 -7.95,0 -15.69,0.84 -23.01,2.53 -15.22,3.37 -28.8,10 -39.44,18.96 -4.26,-0.42 -8.32,-0.9 -12.22,-1.37 17.85,-17.38 44.65,-28.44 74.61,-28.44 32.28,0 60.92,12.85 78.56,32.54 6.79,-2.16 13.8,-3.9 21.12,-5.11 -21.01,-26.7 -57.82,-44.49 -99.68,-44.49 -31.02,0 -59.24,9.74 -80.3,25.64 -35.17,3.69 -54.97,8.37 -54.97,13.48 0.42,12.64 -0.47,36.65 -13.01,62.98 -16.27,34.23 -42.39,51.92 -53.29,58.45 -11.9,11.11 2.37,20.64 30.7,28.59l0 0c0,0 15.48,13.22 26.33,54.45 -12.53,5.53 -33.91,20.8 -39.28,48.45 -5,25.7 7.48,45.71 10.37,50.08 -18.48,5.21 -29.01,22.49 -29.38,40.81 -0.37,17.01 11.37,35.28 29.38,35.02 22.12,-2.95 39.39,13.01 39.7,27.43 0.42,14.8 -16.85,32.02 -39.7,29.17 0.42,-0.9 8,-11.16 -0.95,-26.22 -2.32,-3.9 -10.16,-12.85 -20.59,-8.37 -22.43,9.69 -2.95,39.49 -2.95,39.49 0,0 11.27,20.8 53.39,4.9 42.18,-15.9 26.22,-85.25 -13.48,-83.36 11.01,-8.32 22.27,-6.11 33.7,-3.84 6.48,1.26 12.95,2.53 19.48,1.9 41.02,-3.47 55.45,-26.59 58.56,-30.38 1.32,-1.58 2.53,-3.16 3.69,-4.74 55.08,11.8 123.8,15.48 174.56,17.74l0 -0c0,0 0.05,0 0.11,0 0,0 0.05,0 0.11,0l-0 0c50.76,-2.32 119.53,-6 174.56,-17.9l0 0c1.16,1.58 2.37,3.16 3.69,4.74 3.16,3.79 17.54,26.91 58.56,30.33 6.53,0.63 13.01,-0.63 19.48,-1.9 11.43,-2.26 22.7,-4.53 33.7,3.84 -39.7,-1.95 -55.61,67.45 -13.43,83.36 42.18,15.9 53.39,-4.95 53.39,-4.95 0,0 19.48,-29.8 -2.95,-39.49 -10.43,-4.48 -18.27,4.48 -20.59,8.37 -8.9,15.06 -1.37,25.33 -0.95,26.22 -22.8,2.9 -40.12,-14.32 -39.7,-29.12 0.32,-14.43 17.54,-30.38 39.7,-27.49 18.01,0.26 29.75,-18.01 29.38,-35.07 -0.42,-18.33 -10.95,-35.54 -29.43,-40.76 2.9,-4.42 15.38,-24.43 10.37,-50.08 -5.42,-27.7 -26.8,-42.86 -39.33,-48.39l-0 0c10.79,-41.23 26.28,-54.45 26.28,-54.45l-0 0c28.33,-7.95 42.6,-17.48 30.7,-28.59 -10.9,-6.53 -37.07,-24.22 -53.34,-58.4 -12.53,-26.33 -13.43,-50.34 -13.06,-62.98 0,0 0,0 0,0 0,-5.79 -25.54,-11.06 -70.3,-14.9 -20.85,-14.95 -48.13,-24.06 -78.09,-24.06 -41.86,0 -78.72,17.8 -99.68,44.49l0.06 -0z"/>
  <path class="fil2" d="M410.99 130.48c-40.65,0.84 -76.19,18.38 -96.73,44.44 7.27,1.21 14.32,2.95 21.12,5.11 17.11,-19.11 44.55,-31.7 75.62,-32.49 1,0 2,-0.05 3,-0.05 32.28,0 60.92,12.85 78.56,32.54 6.79,-2.16 13.8,-3.9 21.12,-5.11 -21.01,-26.7 -57.82,-44.49 -99.68,-44.49 -1,0 -2,0 -3,0.05z"/>
  <path class="fil3" d="M410.99 155.81c-26.86,0.74 -50.66,11.43 -65.98,27.59 1.58,0.63 3.16,1.26 4.74,1.95 4.69,2.05 9.16,4.37 13.43,6.85 11.48,-11.27 28.59,-18.69 47.81,-19.38 1,0 2,-0.05 3,-0.05 20.43,0 38.7,7.58 50.81,19.48 4.32,-2.48 8.74,-4.79 13.43,-6.85 1.53,-0.68 3.11,-1.32 4.69,-1.95 -15.9,-16.8 -40.91,-27.65 -68.98,-27.65 -1,0 -2,0 -3,0.05l0.05 -0.05z"/>
  <path class="fil4" d="M410.99 181.19c-15.96,0.68 -30.12,6.85 -39.76,16.17 2.79,1.9 5.48,3.9 8.06,6 2.42,1.95 4.74,4 6.95,6.11 5.74,-6.21 14.64,-10.48 24.75,-11.16 1,-0.05 2,-0.11 3,-0.11 11.32,0 21.38,4.48 27.7,11.32 2.21,-2.11 4.53,-4.16 6.95,-6.11 2.58,-2.11 5.27,-4.05 8.06,-6 -10.22,-9.9 -25.59,-16.27 -42.71,-16.27 -1,0 -2,0 -3,0.05z"/>
  <path class="fil5" d="M410.99 206.62c-7.74,0.79 -14.32,4.48 -18.11,9.69 1.9,2.16 3.74,4.37 5.42,6.64 0.32,0.42 0.58,0.79 0.84,1.21 3.9,-0.37 7.79,-0.58 11.8,-0.63 1,0 2,-0.05 3,-0.05 5,0 9.9,0.26 14.74,0.74 0.32,-0.42 0.58,-0.84 0.9,-1.21 1.69,-2.26 3.53,-4.48 5.42,-6.64 -4.21,-5.9 -12.06,-9.9 -21.06,-9.9 -1,0 -2,0.05 -3,0.16l0.05 0z"/>
  <path class="fil6" d="M315.84 12.43c23.54,65.35 86.83,80.78 114.53,84.46 2.11,0.26 4,0.47 5.63,0.63 1.58,-0.16 3.11,-0.26 4.69,-0.47 0.79,-0.11 1.47,-0.68 1.63,-1.47 0.21,-1 -0.47,-2 -1.47,-2.16l-0.16 0c-6.06,-1.16 -11.85,-3.69 -17.27,-6.95 -5.42,-3.21 -10.43,-7.11 -15.22,-11.32 -9.53,-8.48 -17.96,-18.17 -25.43,-28.54 -7.48,-10.37 -14.01,-21.43 -19.64,-32.86 -1.58,-3.16 -3.05,-6.37 -4.42,-9.58 -14.59,2.05 -28.91,4.84 -42.92,8.32l0.05 -0.05z"/>
  <path class="fil7" d="M467.49 29.17c-3.16,-0.11 -6.16,0.79 -8.74,2.16 -2.48,1.53 -4.63,3.32 -6.06,5.79 -0.37,0.58 -0.79,1.16 -1,1.74 -0.21,0.58 -0.42,1.11 -0.63,1.63l-0.32 0.79 -0.11 0.21 0 0c0,0 -0.05,0.21 -0.05,0.21 0,0 0,0 0,0l0 0.11c0,0 -0.11,0.47 -0.11,0.47 -0.11,0.63 -0.21,1.26 -0.26,1.84 -0.11,2.53 0.68,4.79 1.79,6.64 1.16,1.84 2.74,3.16 4.42,4.11 0.84,0.42 1.47,0.58 2.42,0.9 0.84,0.16 1.69,0.32 2.48,0.21 3.21,-0.21 5.06,-2.16 5.95,-3.47 0.95,-1.42 0.95,-2.16 1,-2.16 0.11,-0.21 0,-0.47 -0.21,-0.58 -0.21,-0.11 -0.47,0 -0.58,0.21 -0.05,-0.05 -0.21,0.9 -1.05,1.95 -0.79,1.05 -2.53,2.63 -5.16,2.58 -1.32,0.11 -2.58,-0.47 -4.11,-1.26 -1.21,-0.84 -2.53,-2 -3.32,-3.58 -0.79,-1.58 -1.26,-3.47 -1.11,-5.42 0.05,-0.47 0.21,-0.95 0.32,-1.42l0 -0.37c0,0 0.11,-0.05 0.11,-0.05l0.11 -0.21 0.37 -0.79c0.26,-0.53 0.47,-1.05 0.74,-1.63 0.26,-0.53 0.63,-0.84 0.9,-1.26 1.11,-1.74 3.11,-3.21 5.11,-4.26 2.16,-0.95 4.53,-1.47 6.95,-1.26 0.63,-0.05 1.21,0.21 1.79,0.32l0.9 0.21c0,0 0.32,0.05 0.32,0.05l0.42 0.21c1.26,0.58 2.74,1.11 3.9,1.79 1,0.79 2.05,1.42 3,2.26 0.9,1 1.9,1.9 2.68,3 3.21,4.37 4.58,10.22 3.42,15.64 -1.05,5.63 -4.42,10.58 -8.85,14.38 -2.26,1.84 -4.79,3.37 -7.43,4.58 -2.68,1.16 -5.48,1.95 -8.27,2.42 -2.84,0.37 -5.69,0.53 -8.37,0.21 -1.37,-0.11 -2.74,-0.37 -4.05,-0.63 -1.32,-0.37 -2.53,-0.63 -4.05,-1.16 -1.47,-0.42 -2.9,-0.84 -4.32,-1.26 -1.21,-0.53 -2.48,-1 -3.69,-1.47 -1.21,-0.42 -2.42,-1.05 -3.63,-1.63 -1.21,-0.63 -2.48,-1.05 -3.58,-1.79 -2.32,-1.26 -4.53,-2.58 -6.53,-4.05 -2.16,-1.32 -4,-2.9 -5.9,-4.26 -3.63,-3 -6.95,-5.79 -9.64,-8.58 -2.79,-2.68 -5.06,-5.21 -6.95,-7.32 -3.69,-4.21 -5.63,-6.85 -5.63,-6.85 -0.11,-0.16 -0.32,-0.21 -0.47,-0.16 -0.21,0.05 -0.37,0.32 -0.26,0.53 0,0 1.11,3.11 3.95,8.16 1.42,2.53 3.21,5.53 5.63,8.79 2.37,3.32 5.37,6.79 8.9,10.43 3.63,3.47 7.79,7.16 12.79,10.27 2.53,1.58 5.06,3.05 8.06,4.37 1.47,0.63 3,1.26 4.53,1.9 1.42,0.42 2.9,0.84 4.32,1.32 1.37,0.42 3.16,0.79 4.84,1.16 1.69,0.26 3.47,0.53 5.21,0.63 3.53,0.26 7,-0.21 10.48,-0.9 3.42,-0.79 6.79,-2 9.95,-3.58 3.11,-1.69 6.11,-3.69 8.74,-6.11 2.58,-2.48 4.9,-5.27 6.64,-8.37 0.47,-0.74 0.84,-1.69 1.21,-2.48 0.42,-0.84 0.79,-1.69 0.95,-2.42 0.26,-0.84 0.47,-1.32 0.79,-2.48l0.47 -2.68c1.16,-7.11 -1,-14.43 -5.27,-19.64 -1,-1.32 -2.37,-2.37 -3.53,-3.53 -1.32,-1.05 -2.84,-1.9 -4.26,-2.79 -1.42,-0.68 -2.74,-1.11 -4.05,-1.63l-0.47 -0.21 -0.26 -0.11 -0.05 -0c0,0 -0.16,0 -0.16,0l-0.32 0c0,0 -1.21,-0.26 -1.21,-0.26 -0.68,-0.05 -1.32,-0.26 -2,-0.26 -0.11,0 -0.21,0 -0.37,0l-0.16 0.21z"/>
  <path class="fil8" d="M368.44 2.79c1.11,3.58 3.05,9.37 5.69,16.01 4.42,11.06 13.64,5.16 10.74,-2.05 -1.84,-4.63 -8.64,-10.64 -13.17,-14.32 -1.11,0.11 -2.16,0.26 -3.26,0.37l-0 0z"/>
 </g>
</svg>
