<?xml version="1.0" encoding="UTF-8"?>
<!DOCTYPE svg PUBLIC "-//W3C//DTD SVG 1.1//EN" "http://www.w3.org/Graphics/SVG/1.1/DTD/svg11.dtd">
<!-- Creator: CorelDRAW -->
<svg xmlns="http://www.w3.org/2000/svg" xml:space="preserve" width="41.9364mm" height="41.9364mm" version="1.1" style="shape-rendering:geometricPrecision; text-rendering:geometricPrecision; image-rendering:optimizeQuality; fill-rule:evenodd; clip-rule:evenodd"
viewBox="0 0 834.61 834.61"
 xmlns:xlink="http://www.w3.org/1999/xlink"
 xmlns:xodm="http://www.corel.com/coreldraw/odm/2003">
 <defs>
  <style type="text/css">
   <![CDATA[
    .fil17 {fill:url(#id0);fill-rule:nonzero}
    .fil12 {fill:url(#id1);fill-rule:nonzero}
    .fil14 {fill:url(#id2);fill-rule:nonzero}
    .fil15 {fill:url(#id3);fill-rule:nonzero}
    .fil3 {fill:url(#id4);fill-rule:nonzero}
    .fil2 {fill:url(#id5);fill-rule:nonzero}
    .fil1 {fill:url(#id6);fill-rule:nonzero}
    .fil0 {fill:url(#id7);fill-rule:nonzero}
    .fil8 {fill:url(#id8);fill-rule:nonzero}
    .fil20 {fill:url(#id9);fill-rule:nonzero}
    .fil11 {fill:url(#id10);fill-rule:nonzero}
    .fil9 {fill:url(#id11);fill-rule:nonzero}
    .fil6 {fill:url(#id12);fill-rule:nonzero}
    .fil5 {fill:url(#id13);fill-rule:nonzero}
    .fil13 {fill:url(#id14);fill-rule:nonzero}
    .fil19 {fill:url(#id15);fill-rule:nonzero}
    .fil18 {fill:url(#id16);fill-rule:nonzero}
    .fil4 {fill:url(#id17);fill-rule:nonzero}
    .fil16 {fill:url(#id18);fill-rule:nonzero}
    .fil7 {fill:url(#id19);fill-rule:nonzero}
    .fil10 {fill:url(#id20);fill-rule:nonzero}
   ]]>
  </style>
  <linearGradient id="id0" gradientUnits="userSpaceOnUse" x1="1017.07" y1="260.64" x2="1017.09" y2="260.64">
   <stop offset="0" style="stop-opacity:1; stop-color:#E5D28B"/>
   <stop offset="1" style="stop-opacity:1; stop-color:#A47E33"/>
  </linearGradient>
  <linearGradient id="id1" gradientUnits="userSpaceOnUse" xlink:href="#id0" x1="-2658.91" y1="-9526.01" x2="-2658.91" y2="-9526.02">
  </linearGradient>
  <linearGradient id="id2" gradientUnits="userSpaceOnUse" xlink:href="#id0" x1="-5484.22" y1="-6087.03" x2="-5484.22" y2="-6087.04">
  </linearGradient>
  <linearGradient id="id3" gradientUnits="userSpaceOnUse" xlink:href="#id0" x1="-6157.31" y1="-3949.23" x2="-6157.31" y2="-3949.23">
  </linearGradient>
  <linearGradient id="id4" gradientUnits="userSpaceOnUse" xlink:href="#id0" x1="-8024.06" y1="-3042" x2="-8024.06" y2="-3042">
  </linearGradient>
  <linearGradient id="id5" gradientUnits="userSpaceOnUse" xlink:href="#id0" x1="-3488.02" y1="-8149.36" x2="-3488.02" y2="-8149.36">
  </linearGradient>
  <linearGradient id="id6" gradientUnits="userSpaceOnUse" xlink:href="#id0" x1="-5884.29" y1="-5609.46" x2="-5884.29" y2="-5609.46">
  </linearGradient>
  <linearGradient id="id7" gradientUnits="userSpaceOnUse" xlink:href="#id0" x1="1624.22" y1="-17268.37" x2="1624.25" y2="-17268.39">
  </linearGradient>
  <linearGradient id="id8" gradientUnits="userSpaceOnUse" xlink:href="#id0" x1="-4805.48" y1="-6784.99" x2="-4805.48" y2="-6785">
  </linearGradient>
  <linearGradient id="id9" gradientUnits="userSpaceOnUse" xlink:href="#id0" x1="-4032.96" y1="-8225.38" x2="-4032.96" y2="-8225.38">
  </linearGradient>
  <linearGradient id="id10" gradientUnits="userSpaceOnUse" xlink:href="#id0" x1="-2403.27" y1="-9335.97" x2="-2403.27" y2="-9335.98">
  </linearGradient>
  <linearGradient id="id11" gradientUnits="userSpaceOnUse" xlink:href="#id0" x1="-3256.35" y1="-8587.12" x2="-3256.35" y2="-8587.12">
  </linearGradient>
  <linearGradient id="id12" gradientUnits="userSpaceOnUse" xlink:href="#id0" x1="-4564.09" y1="-7092.63" x2="-4564.09" y2="-7092.64">
  </linearGradient>
  <linearGradient id="id13" gradientUnits="userSpaceOnUse" xlink:href="#id0" x1="-4728.26" y1="-7185.16" x2="-4728.26" y2="-7185.17">
  </linearGradient>
  <linearGradient id="id14" gradientUnits="userSpaceOnUse" xlink:href="#id0" x1="-5420.33" y1="-5840.55" x2="-5420.33" y2="-5840.56">
  </linearGradient>
  <linearGradient id="id15" gradientUnits="userSpaceOnUse" xlink:href="#id0" x1="-5649.68" y1="-4673.22" x2="-5649.68" y2="-4673.22">
  </linearGradient>
  <linearGradient id="id16" gradientUnits="userSpaceOnUse" xlink:href="#id0" x1="-6109.3" y1="-5922.97" x2="-6109.3" y2="-5923.01">
  </linearGradient>
  <linearGradient id="id17" gradientUnits="userSpaceOnUse" xlink:href="#id0" x1="-6498.65" y1="-5026.21" x2="-6498.65" y2="-5026.21">
  </linearGradient>
  <linearGradient id="id18" gradientUnits="userSpaceOnUse" xlink:href="#id0" x1="-4928.47" y1="-6135.36" x2="-4928.47" y2="-6135.36">
  </linearGradient>
  <linearGradient id="id19" gradientUnits="userSpaceOnUse" xlink:href="#id0" x1="-4935.19" y1="-6807.19" x2="-4935.19" y2="-6807.19">
  </linearGradient>
  <linearGradient id="id20" gradientUnits="userSpaceOnUse" xlink:href="#id0" x1="-3401.14" y1="-8659.62" x2="-3401.14" y2="-8659.63">
  </linearGradient>
 </defs>
 <g id="Layer_x0020_1">
  <metadata id="CorelCorpID_0Corel-Layer"/>
  <path class="fil0" d="M834.61 417.31l0 0c0,230.48 -186.83,417.31 -417.31,417.31 -230.48,0 -417.31,-186.83 -417.31,-417.31 0,-230.48 186.83,-417.31 417.31,-417.31 230.48,0 417.31,186.83 417.31,417.31l0 0c0,-230.48 -186.83,-417.31 -417.31,-417.31 -230.48,0 -417.31,186.83 -417.31,417.31 0,230.48 186.83,417.31 417.31,417.31 230.48,0 417.31,-186.83 417.31,-417.31l0 0z"/>
  <path class="fil1" d="M192.78 406.41c-18.48,37.7 -80.2,140.91 -129.91,231.32 7.37,11.8 15.27,23.17 23.75,34.17 56.29,-119.37 145.76,-189.2 168.55,-209.05 0,0 0.11,-0.05 0.16,-0.11 -6.69,-22.96 -21.33,-42.23 -45.23,-59.98 -0.74,-0.58 -1.42,-1.05 -2.32,-1.69l-2 -1.42c-2.16,-1.58 -4.21,-3.37 -6,-5.27 -2.9,4.9 -5.16,8.79 -6.95,12.06l-0.05 -0.05zm579.65 -104.47l0 0.53c-2.11,36.02 -9.37,70.88 -26.12,95.84 -52.08,77.62 -145.6,104.1 -145.6,104.1 0,0 -7.27,2.53 -19.11,6.79 0.26,1.11 0.47,2.26 0.63,3.47 1.26,9.74 -1,19.22 -5.9,27.07 48.39,-10.32 78.93,-17.11 120.53,-39.02 -1.21,1.32 -40.86,42.6 -137.59,61.08 1.11,1.32 2.11,2.74 3.05,4.21 9.43,15.17 7.95,34.7 -3.63,48.29 -12.74,14.95 -28.91,23.75 -48.02,26.17 -7.43,18.53 -17.74,39.02 -36.23,56.08 -11.43,10.53 -23.91,17.32 -37.28,20.33 -4.53,1.69 -9.43,2.58 -14.38,2.58l-6.22 0c-5.48,0 -10.79,-1.11 -15.74,-3.16 -1.53,0.42 -2.95,0.74 -4.16,0.95 -4.21,1.47 -8.74,2.21 -13.32,2.21l-6.22 0c-5.32,0 -10.58,-1.05 -15.53,-3.05 -0.95,-0.37 -1.95,-0.74 -2.9,-1.11 -3.47,-1.32 -7.85,-3 -12.59,-5.48 -19.9,-10.37 -31.7,-26.28 -38.81,-37.28 -1.42,-2.16 -2.74,-4.37 -4.05,-6.64 -17.74,12.95 -33.28,26.38 -46.29,39.76 1.11,-1.9 13.17,-21.01 42.55,-46.55 -2.48,-4.74 -4.79,-9.74 -7,-15.01 -33.65,25.28 -71.35,58.45 -115.21,103.52 0.63,-1.58 9.21,-23.64 31.12,-53.76 0.05,0 0.05,-0.05 0.05,-0.05 0.05,0 0.05,-0.05 0.05,-0.05 0.05,0 0.05,-0.05 0.05,-0.05 0.05,0 0.05,-0.05 0.05,-0.05 13.43,-18.38 31.65,-39.7 56.03,-61.45 -4.74,-2.53 -9.21,-5.63 -13.43,-9.16 -13.11,-10.48 -19.17,-26.33 -16.06,-42.6 1.63,-8.64 6,-16.48 12.32,-22.38 0,0 0,-0.05 -0.05,-0.11 -16.48,-4.53 -28.49,-18.9 -29.96,-36.12 -56.61,46.29 -95.31,104.74 -121.74,161.6 52.6,63.5 123.59,111.16 204.84,134.75 97.2,-62.82 247.54,-156.29 357.7,-158.55l0.06 0c2,-0.05 4,-0.05 6,-0.05 2.95,-2.68 5.79,-5.21 8.64,-7.79l0.05 0c36.86,-33.02 63.87,-55.03 81.72,-70.09l0.05 0c16.8,-14.27 25.49,-22.43 26.75,-28.01 1.05,-4.69 1.21,-21.43 1.11,-40.12l-0 0c-0.11,-28.8 -1.11,-61.82 -1.11,-61.82 0,0 2.37,-4.11 5.95,-11.11l0 -0.21c6.58,-13.48 17.22,-38.12 22.91,-67.03 1.9,-9.79 3.26,-20.11 3.74,-30.65 0.74,-16.32 1,-35.39 -1.05,-57.87 -11.48,-34.28 -27.28,-66.56 -46.76,-96.26 4.32,30.33 8.48,72.51 6.06,113.42l0.05 -0.1z"/>
  <path class="fil2" d="M672.22 104c-8.9,16.9 -20.64,30.12 -29.91,39.76 -1.63,1.69 -3.37,3.37 -5.06,5 -1.95,1.9 -3.95,3.9 -4.84,5 -2.58,3.26 -6.06,7.63 -1,23.01 2,5.9 4.42,10.64 7.63,14.59 9.11,-15.38 10.85,-23.91 11.11,-27.54l0 41.07c-0.16,0.32 -0.32,0.63 -0.53,0.95 3.53,7.63 4.63,16.32 3.05,24.8 -2.53,13.32 -11.53,24.54 -23.96,30.01 -0.84,0.32 -3.05,1.32 -7.11,11.06 8.64,32.07 -4.53,58.45 -9.21,67.88 -1.26,2.48 -2.58,4.79 -3.95,6.95 1.26,2.32 2.32,4.84 3.11,7.43 5.27,17.22 -1.32,35.86 -16.22,45.97 -11.64,7.95 -20.85,16.11 -28.86,25.8 -13.32,16.01 -20.8,32.12 -22.96,49.18 0.84,0.74 1.63,1.47 2.37,2.26 9.69,1.05 18.43,5.48 24.91,12.11 68.77,-24.49 131.54,-53.34 157.76,-94.52 28.33,-44.44 35.33,-98.89 35.49,-148.28l-0 -0c0.05,-23.59 -1.42,-46.02 -2.84,-65.56 -23.38,-33.96 -51.6,-64.24 -83.78,-89.88 -1.11,3.53 -2.68,8.11 -5.21,12.95z"/>
  <path class="fil3" d="M502.14 728.46c-49.29,24.22 -121.64,63.72 -175.14,96.36 29.07,6.42 59.29,9.79 90.31,9.79 92.41,0 177.77,-30.01 246.91,-80.88 0,-14.16 1.11,-30.12 3.53,-48.34 0,0 -17.9,-3.9 -45.55,-3.9 -31.49,0 -75.56,5.11 -120.06,26.96l-0 0z"/>
  <path class="fil4" d="M270.55 26.49c2.63,16.9 13.69,28.38 32.12,33.12 -5,-7.21 -7.43,-16.32 -6.79,-26.22 0.37,-6.21 1.9,-11.85 4.48,-16.8 -10.11,2.95 -20.01,6.27 -29.8,9.9l-0 0zm244.49 -5.42c4.48,11.58 3.32,24.75 -3.26,36.23 -0.58,1.05 -1.21,2.05 -1.95,3.21 13.43,-3.26 25.33,-13.01 30.65,-25.06 0.21,-5.58 0.47,-11.16 0.74,-16.69 -10.79,-3.37 -21.75,-6.27 -32.86,-8.74 2.84,3.32 5.11,7.06 6.69,11.11l0 -0.05zm-142.54 -18.69c12.37,8.69 19.64,23.48 19.75,41.55 0.11,22.49 -8.48,42.49 -25.59,59.5 13.69,18.53 26.91,41.39 30.96,68.93l17.8 0c0.37,-2.11 0.74,-4 1.11,-5.74 4.74,-21.91 14.64,-42.6 30.22,-63.14 -16.27,-15.64 -25.06,-35.12 -25.59,-56.82 -0.37,-15.9 4.42,-29.49 13.9,-39.18 2.48,-2.53 5.21,-4.74 8.22,-6.64 -8.64,-0.53 -17.32,-0.79 -26.07,-0.79 -15.11,0 -30.07,0.79 -44.76,2.37l0.05 -0.05z"/>
  <path class="fil5" d="M166.08 84.04l0 8.79c0.84,0.11 1,0.74 1.16,1.47 2.26,9.79 7.21,18.17 13.17,26.12 6.79,9.06 14.74,16.96 22.7,24.91 7.53,7.48 12.9,16.32 14.85,26.8 4.84,26.28 -3.42,48.97 -19.9,69.24 -0.9,1.11 -2.68,1.74 -2.53,3.58 15.43,6.58 22.85,19.9 29.12,34.81 10.58,-17.74 17.17,-36.28 19.96,-55.87 5.85,-40.23 43.28,-66.56 80.2,-64.66 9.85,0.53 19.32,2.58 28.86,4.9 -16.96,-12.11 -35.6,-19.54 -56.61,-19.06 -21.59,0.47 -38.97,9.74 -51.81,27.8 -2.05,-9.06 -4.63,-17.11 -8.95,-24.43 -2.11,-3.53 -0.9,-4.9 1.84,-6.85 20.27,-14.27 42.55,-17.85 66.56,-12.79 3.74,0.79 7.32,2.79 11.48,2.48 -0.26,-0.53 -0.37,-0.95 -0.58,-1.05 -29.49,-18.17 -59.71,-26.38 -91.62,-5.79 -1.63,1.05 -2.58,1.16 -3.79,-0.47 -6.64,-8.85 -14.69,-16.53 -20.38,-26.12 -6.64,-11.22 -8.06,-22.64 -3.95,-34.23 -10.27,6.42 -20.22,13.32 -29.86,20.59l0.11 -0.16zm175.3 -77.2c-4.32,0.79 -8.58,1.63 -12.79,2.58 -1.21,0.42 -2.37,0.9 -3.58,1.42 -10.11,4.42 -15.48,12.32 -16.17,23.38 -1.21,19.27 13.37,31.86 30.65,26.01 -2.74,7.06 -8.06,10.85 -14.69,12.79 -6.95,2.05 -14.01,1.53 -21.01,0.16 -25.12,-5 -41.13,-19.96 -45.55,-41.81 -9.9,4.05 -19.59,8.53 -29.07,13.32 6.37,18.8 19.17,33.02 35.33,44.92 18.53,13.58 39.39,22.64 60.5,31.23 24.85,10.11 44.02,26.22 54.5,51.55 3,7.32 4.53,15.01 6.21,22.7 2,-36.7 -14.9,-66.08 -36.81,-93.47 1.53,-1.16 2.84,-2 4,-3.05 16.53,-14.43 26.49,-32.17 26.38,-54.55 -0.11,-18.53 -9.64,-31.96 -24.91,-35.81 -3.63,-0.9 -7.21,-1.37 -10.74,-1.37 -0.74,0 -1.47,0 -2.21,0.05l-0.06 -0.05z"/>
  <path class="fil6" d="M614.03 55.87c7.69,13.85 7.79,27.59 -0.21,41.34 -4.11,7.06 -9.53,13.11 -14.8,19.27 -2.32,2.74 -4.11,6.9 -7.06,8.06 -3.47,1.37 -6.32,-3.05 -9.53,-4.79 -27.7,-14.9 -63.24,-5.48 -85.88,11.32 1.63,0.21 3.05,0 4.63,-0.47 6.95,-2.16 14.06,-3.42 21.33,-3.95 19.75,-1.37 37.54,3.84 53.55,15.48 1.53,1.11 3.26,2 1.84,4.48 -4.53,7.9 -7.43,16.48 -9.85,26.07 -12.95,-18.11 -30.12,-27.22 -51.39,-27.7 -20.59,-0.42 -39.28,6.06 -55.97,18.22 0.21,0.32 0.42,0.58 0.68,0.9 6.27,-1.9 12.64,-3.26 19.17,-4.32 41.28,-6.37 80.78,21.54 87.99,62.56 1.58,9 3.63,17.9 6.53,26.59 3.53,10.58 7.63,20.96 13.95,30.7 6.06,-15.22 13.85,-28.28 29.49,-35.07 -9.64,-9.64 -15.85,-20.9 -19.96,-33.33 -7.16,-21.64 -7.11,-42.49 7.74,-61.29 3.74,-4.69 8.37,-8.74 12.53,-13.06 8.9,-9.21 17.11,-18.9 23.12,-30.38 2.63,-5.06 3.26,-10.74 5.74,-15.74l0 -13.48c-0.74,-3.47 -1.79,-6.79 -3.11,-10.06 -12.01,-7.85 -24.49,-15.06 -37.33,-21.59 2.53,3.26 4.79,6.64 6.85,10.27l-0.05 -0zm-179.87 -9.64c0.53,21.54 10.43,39.07 27.01,52.55 3.16,2.58 2.95,3.63 0.58,6.53 -15.48,18.9 -27.38,39.76 -32.54,63.92 -1.69,7.85 -2.58,15.8 -1.21,23.85 1.63,-7.48 3.42,-14.8 6.37,-21.85 10.9,-25.59 30.86,-41.34 56.03,-51.34 19.43,-7.74 38.44,-16.22 55.66,-28.28 19.96,-13.95 35.33,-31.28 40.65,-55.82 -9.9,-4.37 -19.96,-8.42 -30.28,-12.06 -0.16,1.74 -0.32,3.53 -0.63,5.27 -4.53,28.12 -34.86,49.5 -63.19,44.92 -8.06,-1.32 -14.8,-4.79 -18.48,-13.17 14.32,2.58 20.59,0.11 26.38,-9.95 9.64,-16.85 2.26,-35.81 -16.11,-41.65 -5.37,-1.69 -10.53,-2.53 -15.38,-2.53 -20.85,0 -35.49,15.22 -34.86,39.54l0 0.06z"/>
  <path class="fil7" d="M264.28 539.84c6.95,1.16 13.32,4.95 18.96,11.37 11.58,13.22 18.59,28.96 24.06,45.39 3.16,9.43 -2.53,16.48 -12.53,16.32 -4.74,-0.05 -8.9,-2.16 -13.37,-3.47 -0.37,2.05 1.11,2.63 2.05,3.47 6.64,5.9 14.48,8.53 23.22,8.69 3.26,0.05 6.53,0.21 9.74,1.11 9.48,2.58 13.48,10.22 16.48,18.48 3.9,10.74 8.58,21.06 14.74,30.65 6.06,9.37 13.11,17.85 23.22,23.12 3.84,2 8.06,3.37 12.06,5l6.22 -0c2.48,-2.05 5.95,-0.63 8.32,-2.58 -14.69,-5.06 -22.06,-10.22 -32.44,-22.59 -4.79,-5.69 -9.06,-11.74 -13.06,-18.01 -13.11,-20.64 -21.69,-43.39 -31.28,-65.72 -6.48,-15.06 -13.17,-30.07 -25.38,-41.65 -6.95,-6.64 -16.01,-10.37 -24.64,-10.37 -2.21,0 -4.37,0.26 -6.42,0.74l0.05 0.06z"/>
  <path class="fil8" d="M536.94 539.63c-12.64,2.42 -21.06,10.58 -28.07,20.54 -8.11,11.48 -13.58,24.38 -18.9,37.28 -9.9,24.06 -19.8,48.18 -35.33,69.35 -10.06,13.69 -21.22,26.22 -38.86,30.54 2.16,1.58 4.95,0.79 6.69,2.68l6.22 -0c0.32,-0.32 0.63,-0.9 1,-0.95 9.06,-0.74 16.38,-5.16 22.85,-11.11 13.8,-12.79 21.54,-29.33 28.01,-46.55 5.74,-15.32 10.9,-19.01 27.12,-19.8 9.74,-0.47 18.27,-3.69 25.8,-12.43 -5.53,1.37 -9.37,3.42 -13.69,3.69 -11.11,0.58 -16.8,-6.64 -13.27,-17.27 3.74,-11.16 8.37,-21.91 14.59,-31.91 6.53,-10.48 13.95,-20.06 26.49,-24.22 -1.95,-0.11 -3.84,-0.26 -5.79,-0.26 -1.58,0 -3.16,0.11 -4.79,0.42l-0.06 -0z"/>
  <path class="fil9" d="M516.35 284.29c-15.8,2.58 -29.22,8.58 -37.65,23.38 -3.58,6.27 -9.11,11.27 -15.43,15.11 -9.43,5.69 -16.85,3.21 -21.22,-6.9 -0.84,-1.9 -0.9,-4.26 -3.53,-6.79 0,6.69 -0.21,12.16 0,17.69 0.53,12.27 0.84,24.59 8.32,35.23 0.79,1.11 0.9,2.11 0.21,3.32 -4.32,7.63 -3.69,15.64 -1.69,23.64 4.26,16.96 6.74,34.23 7.85,51.66 0.42,6.74 -0.16,13.53 -3.16,19.75 -2.37,4.9 -7.32,6.64 -12.27,4.74 -4.16,-1.58 -5.48,-5.21 -3.9,-10.9 0.47,-1.74 1.16,-3.42 1.84,-5.42 -6.58,2.48 -10.37,8.74 -10.22,16.17 0.16,7.06 3.26,11.16 10.06,13.22 18.8,5.69 24.38,21.01 13.74,37.49 -7.95,12.32 -12.69,26.07 -17.27,39.97 0.47,0 0.68,0.11 0.79,0.05 0.42,-0.26 0.9,-0.47 1.16,-0.9 10.16,-15.27 25.17,-18.8 42.13,-17.38 3.26,0.26 7.85,0.05 8.9,3.9 0.95,3.47 -2.42,6.11 -5.11,8.32 -0.11,0.11 0,0.53 0.05,0.9 4.05,0.26 7.37,-1.74 10.58,-3.63 3.84,-2.32 8.42,-5 6.95,-10.32 -1.42,-5.06 -6.64,-4.69 -10.95,-4.9 -0.37,0 -0.68,0 -1.05,0 -5.69,0.16 -9.95,-2.37 -13.06,-7 -3.84,-5.74 -5.58,-12.22 -6.64,-18.9 -4.74,-30.59 -3.53,-61.29 -1.69,-92.04 0.68,-11.37 5.32,-20.48 12.11,-29.01 14.06,-17.8 31.65,-31.75 49.76,-45.07 1.42,-1.05 3.47,-1.53 4,-3.84 -4.32,-0.16 -7.74,3 -12.69,3.05 7.37,-12.32 14.38,-24.17 21.43,-36.02 -11.32,8.37 -21.54,17.85 -33.96,24.33 -0.42,0.05 -0.84,0.11 -1.26,0.21 0.16,-0.42 0.37,-0.79 0.53,-1.21 3.95,-14.95 13.64,-24.7 27.59,-30.8 8.27,-3.58 16.27,-7.74 24.38,-11.58 -6.11,-0.74 -12.16,-1.16 -18.22,-1.16 -7.21,0 -14.43,0.58 -21.59,1.74l0.16 -0.05z"/>
  <path class="fil10" d="M255.97 283.08c11.53,5.58 21.64,10.32 31.65,15.38 11.74,6 18.43,15.96 22.06,28.75 -2.58,-0.16 -3.95,-1.58 -5.53,-2.48 -10.16,-5.95 -18.69,-14.11 -27.96,-21.33l0 0c-0.16,-0.63 -0.47,-0.95 -1.16,-0.84 -0.74,0.53 -0.11,1 0.21,1.47 6.48,11.58 14.11,22.49 20.27,34.81 -5,-0.21 -8.48,-3.69 -13.53,-2.9 3.26,2.37 6.06,4.26 8.79,6.32 17.85,13.37 35.17,27.38 48.5,45.6 4.58,6.27 8.58,12.79 9.32,20.96 2.16,23.43 2.84,46.86 1.63,70.35 -0.68,13.27 -1.42,26.59 -6.11,39.23 -3.16,8.42 -8.42,14.27 -18.48,13.43 -1.37,-0.11 -2.79,0.11 -4.11,0.42 -2.58,0.63 -5.11,1.58 -5.9,4.42 -0.79,2.84 0.63,5.06 2.58,6.9 4.05,3.95 9.11,6.11 14.53,7.37 0.16,-0.16 0.37,-0.37 0.53,-0.53 -0.63,-0.79 -1.21,-1.63 -1.84,-2.42 -5.42,-6.37 -4.69,-9 3.74,-10.16 18.69,-2.63 34.81,1.63 45.86,19.48 -0.16,-1.63 0,-2.53 -0.26,-3.26 -4.42,-13.43 -9.16,-26.75 -16.96,-38.75 -10.37,-16.01 -4.53,-31.59 13.9,-37.07 6.9,-2.05 10.27,-6.58 10.22,-13.69 0,-7.43 -4.48,-14.16 -10.16,-15.17 0.68,2 1.53,3.9 1.95,5.85 1.63,7.43 -3.47,12.27 -10.74,10.22 -3.69,-1.05 -5.53,-4 -6.69,-7.37 -2.05,-5.95 -2.48,-12.16 -2.05,-18.38 1.05,-17.11 3.63,-33.96 7.74,-50.6 1.32,-5.27 2.95,-10.95 0.95,-15.8 -2.95,-7.11 -1.21,-12.64 1.58,-19.32 5.9,-13.95 4.48,-28.96 3.53,-43.81 -0.95,1.42 -1.63,2.9 -2.21,4.42 -4.53,11.9 -12.53,14.53 -23.12,7.37 -6.85,-4.63 -12.32,-10.64 -16.53,-17.64 -5.63,-9.32 -14.06,-14.32 -24.12,-17.38 -12.37,-3.74 -25.12,-4.37 -37.91,-4.58 -0.26,0 -0.47,0 -0.74,0 -4,0 -8.11,0.47 -13.48,0.79l0.05 -0.06z"/>
  <path class="fil11" d="M570.85 306.83c-1.9,16.8 -5.74,32.91 -15.96,46.97 -4.79,6.58 -9,14.11 -9.58,22.12 -0.9,12.43 -6.9,22.01 -13.53,31.7 -1.47,2.11 -2.74,4.37 -4,6.64 -12.9,22.7 -24.96,45.76 -30.17,71.67 -2.26,11.16 -1.42,21.96 5.69,31.59 4.32,5.9 10.43,8.79 16.96,11.11 1,0.37 1.63,0 2.05,-0.9 0.21,-0.42 0.26,-0.53 -0.95,-1.16 -11.95,-6.37 -14.01,-17.54 -13.11,-29.28 2.16,-29.01 14.22,-54.08 32.7,-76.19 10.53,-12.64 22.64,-23.48 37.39,-33.49 -2.68,0 -3.95,0 -5.27,0 -9.85,-0.37 -13.27,-5.16 -10.37,-14.69 1.9,-6.21 5.48,-11.48 9.48,-16.48 3.47,-4.32 7,-8.58 9.48,-13.53 7.43,-14.85 11.11,-29.91 3.69,-46.18 -3.84,-8.42 -6.53,-17.38 -9.9,-26.07 -1.42,-3.58 -2.16,-7.48 -4.9,-10.64 1.84,15.64 2.05,31.23 0.26,46.81l0.05 0z"/>
  <path class="fil12" d="M240.43 264.02c-4.74,12.74 -9.37,25.54 -14.32,38.23 -1.63,4.16 -2.21,8.27 -2.05,12.64 0.58,14.9 6,27.8 15.38,39.28 5.48,6.69 10.85,13.53 12.01,22.54 0.84,6.58 -2.21,10.27 -8.74,10.74 -2.11,0.16 -4.21,0.26 -7.11,0.42 2.16,1.53 3.53,2.48 4.9,3.53 34.02,25.22 57.66,57.13 64.29,99.99 2.63,17.11 -1.84,29.22 -14.38,36.18 10.43,0.47 19.64,-6.69 24.12,-18.01 4.21,-10.74 2.42,-21.48 -0.58,-32.02 -8.58,-30.38 -23.8,-57.55 -41.13,-83.67 -1.32,-2 -2.74,-3.74 -2.84,-6.42 -0.42,-13.37 -5.37,-25.17 -12.9,-36.02 -3.05,-4.42 -5.63,-9.11 -7.53,-14.11 -6.37,-17.06 -8.11,-34.86 -7.95,-52.92 0.05,-8 0.68,-16.01 1.11,-24.12 -1.05,1.16 -1.74,2.48 -2.21,3.84l-0.06 -0.1z"/>
  <path class="fil13" d="M454.85 558.8c-5.53,5.85 -8.9,13.06 -12.79,19.96 -3.11,5.53 -5.74,11.32 -10.16,16.22 2.79,0.84 3.95,-0.95 5.21,-2.21 6.16,-6.06 12.11,-12.27 18.38,-18.22 3.95,-3.74 8.16,-6.53 14.38,-5.06 4.95,1.16 7,-1.95 5.11,-6.79 -2.26,-5.95 -6.11,-9 -10.37,-9 -3.11,0 -6.53,1.69 -9.74,5.06l0 0.05z"/>
  <path class="fil14" d="M380.85 595.75l0.01 -0.01c-5.73,-9.31 -10.21,-19.15 -15.89,-28.31 -1.9,-3.05 -4,-6.06 -6.42,-8.69 -3.21,-3.42 -6.53,-5.11 -9.58,-5.11 -4.05,0 -7.74,2.9 -10.27,8.58l-0 0c-0.9,2 -1.26,4.05 -0.16,5.95 1.26,2.21 3.63,1.84 5.58,1.32 4.69,-1.21 8.48,0.32 11.85,3.32 2.16,1.95 4.32,3.95 6.37,6 5.89,5.94 11.36,12.31 18.51,16.94z"/>
  <path class="fil15" d="M458.9 163.82c0.68,1.11 1.58,0.58 2.42,0.26 -0.21,-0.32 -0.47,-0.58 -0.68,-0.9 -0.58,0.21 -1.16,0.42 -1.74,0.63z"/>
  <path class="fil16" d="M274.29 301.78c0,0 -0.16,0.32 -0.11,0.42 0.21,0.47 0.53,0.53 0.84,0.26 0,-0.42 -0.16,-0.74 -0.53,-0.74 -0.05,0 -0.16,0 -0.21,0l0 0.05z"/>
  <path class="fil17" d="M275.03 302.46c0,0 0,0 0,0l0.11 0c0,0 -0.05,0 -0.11,0zm0.11 0c0,0 0,0 0.05,0l-0.05 0z"/>
  <path class="fil18" d="M275.02 302.49l-0.01 0.01 0.02 0.02 0 0c0,0 0,0 0,0 0,0 0,0 0,0 0,0 0,-0.05 0.11,-0.11l-0.12 0.08z"/>
  <path class="fil19" d="M332.79 550.9c0.42,0.53 0.84,0.79 1.42,0.21 -0.32,-0.26 -0.58,-0.47 -0.9,-0.74 -0.16,0.16 -0.37,0.37 -0.53,0.53l0 -0z"/>
  <path class="fil20" d="M154.55 164.51l0.02 -0.02c-0.68,-1.28 -13.92,-26.23 -19.77,-54.34 -4.32,4 -8.58,8.06 -12.74,12.22 6.42,14.36 16.78,28.51 32.5,42.14z"/>
 </g>
</svg>
