<?xml version="1.0" encoding="UTF-8"?>
<!DOCTYPE svg PUBLIC "-//W3C//DTD SVG 1.1//EN" "http://www.w3.org/Graphics/SVG/1.1/DTD/svg11.dtd">
<!-- Creator: CorelDRAW -->
<svg xmlns="http://www.w3.org/2000/svg" xml:space="preserve" width="41.9364mm" height="41.9364mm" version="1.1" style="shape-rendering:geometricPrecision; text-rendering:geometricPrecision; image-rendering:optimizeQuality; fill-rule:evenodd; clip-rule:evenodd"
viewBox="0 0 834.61 834.61"
 xmlns:xlink="http://www.w3.org/1999/xlink"
 xmlns:xodm="http://www.corel.com/coreldraw/odm/2003">
 <defs>
  <style type="text/css">
   <![CDATA[
    .fil3 {fill:url(#id0);fill-rule:nonzero}
    .fil2 {fill:url(#id1);fill-rule:nonzero}
    .fil0 {fill:url(#id2);fill-rule:nonzero}
    .fil1 {fill:url(#id3);fill-rule:nonzero}
    .fil4 {fill:url(#id4);fill-rule:nonzero}
   ]]>
  </style>
  <linearGradient id="id0" gradientUnits="userSpaceOnUse" x1="-7695.38" y1="-3795.36" x2="-7695.38" y2="-3795.36">
   <stop offset="0" style="stop-opacity:1; stop-color:#E5D28B"/>
   <stop offset="1" style="stop-opacity:1; stop-color:#A47E33"/>
  </linearGradient>
  <linearGradient id="id1" gradientUnits="userSpaceOnUse" xlink:href="#id0" x1="-7717.74" y1="-3469.53" x2="-7717.74" y2="-3469.53">
  </linearGradient>
  <linearGradient id="id2" gradientUnits="userSpaceOnUse" xlink:href="#id0" x1="1628.35" y1="-16063.57" x2="1628.37" y2="-16063.59">
  </linearGradient>
  <linearGradient id="id3" gradientUnits="userSpaceOnUse" xlink:href="#id0" x1="-6128.11" y1="-5001.53" x2="-6128.11" y2="-5001.54">
  </linearGradient>
  <linearGradient id="id4" gradientUnits="userSpaceOnUse" xlink:href="#id0" x1="-9710.44" y1="-2015.02" x2="-9710.44" y2="-2015.02">
  </linearGradient>
 </defs>
 <g id="Layer_x0020_1">
  <metadata id="CorelCorpID_0Corel-Layer"/>
  <path class="fil0" d="M834.61 417.31l0 0c0,230.48 -186.83,417.31 -417.31,417.31 -230.48,0 -417.31,-186.83 -417.31,-417.31 0,-230.48 186.83,-417.31 417.31,-417.31 230.48,0 417.31,186.83 417.31,417.31l0 0c0,-230.48 -186.83,-417.31 -417.31,-417.31 -230.48,0 -417.31,186.83 -417.31,417.31 0,230.48 186.83,417.31 417.31,417.31 230.48,0 417.31,-186.83 417.31,-417.31l0 0z"/>
  <path class="fil1" d="M559.64 659.37c-1.95,0.11 -43.76,3.16 -62.98,40.23 -13.32,25.64 -10.37,57.08 7.43,80.46 -1.58,1.69 -19.22,21.12 -19.96,49.18 42.86,-6.9 83.51,-20.33 120.95,-39.23 -5.32,-2.26 -10,-4.9 -13.95,-7.85 -9.32,-7 -15.59,-18.27 -16.8,-29.65 -0.58,-5.37 -0.95,-13.58 5.85,-23.91 6.79,-10.37 20.9,-12.95 25.85,-13.37 25.7,-2.11 39.54,12.16 45.5,19.9 -25.43,-9.58 -37.76,1.32 -41.92,7.63 -6.53,9.85 -1.53,23.91 4.79,30.01 2.53,2.42 6.32,4.53 11.11,6.21 1.16,-0.68 2.32,-1.37 3.47,-2.05 -5.48,-1.58 -9.85,-3.74 -12.48,-6.32 -5.37,-5.21 -9.79,-18.33 -4.16,-26.8 3.84,-5.79 17.22,-14.74 42.65,-4 -0.42,-7.85 -2.79,-32.28 -21.85,-53.18 -22.27,-24.49 -52.29,-27.59 -66.24,-27.59 -3.69,0 -6.21,0.21 -7.21,0.32l-0.05 0zm1.53 -48.39c-92.15,12.32 -130.54,99.63 -134.59,109.53 -18.33,44.6 -17.27,85.62 -12.32,114.11 1,0 2,0 3,0l0 0c-4.95,-28.07 -6.11,-68.67 12.11,-112.95 4,-9.74 41.7,-95.62 132.22,-107.68 78.67,-10.53 120.16,12.74 141.07,34.12 13.06,13.32 21.75,29.8 25.49,47.65 0.84,-0.95 1.63,-1.84 2.48,-2.79 -4.11,-17.54 -12.85,-33.75 -25.8,-46.97 -17.74,-18.17 -49.92,-37.65 -106.05,-37.65 -11.48,0 -24.01,0.84 -37.6,2.63l-0 0zm-326.05 -431.89c0,0 0.16,-0.11 0.26,-0.16 -0.11,0 -0.16,0.11 -0.26,0.16zm394.56 142.54c-1.63,-13.64 2.05,-25.59 14.53,-40.23 9.69,-11.43 21.54,-17.32 31.65,-20.64 19.22,-6.32 36.6,-1.53 45.55,1.84 1.37,1.63 2.74,3.11 4,4.42 -15.48,-3.69 -45.02,-7.21 -57.5,15.38 -5.11,9.32 -6.32,17.74 -3.53,25.06 2.9,7.69 9.43,12.16 13.37,14.22 3.05,1.63 8.37,5.06 8.9,10 1.32,12.53 -13.74,18.96 -25.01,19.17 -0.21,0 -0.42,0 -0.63,0 -14.85,0 -28.91,-9.37 -31.33,-29.22l0.01 -0zm71.56 -190.72c-1.26,2.95 -5.06,12.11 -7.48,24.75 -1.63,8.48 -5.79,31.65 2.16,59.77 1.26,4.32 2.68,8.42 4.26,12.27 -17.59,-7.9 -43.65,-18.75 -79.2,-12.48 -6.21,1.11 -42.71,10.79 -58.24,50.02 -16.69,42.18 8.53,78.93 10,80.93 2.58,4.16 23.91,34.86 64.14,40.02 41.76,5.37 65.14,-12.37 73.09,-25.17 10.64,-17.17 5.21,-34.65 -6.21,-40.28 -7.37,-3.63 -16.53,-2.16 -21.8,-0.68 -0.68,-0.26 -11.01,-4.32 -14.59,-13.8 -2.42,-6.42 -1.26,-13.95 3.37,-22.38 12.79,-23.28 47.08,-15.9 59.13,-12.43 0.11,0.11 0.21,0.21 0.32,0.32 1.84,1.74 38.23,35.44 86.57,23.96 -20.8,-68.45 -58.71,-129.48 -108.79,-178.03 -2.42,4.11 -4.63,8.53 -6.64,13.17l-0.11 0.06zm-596.44 250.59c-1.58,-115.95 52.55,-206.2 138.33,-243.54 2.48,-1.11 5,-2.11 7.53,-3.11 0.68,-0.26 1.42,-0.53 2.11,-0.79 2,-0.79 4.05,-1.53 6.11,-2.21 0.58,-0.21 1.16,-0.42 1.74,-0.63 5.32,-1.79 10.69,-3.37 16.22,-4.79 0.58,-0.16 1.11,-0.26 1.69,-0.42 3.42,-0.84 6.9,-1.63 10.43,-2.32 0.16,0 0.26,0 0.42,-0.11 3.74,-0.74 7.53,-1.37 11.37,-1.9 2,-0.32 4,-0.58 6,-0.79 0.16,0 0.26,0 0.37,0 1.63,-0.21 3.26,-0.37 4.9,-0.53 0.74,-0.05 1.53,-0.16 2.26,-0.21 1.32,-0.11 2.58,-0.21 3.9,-0.32 1.05,-0.05 2.11,-0.16 3.16,-0.21 1.16,-0.05 2.32,-0.16 3.47,-0.21 1.16,-0.05 2.32,-0.11 3.53,-0.11 1.16,0 2.26,-0.05 3.42,-0.11 1.21,0 2.37,0 3.58,0 1.16,0 2.26,0 3.42,0 1.21,0 2.48,0 3.69,0.05 1.11,0 2.21,0 3.32,0.11 2.32,0.11 4.63,0.21 7,0.32 26.33,1.63 51.81,7.58 75.72,17.32 0.11,0 0.26,0.11 0.42,0.16 5.85,2.37 11.64,5.06 17.32,7.85 -0,0.01 0.01,0.01 0.05,0.01 19.96,10.74 37.07,26.07 50.08,44.39 16.85,23.8 26.7,52.87 26.7,84.25 0,61.61 -38.12,114.32 -92.04,135.8l0 0c0,0 -5.11,1.69 -13.27,3.47 -16.06,3.53 -44.13,7.06 -70.14,-3.9 -24.01,-10.06 -37.96,-26.86 -44.13,-35.33 -1.74,-2.48 -5.21,-7.85 -7.53,-15.48 -1.42,-4.63 -2.48,-10.11 -2.42,-16.27 0.11,-13.58 5.37,-23.48 7.95,-27.8 0.74,-0.84 13.27,-14.69 28.59,-11.9 12.16,2.26 22.59,14.22 24.43,29.86l0 0c-2.48,-5.58 -6.74,-9.74 -11.85,-11.85 -7.85,-3.26 -17.64,-1.05 -23.85,5.42 -7.48,7.79 -8.48,19.43 -2.68,32.02 25.64,55.61 96.41,39.86 97.31,39.6 38.49,-15.32 84.36,-47.55 84.36,-114.06 0,-28.07 -8.53,-55.03 -24.7,-77.83 -12.01,-17.01 -28.01,-31.17 -46.34,-41.07l-15.85 -7.16c0,0 -0.37,-0.21 -0.47,-0.21 -22.43,-9.11 -45.86,-14.48 -69.72,-15.96 -36.33,-2.21 -70.35,3.42 -100.94,16.85 -74.98,32.65 -117.06,115.64 -115.58,227.64 1.26,95.2 49.39,164.71 89.46,206.2 52.82,54.6 112.53,84.09 150.81,93.52 0.16,0 12.01,3.05 26.43,5.53 -4.69,7.63 -8.58,14.74 -11.69,21.01 0,0 0,0 0,0 -128.27,-19.69 -272.03,-144.28 -274.55,-330.27l0.16 0zm170.19 -356.64c-0.84,22.38 1.37,47.76 6.64,76.25 -14.74,-19.32 -24.75,-42.49 -28.17,-67.72 -15.22,6.53 -30.01,13.9 -44.28,22.12 12.22,20.85 28.01,39.39 46.5,54.76l-0 -0c-119.9,31.17 -198.41,143.44 -196.41,292.88 2.79,205.15 155.18,345.32 297.78,376.29 -0.63,11.9 -0.42,24.27 0.84,37.28 0.47,4.69 1,9.37 1.63,13.95 11.16,1.53 22.43,2.63 33.86,3.26 -0.68,-5.21 -1.16,-10.37 -1.42,-15.43 -0.42,-16.06 0.53,-31.12 2.9,-45.65 0.21,-1.21 0.42,-2.37 0.63,-3.53 0.11,-0.63 0.21,-1.26 0.37,-1.9 0.26,-1.42 0.58,-2.79 0.84,-4.11 0.21,-1 0.42,-2 0.63,-2.95 0.63,-2.74 1.26,-5.42 1.95,-7.95 0.05,-0.26 0.16,-0.53 0.21,-0.79 0.26,-1.05 0.58,-2.11 0.84,-3.11 1,-3.47 2,-6.74 3,-9.64 8.69,-25.28 22.54,-50.02 42.65,-76.88 47.65,-63.5 123.11,-80.2 218.42,-60.34 48.81,10.16 72.09,42.02 83.15,70.67 6.16,-7.95 12.06,-16.17 17.64,-24.59 -12.01,-16.59 -24.06,-30.65 -35.12,-42.39 70.93,-8.48 69.88,-47.13 64.61,-70.4 -0.21,-0.95 -0.53,-1.95 -0.9,-2.95l0 0c0,0 -7.16,-24.27 -40.28,-33.54 -3.84,-1.05 -13.43,-3.47 -16.17,-4.16 4.9,3.32 8.95,7.79 11.74,13.06 2.79,5.21 4.37,11.16 4.37,17.48 0,4 -0.63,7.9 -1.84,11.53 -2.79,8.48 -8.53,15.59 -16.01,20.11 -0.05,0 -0.11,0.05 -0.16,0.11 -19.32,12.74 -66.14,6.11 -140.44,11.22 -111.9,7.69 -172.77,73.09 -202.52,120.32 -14.8,-2.53 -27.22,-5.69 -27.38,-5.69 -81.88,-20.06 -235.85,-127.8 -238.17,-297.04 -1.47,-110.74 40.02,-192.78 113.9,-224.95 30.22,-13.22 63.77,-18.8 99.68,-16.64 23.54,1.47 46.65,6.74 68.82,15.74l16.06 7.32c17.9,9.64 33.54,23.54 45.34,40.18 15.8,22.38 24.17,48.71 24.17,76.19 0,64.93 -44.86,96.41 -82.36,111.37 -0.68,0.16 -69.19,15.43 -93.89,-38.07 -5.32,-11.43 -4.53,-21.96 2.16,-28.86 5.42,-5.69 13.95,-7.63 20.69,-4.79 7.32,3.05 12.79,11.06 12.59,22.01 0.95,-0.84 1.84,-1.74 2.79,-2.63 20.06,-19.43 31.49,-44.65 33.91,-70.19 0,-0.11 0,-0.21 0,-0.32 2,-21.43 -2.48,-42.97 -13.53,-61.61 -9.85,-16.53 -23.38,-29.86 -39.54,-38.75 -0.11,0 -0.16,-0.11 -0.21,-0.11 -13.48,-6.85 -28.7,-10.69 -44.81,-10.69 -12.16,0 -23.85,2.21 -34.6,6.21 -0.21,0.05 -0.37,0.16 -0.53,0.21 -1.95,0.74 -3.84,1.53 -5.74,2.37 -0.05,0 -0.11,0.05 -0.21,0.11 -1.79,0.84 -3.58,1.74 -5.32,2.63 -0.21,0.11 -0.42,0.21 -0.63,0.32 -1.74,0.9 -3.37,1.9 -5,2.9 -0.32,0.21 -0.63,0.37 -0.95,0.58 -1.63,1.05 -3.26,2.11 -4.84,3.26 0,0 0,0 0,0 0,0 0.11,-0.11 0.16,-0.16 -0.63,0.47 -1.26,0.95 -1.84,1.42 -0.53,0.37 -1,0.74 -1.53,1.16 -0.63,0.47 -1.26,1 -1.84,1.47 -0.74,0.58 -1.42,1.21 -2.11,1.84 -0.21,0.21 -0.47,0.37 -0.68,0.58 -0.32,0.26 -0.58,0.53 -0.9,0.79 -0.58,0.47 -1.11,1.05 -1.63,1.58 -0.58,0.53 -1.16,1.11 -1.69,1.63 -0.58,0.58 -1.11,1.11 -1.63,1.69 -0.42,0.47 -0.84,0.95 -1.26,1.42 -0.63,0.68 -1.32,1.42 -1.95,2.16 -0.11,0.16 -0.26,0.26 -0.37,0.42 -0.42,0.47 -0.79,0.9 -1.16,1.37 -0.53,0.63 -1,1.26 -1.53,1.84 0,0.05 -0.05,0.11 -0.11,0.16 -2.05,2.58 -3.95,5.37 -5.79,8.27 -0.26,0.42 -0.58,0.84 -0.84,1.32 -0.05,0.11 -0.11,0.21 -0.21,0.37 -2.63,4.37 -5.06,9.06 -7.11,14.22 -0.05,0.16 -0.16,0.37 -0.21,0.53 -7.63,19.32 -8.06,37.65 -5.85,52.55 2.84,19.17 10,32.75 11.64,35.7 -5.95,2.95 -22.85,11.9 -37.39,29.7 -5.9,7.21 -11.43,15.85 -15.69,26.17 -20.69,50.02 6.11,95.42 9.16,100.31 7.9,10 16.43,17.64 25.01,23.59 72.25,49.87 175.3,4.74 230.9,-22.43 10.64,-5.16 21.75,-12.16 28.59,-16.59 54.18,-32.86 90.36,-92.36 90.36,-160.39 0,-40.23 -12.69,-77.56 -34.28,-108.1 -22.27,-31.49 -53.97,-55.82 -91.1,-68.77 -8,-2.84 -16.27,-5.11 -24.75,-6.79 -0.47,-0.11 -1,-0.26 -1.53,-0.32 -13.58,-3 -27.38,-4.9 -41.44,-5.79 -20.85,-1.26 -40.91,-0.42 -60.08,2.37 0,-0.05 -0.11,-0.11 -0.16,-0.16l1.21 -0.21c-5.85,-30.22 -8.27,-56.97 -7.21,-80.35 -1.05,0.37 -2.11,0.74 -3.16,1.11l0.1 -0.01z"/>
  <path class="fil2" d="M745.1 382.76c18.8,8.53 39.28,19.32 60.34,33.23 10.16,6.69 19.75,13.58 28.7,20.64 0.32,-6.37 0.42,-12.85 0.42,-19.32 0,-9.95 -0.37,-19.85 -1.05,-29.65 -1.53,-1.69 -3,-3.32 -4.48,-4.9l-83.94 0 0 0z"/>
  <path class="fil3" d="M639.04 146.18c0,0 0,0 0,0zm-45.71 -59.87c-0.53,2.48 -0.95,4.9 -1.26,7.27 -10.37,-1.16 -21.43,-1.95 -33.07,-2.26 -30.96,-0.84 -58.71,1.95 -82.36,6.11 29.91,1.95 68.88,7.95 111.53,24.49 19.32,7.48 36.28,15.9 50.87,24.27l0 0c0,0 0,0 0,0 -6.32,-10.06 -13.74,-24.22 -18.96,-42.28 -6.37,-22.01 -7,-41.34 -6.32,-54.87 -0.47,-0.26 -1,-0.53 -1.47,-0.79 -7.48,9.11 -15.38,21.8 -18.96,38.02l0 0.05z"/>
  <path class="fil4" d="M451.07 527.77l0.01 0.01c25.43,-10.48 63.08,-22.58 109.88,-26.32 40.81,-3.26 75.35,0.84 100.36,5.79 -17.06,-10.85 -41.86,-24.06 -73.83,-33.17 -29.7,-8.42 -56.24,-10.69 -76.77,-10.69 -4.9,0 -9.43,0.11 -13.64,0.32l-46.01 64.07z"/>
 </g>
</svg>
