<?xml version="1.0" encoding="UTF-8"?>
<!DOCTYPE svg PUBLIC "-//W3C//DTD SVG 1.1//EN" "http://www.w3.org/Graphics/SVG/1.1/DTD/svg11.dtd">
<!-- Creator: CorelDRAW -->
<svg xmlns="http://www.w3.org/2000/svg" xml:space="preserve" width="41.9364mm" height="41.9364mm" version="1.1" style="shape-rendering:geometricPrecision; text-rendering:geometricPrecision; image-rendering:optimizeQuality; fill-rule:evenodd; clip-rule:evenodd"
viewBox="0 0 834.61 834.61"
 xmlns:xlink="http://www.w3.org/1999/xlink"
 xmlns:xodm="http://www.corel.com/coreldraw/odm/2003">
 <defs>
  <style type="text/css">
   <![CDATA[
    .fil2 {fill:url(#id0);fill-rule:nonzero}
    .fil0 {fill:url(#id1);fill-rule:nonzero}
    .fil10 {fill:url(#id2);fill-rule:nonzero}
    .fil20 {fill:url(#id3);fill-rule:nonzero}
    .fil13 {fill:url(#id4);fill-rule:nonzero}
    .fil11 {fill:url(#id5);fill-rule:nonzero}
    .fil26 {fill:url(#id6);fill-rule:nonzero}
    .fil1 {fill:url(#id7);fill-rule:nonzero}
    .fil6 {fill:url(#id8);fill-rule:nonzero}
    .fil5 {fill:url(#id9);fill-rule:nonzero}
    .fil23 {fill:url(#id10);fill-rule:nonzero}
    .fil21 {fill:url(#id11);fill-rule:nonzero}
    .fil7 {fill:url(#id12);fill-rule:nonzero}
    .fil25 {fill:url(#id13);fill-rule:nonzero}
    .fil4 {fill:url(#id14);fill-rule:nonzero}
    .fil19 {fill:url(#id15);fill-rule:nonzero}
    .fil3 {fill:url(#id16);fill-rule:nonzero}
    .fil27 {fill:url(#id17);fill-rule:nonzero}
    .fil17 {fill:url(#id18);fill-rule:nonzero}
    .fil22 {fill:url(#id19);fill-rule:nonzero}
    .fil24 {fill:url(#id20);fill-rule:nonzero}
    .fil12 {fill:url(#id21);fill-rule:nonzero}
    .fil9 {fill:url(#id22);fill-rule:nonzero}
    .fil8 {fill:url(#id23);fill-rule:nonzero}
    .fil15 {fill:url(#id24);fill-rule:nonzero}
    .fil18 {fill:url(#id25);fill-rule:nonzero}
    .fil16 {fill:url(#id26);fill-rule:nonzero}
    .fil14 {fill:url(#id27);fill-rule:nonzero}
   ]]>
  </style>
  <linearGradient id="id0" gradientUnits="userSpaceOnUse" x1="-3066.63" y1="-6425.79" x2="-3066.63" y2="-6425.79">
   <stop offset="0" style="stop-opacity:1; stop-color:#E5D28B"/>
   <stop offset="1" style="stop-opacity:1; stop-color:#A47E33"/>
  </linearGradient>
  <linearGradient id="id1" gradientUnits="userSpaceOnUse" xlink:href="#id0" x1="1632.47" y1="-14858.77" x2="1632.5" y2="-14858.78">
  </linearGradient>
  <linearGradient id="id2" gradientUnits="userSpaceOnUse" xlink:href="#id0" x1="-3337.07" y1="-5903.15" x2="-3337.07" y2="-5903.15">
  </linearGradient>
  <linearGradient id="id3" gradientUnits="userSpaceOnUse" xlink:href="#id0" x1="-2015.17" y1="-6971.38" x2="-2015.17" y2="-6971.39">
  </linearGradient>
  <linearGradient id="id4" gradientUnits="userSpaceOnUse" xlink:href="#id0" x1="-4038.2" y1="-5624.92" x2="-4038.2" y2="-5624.93">
  </linearGradient>
  <linearGradient id="id5" gradientUnits="userSpaceOnUse" xlink:href="#id0" x1="-3308.59" y1="-6080.58" x2="-3308.59" y2="-6080.58">
  </linearGradient>
  <linearGradient id="id6" gradientUnits="userSpaceOnUse" xlink:href="#id0" x1="-5308.6" y1="-4668.05" x2="-5308.6" y2="-4668.06">
  </linearGradient>
  <linearGradient id="id7" gradientUnits="userSpaceOnUse" xlink:href="#id0" x1="-4528.96" y1="-5111.48" x2="-4528.96" y2="-5111.48">
  </linearGradient>
  <linearGradient id="id8" gradientUnits="userSpaceOnUse" xlink:href="#id0" x1="-4951.01" y1="-4791.06" x2="-4951.01" y2="-4791.06">
  </linearGradient>
  <linearGradient id="id9" gradientUnits="userSpaceOnUse" xlink:href="#id0" x1="-2391.25" y1="-6646.4" x2="-2391.25" y2="-6646.4">
  </linearGradient>
  <linearGradient id="id10" gradientUnits="userSpaceOnUse" xlink:href="#id0" x1="-4935.81" y1="-4944.08" x2="-4935.81" y2="-4944.09">
  </linearGradient>
  <linearGradient id="id11" gradientUnits="userSpaceOnUse" xlink:href="#id0" x1="-4419.37" y1="-5072.38" x2="-4419.37" y2="-5072.38">
  </linearGradient>
  <linearGradient id="id12" gradientUnits="userSpaceOnUse" xlink:href="#id0" x1="-2753.19" y1="-6194.41" x2="-2753.19" y2="-6194.41">
  </linearGradient>
  <linearGradient id="id13" gradientUnits="userSpaceOnUse" xlink:href="#id0" x1="-2406.95" y1="-6652.02" x2="-2406.95" y2="-6652.02">
  </linearGradient>
  <linearGradient id="id14" gradientUnits="userSpaceOnUse" xlink:href="#id0" x1="-3719.76" y1="-5877.31" x2="-3719.76" y2="-5877.32">
  </linearGradient>
  <linearGradient id="id15" gradientUnits="userSpaceOnUse" xlink:href="#id0" x1="-1729.84" y1="-7143.56" x2="-1729.84" y2="-7143.56">
  </linearGradient>
  <linearGradient id="id16" gradientUnits="userSpaceOnUse" xlink:href="#id0" x1="-3961.15" y1="-5461.19" x2="-3961.15" y2="-5461.19">
  </linearGradient>
  <linearGradient id="id17" gradientUnits="userSpaceOnUse" xlink:href="#id0" x1="-4495.2" y1="-5542.62" x2="-4495.2" y2="-5542.63">
  </linearGradient>
  <linearGradient id="id18" gradientUnits="userSpaceOnUse" xlink:href="#id0" x1="-1708.04" y1="-7134.37" x2="-1708.04" y2="-7134.38">
  </linearGradient>
  <linearGradient id="id19" gradientUnits="userSpaceOnUse" xlink:href="#id0" x1="-2876.19" y1="-6261.47" x2="-2876.19" y2="-6261.47">
  </linearGradient>
  <linearGradient id="id20" gradientUnits="userSpaceOnUse" xlink:href="#id0" x1="-4359.76" y1="-5414.56" x2="-4359.76" y2="-5414.56">
  </linearGradient>
  <linearGradient id="id21" gradientUnits="userSpaceOnUse" xlink:href="#id0" x1="-2702.02" y1="-6234.48" x2="-2702.02" y2="-6234.49">
  </linearGradient>
  <linearGradient id="id22" gradientUnits="userSpaceOnUse" xlink:href="#id0" x1="-3608.09" y1="-5912.95" x2="-3608.09" y2="-5912.96">
  </linearGradient>
  <linearGradient id="id23" gradientUnits="userSpaceOnUse" xlink:href="#id0" x1="-2962" y1="-6348.5" x2="-2962" y2="-6348.51">
  </linearGradient>
  <linearGradient id="id24" gradientUnits="userSpaceOnUse" xlink:href="#id0" x1="-1824.7" y1="-7149.35" x2="-1824.7" y2="-7149.35">
  </linearGradient>
  <linearGradient id="id25" gradientUnits="userSpaceOnUse" xlink:href="#id0" x1="-2360.98" y1="-6848.84" x2="-2360.98" y2="-6848.85">
  </linearGradient>
  <linearGradient id="id26" gradientUnits="userSpaceOnUse" xlink:href="#id0" x1="-1850.14" y1="-7161.5" x2="-1850.14" y2="-7161.5">
  </linearGradient>
  <linearGradient id="id27" gradientUnits="userSpaceOnUse" xlink:href="#id0" x1="-1496.72" y1="-7238.16" x2="-1496.72" y2="-7238.16">
  </linearGradient>
 </defs>
 <g id="Layer_x0020_1">
  <metadata id="CorelCorpID_0Corel-Layer"/>
  <path class="fil0" d="M834.61 417.31l0 0c0,230.48 -186.83,417.31 -417.31,417.31 -230.48,0 -417.31,-186.83 -417.31,-417.31 0,-230.48 186.83,-417.31 417.31,-417.31 230.48,0 417.31,186.83 417.31,417.31l0 0c0,-230.48 -186.83,-417.31 -417.31,-417.31 -230.48,0 -417.31,186.83 -417.31,417.31 0,230.48 186.83,417.31 417.31,417.31 230.48,0 417.31,-186.83 417.31,-417.31l0 0z"/>
  <path class="fil1" d="M494.03 419.67c-1.69,3.53 -6.21,19.43 -3.42,20.11 2.79,0.68 12.32,-5.63 14.64,-8.53 2.26,-2.79 14.8,-29.01 15.85,-31.12 -1.21,-0.63 -2.42,-1.37 -3.63,-2.11 -0.11,0.11 -0.26,0.26 -0.37,0.42 -0.37,0.42 -0.79,0.9 -1.26,1.42 -0.47,0.53 -1,1.16 -1.58,1.79 -1.11,1.32 -2.37,2.84 -3.63,4.48 -2.53,3.26 -5.06,7.06 -7.06,10.43 -0.11,0.21 -0.26,0.42 -0.37,0.63 -0.11,0.21 -0.21,0.42 -0.37,0.63 -0.21,0.42 -0.47,0.79 -0.68,1.16 -0.42,0.79 -0.84,1.47 -1.16,2.11 -0.32,0.63 -0.68,1.26 -0.95,1.74 -0.26,0.53 -0.47,0.95 -0.68,1.26 -0.37,0.63 -0.47,0.68 -0.32,0.32 0.05,-0.21 0.16,-0.53 0.37,-0.9 0.16,-0.42 0.37,-0.9 0.63,-1.47 1.05,-2.32 2.9,-5.85 5.21,-9.43 2.26,-3.58 5.06,-7.21 7.43,-9.95 1.21,-1.37 2.26,-2.58 3.16,-3.42 0.42,-0.42 0.79,-0.84 1.11,-1.11 0.11,-0.11 0.16,-0.16 0.26,-0.21 -1.42,-0.9 -2.9,-1.9 -4.32,-2.95 -2.68,3.32 -17.32,21.54 -18.85,24.75l0 -0.05z"/>
  <path class="fil2" d="M548.95 402.19c-1.37,0.16 -2.79,0.32 -4.11,0.42 -1.05,7.85 -5.69,34.86 -7.11,40.6 -1.79,7.06 5.37,-33.44 6.79,-40.55 -1.42,0.16 -2.84,0.26 -4.26,0.37 -3.16,9.11 -13.8,40.02 -13.74,44.28 0.11,5 2.84,18.75 6.95,18.59 4.16,-0.21 13.06,-13.01 12.85,-17.17 -0.16,-3.42 3.95,-35.96 5.32,-46.86 -0.9,0.11 -1.79,0.21 -2.68,0.32z"/>
  <path class="fil3" d="M507.67 433.37c-1.16,5.06 -4.21,17.9 0.47,19.17 4.69,1.32 14.27,-8.37 17.8,-16.38 3.05,-6.95 8,-27.75 9.16,-32.86 -1.9,0 -3.74,-0.05 -5.42,-0.32 -0.53,0.95 -1.16,2.16 -1.9,3.58 -0.84,1.58 -1.74,3.37 -2.68,5.27 -1.9,3.79 -3.84,8.06 -5.42,11.69 -1.58,3.63 -2.84,6.74 -3.47,8.11 -0.63,1.37 -0.37,0.26 0.47,-2.16 0.84,-2.48 2.32,-6.27 4.11,-10.22 1.79,-3.95 3.84,-8.11 5.63,-11.37 1.11,-2.05 2.16,-3.79 2.84,-4.95 -1.21,-0.21 -2.42,-0.42 -3.47,-0.79 -0.37,-0.11 -0.79,-0.26 -1.16,-0.42 -2.95,5.06 -15.85,27.17 -16.9,31.65l-0.06 0z"/>
  <path class="fil4" d="M528.15 493.82c0.68,4.37 2.53,16.75 4.69,16.85 2.16,0.11 10.32,-4.05 12.06,-7.63 1.69,-3.53 7.74,-24.59 7.74,-24.59l-2.48 -7.48c-0.37,-0.84 -0.74,-1.69 -1.05,-2.63 -1.9,4.11 -11.06,21.22 -13.37,24.54 -2.9,4.21 11.74,-22.59 13.17,-24.7 0,-0.05 0.05,-0.11 0.11,-0.16 -0.32,-0.84 -0.63,-1.74 -0.95,-2.68 -0.37,-1.05 -0.68,-2.16 -1,-3.26 -1.74,2.48 -19.54,27.59 -18.9,31.75l0 -0z"/>
  <path class="fil5" d="M560.69 401.09c-0.16,9.32 -1.53,37.91 -2.21,44.13 -0.9,7.69 1.21,-34.96 1.84,-44.13 -1.63,0.11 -3.26,0.21 -4.9,0.37 -1.79,13.53 -6.06,46.07 -5.9,50.34 0.21,5.37 5.69,24.49 10.06,23.8 4.37,-0.68 9.79,-15.22 12.37,-24.54 2.58,-9.32 -4.32,-31.28 -5.11,-36.02 -0.53,-3.05 -1.11,-9.69 -1.47,-14.06l-0.21 0c-1.47,0 -2.95,0.05 -4.42,0.16l-0.05 -0.05z"/>
  <path class="fil6" d="M508.35 480.6c-0.26,1.95 -3.69,10.58 -2.84,16.01 0,0 0,0.11 0,0.16 0,0 0,0.05 0,0.11 0.42,2.32 1.47,3.26 2.26,3.69 0,0 0,0 0,0 0.16,0.11 0.32,0.21 0.53,0.26 4.16,1.79 16.64,-11.32 16.64,-11.32l14.38 -21.69c-1.16,0.95 -2.37,1.74 -3.63,2.16l-0 0c-0.68,0.26 -1.42,0.37 -2.05,0.42 -1.26,0.05 -3.16,-0.21 -5,-2 -0.37,-0.32 -0.74,-0.74 -1.05,-1.16 -1.05,1.58 -2.68,3.84 -4.37,6.32 -2,2.84 -4.16,6 -6,8.69 -1.84,2.68 -3.42,4.9 -4.21,5.9 -1.58,1.95 1.63,-3.37 5.63,-9.21 2,-2.95 4.21,-6 6,-8.48 1.05,-1.47 2,-2.68 2.68,-3.58 -1.58,-2.21 -2.74,-5.27 -3.58,-8.42 -2.74,3.53 -15.11,19.8 -15.38,22.17l0 -0z"/>
  <path class="fil7" d="M575.01 484.86c-0.11,2.16 -2.95,25.01 -1.9,26.75 1.05,1.74 11.32,16.64 13.8,14.06 2.47,-2.58 6.21,-11.01 6.85,-16.32 0.68,-5.27 -2.58,-27.7 -2.58,-27.7 -2.42,-0.26 -4.58,-1.95 -6.53,-4.26 0.11,2.21 0.16,5.11 0.21,8.32 0.16,8.27 0,18.22 -0.32,21.17 -0.32,2.95 -0.32,-4.42 -0.37,-12.85 0,-6.48 -0.05,-13.58 -0.05,-17.22 -1.21,-1.53 -2.32,-3.26 -3.32,-5 -0.26,-0.47 -0.53,-0.9 -0.79,-1.37l-1.21 -1.26c0,0 -3.69,13.48 -3.74,15.64l-0.05 0.06z"/>
  <path class="fil8" d="M569.43 412.83c0.95,3.9 7.11,40.39 8.79,44.02 1.69,3.58 9.64,21.43 13.9,20.33 4.26,-1.05 6.74,-17.9 6.64,-21.69 -0.05,-3.37 -5.9,-27.91 -9.16,-37.18 -4.32,-9.69 -7.48,-13.01 -9.27,-14.16 -2.42,-1.53 -5.37,-2.37 -8.58,-2.84 0.11,0.16 0.16,0.37 0.26,0.58 0.26,0.63 0.63,1.32 1,2.16 0.37,0.79 0.79,1.69 1.21,2.68 0.84,1.95 1.79,4.16 2.68,6.53 1.84,4.74 3.69,10 5.06,14.59 1.37,4.58 2.32,8.37 2.63,10.16 0.32,1.79 -0.11,0.47 -0.95,-2.48 -0.9,-2.95 -2.26,-7.58 -3.9,-12.48 -1.63,-4.9 -3.58,-10.06 -5.21,-14.16 -1.42,-3.58 -2.63,-6.37 -3.16,-7.63 -0.16,0 -0.37,0 -0.53,-0.05 -0.95,4 -1.95,9.32 -1.37,11.64l-0.05 0z"/>
  <path class="fil9" d="M532.57 540.73c-1.58,4.58 3.95,-19.01 6,-27.22 -0.95,0.42 -1.74,0.79 -2.32,0.95 -1.42,0.53 -2.58,0.74 -3.63,0.68 -0.37,0 -0.74,-0.11 -1.11,-0.16 -2.26,7.58 -6.64,22.7 -6.64,24.54 0,2.53 4.58,17.74 8.06,16.9 3.53,-0.79 8.95,-4.42 10.74,-10.11 1.79,-5.69 2,-30.12 2,-30.12l-6.64 -2.84c-1.47,7.21 -5.27,23.64 -6.53,27.33l0.06 0.05z"/>
  <path class="fil10" d="M546.89 556.58c0.9,2.63 7,15.17 10.79,13.85 3.74,-1.32 10.58,-12.95 11.74,-16.75 1.21,-3.79 0.79,-34.75 0.79,-34.75l-1 0c-2.42,2.68 -5.42,5.06 -8,5.95 -0.68,0.26 -1.42,0.42 -2.05,0.47 -0.53,0 -1.05,0 -1.58,-0.05 -0.37,7.58 -1.63,24.54 -2.32,28.44 -0.84,4.84 1.11,-20.06 1.9,-28.54 -2.63,-0.68 -4.84,-3.11 -7,-6.64l-0.21 -0c0,0 -3.9,35.44 -3,38.07l-0.05 -0.05z"/>
  <path class="fil11" d="M570.75 467.91c-2.42,5.42 -4.69,8.85 -7.11,10.64 -0.37,1.74 -0.84,3.74 -1.32,5.85 -0.95,4.05 -2.11,8.42 -3.16,12.16 -1.05,3.74 -2,6.79 -2.58,8.16 -1.11,2.74 0.9,-4.32 3,-12.48 1.05,-4.05 2.16,-8.42 3,-11.95 0.11,-0.47 0.21,-0.9 0.32,-1.32 -0.47,0.32 -1,0.53 -1.47,0.68 -0.37,0.16 -0.79,0.26 -1.21,0.32 -0.63,0.11 -1.42,0.11 -2.32,-0.11 -1.11,0.95 -1.79,1.47 -1.79,1.47 0,0 -8.11,23.48 -6.95,25.59 1.16,2.11 6.27,14.22 9.53,13.9 3.26,-0.32 9.16,-6.16 10.37,-9.95 1.21,-3.79 4.95,-39.6 4.95,-39.6l-1.74 -7.16c-0.47,1.26 -1,2.53 -1.58,3.79l0.06 -0z"/>
  <path class="fil12" d="M573.38 556.53c1.16,2.11 1.42,18.69 9.27,20.27 6.79,1.37 8.16,-13.8 9.58,-19.32 1.42,-5.53 -1.84,-27.96 -1.84,-27.96l-0.68 -0.32c-0.47,0.42 -1.05,0.74 -1.63,0.95 -1.79,0.63 -3.58,0.32 -5.42,-0.79 0.11,8.58 -0.21,28.17 -0.63,32.7 -0.58,5.69 -0.11,-23.59 0.21,-32.96 -1.95,-1.26 -3.9,-3.32 -6.06,-5.85l-2.21 -0.95c0,0 -1.69,32.12 -0.53,34.28l-0.05 -0.05z"/>
  <path class="fil13" d="M513.25 504.51c-2.95,4.58 -6.53,10.48 -6.79,12.53 -0.42,3.53 0.47,20.43 3.74,20.11 3.26,-0.32 7.9,-1.53 11.64,-7.48 3.26,-5.11 5.32,-15.38 5.85,-18.17 -0.16,-0.32 -0.32,-0.63 -0.47,-1 -0.53,-1.26 -1,-2.9 -1.53,-5.06 -0.42,-1.9 -0.84,-3.95 -1.16,-5.85l-2.58 -0.37c-0.68,1.47 -1.42,3.11 -2.16,4.84 -1.74,4.05 -3.47,8.58 -4.9,12.48 -1.37,3.9 -2.42,7.16 -3,8.64 -0.58,1.47 -0.32,0.32 0.37,-2.26 0.74,-2.58 1.95,-6.64 3.58,-10.85 1.58,-4.21 3.47,-8.64 5.16,-12.11 0.11,-0.26 0.26,-0.53 0.37,-0.74l-0.16 -0c-2.58,2.16 -5.42,4.21 -8,5.37l0.05 -0.11z"/>
  <path class="fil14" d="M569.06 564.22c1.79,19.96 9.21,101.84 10.43,109.16 1.42,8.32 8.64,21.59 11.16,18.8 2.53,-2.79 3.95,-15.9 2.9,-27.49 -0.74,-7.79 -6.32,-53.76 -9.95,-83.25 -0.58,0 -1.21,-0.05 -1.84,-0.16 -1.74,-0.37 -3.26,-1.11 -4.69,-2.26 1.16,9.43 3.58,34.54 3.74,40.18 0.16,7.11 -3.47,-31.17 -4.21,-40.55 -1.74,-1.58 -3.16,-3.84 -4.26,-6.74 -1.16,-3.11 -1.84,-6.48 -2.32,-9.21 -0.32,0.53 -0.63,1.11 -1,1.63l0.05 -0.11z"/>
  <path class="fil15" d="M559.16 574.7c0,0 -0.26,0.11 -0.37,0.11 1.37,13.17 4.95,57.13 5.27,66.66 0.42,11.8 -4.79,-54.29 -5.63,-66.56 -2.48,0.58 -4.74,-0.53 -6.53,-2.05 1.69,24.33 3.79,54.76 4.16,58.34 0.63,6.06 7.79,30.7 10.22,30.44 2.42,-0.21 7.27,-10.74 6.37,-26.22 -0.63,-10.58 -4.42,-45.65 -6.74,-66.61 -3.21,4.21 -5.37,5.37 -6.74,5.9l0 0z"/>
  <path class="fil16" d="M537.42 559.58c0,0 0.05,0.47 0.11,0.79 0.42,3.32 1,8.95 1.42,15.22 0.42,6.27 0.74,13.17 0.79,19.06 0.11,5.9 0,10.79 -0.16,13.01 -0.32,4.42 -0.21,-6.69 -0.68,-19.48 -0.21,-6.37 -0.63,-13.22 -1,-18.69 -0.32,-4.42 -0.63,-8 -0.79,-9.79 -0.53,0.26 -1.05,0.47 -1.53,0.63 -0.53,0.21 -1.05,0.32 -1.53,0.47 -0.79,0.16 -1.58,0.21 -2.37,0 0.37,23.38 1,51.24 1.69,55.61 0.47,2.95 6.85,22.22 9.48,22.54 2.63,0.32 6.06,-8.42 7.37,-13.32 0.79,-3 -1.69,-35.6 -3.69,-59.92 -1.79,-3.11 -3.26,-6.27 -3.74,-7.63 -0.16,-0.37 -0.26,-0.79 -0.37,-1.84 -1.58,1.42 -3.32,2.53 -4.95,3.32l-0.05 0.05z"/>
  <path class="fil17" d="M593.81 570.8c-0.58,1.84 -1.21,3.53 -2.11,5.06 0.05,0.32 0.11,0.63 0.21,1 1,4.84 2.53,12.95 4.05,22.01 1.53,9.06 3.11,19.06 4.26,27.65 1.21,8.58 2.05,15.69 2.32,18.9 0.53,6.53 -1.53,-9.69 -4.37,-28.22 -1.42,-9.27 -3,-19.11 -4.37,-27.07 -1.05,-6.16 -1.9,-11.16 -2.37,-13.85 -1.26,2.16 -2.95,3.79 -5.21,4.58l0 -0c4.48,32.23 8.95,64.45 13.43,96.73 0,0 6.27,30.59 9.11,30.22 2.9,-0.37 8.85,-11.95 6.58,-26.91 -1.9,-12.59 -12.9,-82.46 -16.32,-104.16 -0.47,-0.95 -1,-2 -1.47,-3.11 -0.47,-1.05 -0.95,-2.11 -1.42,-3.11 -0.74,0.11 -1.53,0.16 -2.26,0.26l-0.05 0z"/>
  <path class="fil18" d="M496.29 522.57c-3.16,17.85 -6.42,36.75 -6.37,37.96 0.37,6.79 4.16,21.85 6.85,20.9 2.69,-0.95 9.74,-12.27 10.22,-23.8 0.16,-3.42 0.42,-9.58 0.79,-16.53 -0.63,-0.32 -1.21,-0.68 -1.74,-1.26 -1.26,-1.32 -2.84,-3.9 -3.74,-12.32 -0.26,-2.37 -0.37,-4.9 -0.42,-7 -0.47,1.42 -1,3.32 -1.37,5.53 -0.47,2.48 -0.79,5.27 -1.16,8.27 -1.53,11.95 -3.42,26.33 -4.26,30.54 -0.84,4.21 0.42,-6.42 2,-18.59 0.42,-3.05 0.79,-6.21 1.21,-9.21 0.42,-3.05 0.79,-5.95 1.21,-8.58 0.21,-1.32 0.47,-2.53 0.74,-3.63 0.26,-1.11 0.53,-2.11 0.79,-2.95 0.26,-0.84 0.53,-1.58 0.79,-2.16 0,-0.05 0.05,-0.11 0.11,-0.16 0,-0.11 0,-0.26 0,-0.37 -1.74,1.21 -3.74,2.53 -5.58,3.42l-0.05 -0.05z"/>
  <path class="fil19" d="M616.72 577.49c-2.53,4.74 -4.37,6.74 -5.69,7.69 0.16,0.74 0.42,1.95 0.68,3.42 0.9,4.63 2.26,12.48 3.69,21.22 1.42,8.74 2.84,18.38 4,26.59 1.11,8.22 1.95,15.06 2.21,18.17 0.53,6.27 -1.53,-9.27 -4.16,-27.12 -1.32,-8.9 -2.79,-18.43 -4,-26.07 -1.21,-7.63 -2.16,-13.43 -2.42,-15.01 -0.05,-0.47 -0.11,-0.84 -0.16,-1.16 -0.63,0.42 -1.11,0.58 -1.42,0.74 -2.9,1 -5.11,-0.95 -5.9,-1.84 -0.42,-0.47 -0.9,-1.05 -1.37,-1.79 4.42,26.54 17.69,105.89 19.48,112.11 2.11,7.43 2.53,24.33 6.32,23.64 3.79,-0.68 5.27,-10.69 5.95,-21.64 0.63,-10.16 -12.53,-108.68 -14.85,-123.9 -0.68,1.63 -1.47,3.26 -2.37,4.9l-0 0.05z"/>
  <path class="fil20" d="M520.41 537.89c0,0.37 -0.11,0.74 -0.16,1.16 -0.21,1.42 -0.47,3.32 -0.79,5.53 -0.32,2.21 -0.68,4.74 -1,7.43 -0.68,5.32 -1.26,11.22 -1.74,16.27 -0.42,5.06 -0.74,9.21 -0.95,11.11 -0.21,1.9 -0.26,0.47 -0.16,-2.84 0.11,-3.26 0.37,-8.42 0.9,-13.9 0.53,-5.48 1.26,-11.27 2,-15.96 0.63,-4.05 1.21,-7.21 1.53,-8.58 -1.42,1.05 -2.95,1.84 -4.58,2.42 -0.95,0.32 -1.95,0.58 -3,0.79 -0.95,20.75 -1.9,42.97 -1.53,44.55 2.05,8.74 5.48,22.64 8.42,21.01 2.95,-1.69 7.63,-8.37 8.42,-17.48 0.37,-3.84 0.21,-17.01 0,-30.8 -1.16,-1.21 -2.9,-3.79 -4.9,-9.43 -1.16,-3.16 -2.37,-7.53 -2.42,-9.58 0,-0.32 0,-0.74 0.21,-1.9 -0.05,0.05 -0.16,0.11 -0.21,0.16l-0.05 0.05z"/>
  <path class="fil21" d="M475.23 493.29c0.58,-1.16 1.69,-2.95 2.95,-4.74 1.26,-1.84 2.79,-3.63 4.05,-5.06 1.26,-1.37 2.32,-2.37 2.63,-2.58 0.79,-0.58 0.58,-0.26 -0.16,0.63 -0.74,0.9 -2.05,2.32 -3.37,4 -1.37,1.69 -2.74,3.58 -3.9,5.21 -1.16,1.69 -2.05,3.11 -2.53,3.69 -0.16,0.16 -0.21,0.26 -0.26,0.26 -0.11,0 0.11,-0.53 0.53,-1.37l0.05 -0.05zm9.8 -16.59c-1.05,0.37 -6.64,2.26 -9.37,2.16 -0.21,0 -0.47,0 -0.68,-0.11 -1.05,2.11 -2,4.21 -2.32,5.58 -1.05,4.16 -2.32,17.22 0.21,18.43 2.53,1.21 9.21,-3.69 12.16,-7.21 1.21,-1.47 2.84,-3.84 4.26,-6.06 -1.53,-1.21 -2.95,-3.47 -3.42,-7.63 -0.21,-1.84 -0.21,-3.79 -0.16,-5.37 -0.21,0.05 -0.42,0.16 -0.63,0.21l-0.05 0z"/>
  <path class="fil22" d="M593.97 529.1c0,0 1.74,28.8 2.42,30.7 0.63,1.9 9.32,22.8 11.53,22.01 2.26,-0.79 7.58,-10.69 9.11,-17.11 1.47,-6.27 -2.9,-30.28 -3.16,-31.65 -0.26,0.11 -0.47,0.21 -0.74,0.32 -4,1.42 -7.11,-2.11 -8.16,-3.26 -0.47,-0.53 -1,-1.16 -1.53,-1.84 1.11,8.79 2.9,26.49 2.95,30.75 0.11,5.48 -2.68,-21.85 -3.53,-31.49 -0.79,-1.11 -1.69,-2.37 -2.53,-3.79 -0.74,-1.21 -1.53,-2.53 -2.21,-3.79l-4.11 9.16 -0.05 -0z"/>
  <path class="fil23" d="M495.5 443.27c-0.16,0.42 -0.42,0.84 -0.63,1.26 -0.32,0.58 -0.74,1.11 -1.16,1.69 -0.42,0.58 -0.84,1.16 -1.26,1.79 -3.53,4.9 -7.95,10.74 -9.43,12.32 -1.53,1.58 1.58,-2.84 5.27,-7.79 1.84,-2.48 3.79,-5.11 5.37,-7.27 0.47,-0.58 0.84,-1.16 1.16,-1.74 -0.11,0 -0.16,0.05 -0.26,0.11l-0 -0c-2,0.74 -3.58,0.84 -5.06,0.47 -0.47,-0.11 -0.9,-0.32 -1.32,-0.53l-1.16 0.42c0,0 -9.64,8.42 -10.58,11.74 -0.95,3.26 -2.68,18.59 -0.58,18.69 2.16,0.11 11.64,-2.84 13.48,-4.74 1.84,-1.9 11.16,-20.75 11.16,-20.75l0.58 -2.9c0,-0.58 0,-1.21 0.11,-1.9 0.11,-1.42 0.32,-2.9 0.53,-4.32 -2.11,1.37 -4.37,2.63 -6.27,3.42l0.05 0z"/>
  <path class="fil24" d="M496.4 490.34c-0.42,0.16 -0.84,0.26 -1.21,0.37 -2.95,3.95 -7.37,10.22 -7.58,12.01 -0.32,2.63 1.53,16.27 4.16,16.64 2.63,0.32 11.16,-6.48 11.16,-6.48 0,0 1.95,-3.63 4.05,-7.74 -0.16,-0.05 -0.26,-0.11 -0.42,-0.16 -2.21,-0.95 -4.69,-3 -5.42,-7.37 -0.21,0.21 -0.37,0.42 -0.58,0.63 -0.58,0.68 -1.26,1.47 -1.9,2.37 -1.26,1.74 -2.53,3.79 -3.42,5.63 -0.9,1.84 -1.53,3.42 -1.9,4.11 -0.16,0.37 -0.26,0.37 -0.26,0.16 0,-0.21 0.11,-0.68 0.32,-1.37 0.37,-1.32 1.11,-3.26 2.21,-5.27 1.11,-2 2.53,-3.95 3.84,-5.37 0.58,-0.63 1.11,-1.16 1.53,-1.58 -0.16,-1.16 -0.16,-2.53 -0.05,-4.05 0.11,-1.26 0.32,-2.58 0.58,-3.84l-1.47 -0.63c-1.21,0.84 -2.42,1.53 -3.69,1.95l0.06 -0z"/>
  <path class="fil25" d="M601.45 468.17c-0.58,2.48 -1.21,4.58 -1.9,6.37 0.11,0.37 0.26,0.9 0.42,1.58 0.58,2.21 1.42,6 2.16,10.22 0.74,4.21 1.37,8.9 1.79,12.9 0.42,4 0.58,7.32 0.53,8.85 -0.11,3.05 -0.58,-4.53 -1.74,-13.17 -0.58,-4.32 -1.26,-8.9 -1.95,-12.59 -0.63,-3.69 -1.21,-6.48 -1.32,-7.21 0,-0.11 0,-0.16 0,-0.26 -1.21,2.95 -2.68,4.84 -4.42,5.9 0.32,3.37 2.63,27.49 3.47,29.91 0.95,2.63 9.85,19.64 13.22,18.48 3.37,-1.21 4.9,-16.01 4.32,-20.01 -0.47,-3.21 -9.53,-35.33 -13.22,-48.29 -0.32,2.26 -0.74,4.84 -1.37,7.37l-0 -0.05z"/>
  <path class="fil26" d="M512.4 456.48c-0.68,0.21 -1.37,0.42 -2,0.53 -3.16,5.21 -9.69,15.27 -11.53,17.48 -2.32,2.74 6.79,-11.27 10.9,-17.38 -1,0.11 -1.95,0 -2.84,-0.26 -1.11,-0.32 -2.79,-1.05 -4.05,-3 -4.84,6.95 -12.53,18.22 -12.59,19.69 -0.11,2.11 -1.05,12.59 2.84,12.85 3.9,0.32 10.53,-7.06 13.01,-10.9 1.74,-2.68 10.95,-15.69 16.38,-23.17 -0.16,-1.05 -0.26,-2.05 -0.37,-2.9 -3.05,3.26 -6.53,5.9 -9.69,7.06l-0.06 0z"/>
  <path class="fil27" d="M480.92 365.65c0,0 0,0 0.05,0.05 0,0 -0.05,0 -0.11,0 0,0 0,-0.05 0,-0.11l0.05 0.05zm-7.74 -60.34l-1.42 12.06c0,0 1,-8.32 1.42,-12.06zm-155.97 -24.38c-2.68,-8.69 -3.16,-33.91 -3.16,-33.91 0,0 4.63,-5.21 7.85,-11.27 0.26,-0.58 0.53,-1.16 0.79,-1.84 24.59,13.32 49.13,26.91 73.61,40.44 -0.74,0.11 -1.74,0.47 -1.74,1.84 0,0.74 0.84,0.9 0.74,1.95 -2.74,2.74 -5.63,5.42 -4.79,12.06 0.84,6.37 4.9,6.64 10.22,9.48 3.79,2 6.85,4.42 8.16,5.48 1.26,1.05 4.42,2.9 4.37,6.48 0,0 -2.63,2.53 -3.84,4.53 -3,1.21 -14.32,7.21 -16.64,8.37 0,0 -3.32,0 -8.48,0 -3.74,-0.95 -10.06,-2.53 -11.95,-2.63 -2.74,-0.16 -7.11,-2.58 -9.53,-3.21 -1.16,-0.32 -3.58,-0.11 -6,0.11 -2.63,0.21 -5.27,0.47 -6.37,0 -2.16,-0.84 -6.42,1.95 -9.16,2.58 -2.79,0.63 -2.58,-0.21 -4.69,-1.05 -2.16,-0.84 -3.84,4.95 -3.84,4.95 -8.58,-19.85 -12.79,-35.6 -15.48,-44.28l-0.05 -0.05zm-105.16 -173.56c-12.9,22.22 -25.59,44.55 -38.6,66.72 -4.58,7.79 -8.32,16.11 -14.01,23.22l0 0.95c2.42,1.47 4.53,1.32 7,-0.37 4.48,-3.05 9.21,-5.69 13.9,-8.42 8.06,-4.69 16.64,-7.27 26.07,-7.11 14.59,0.26 27.91,5.11 40.65,11.58 13.37,6.79 26.64,13.74 39.86,20.75 0,0.32 -0.05,0.63 -0.11,0.95 -1.26,14.74 -0.68,18.75 2.21,22.75 0,0 -1.32,21.48 -2,29.75 -0.37,4.05 -0.68,11.11 -0.74,19.64l0 2.84c0,1.32 0,2.63 0,4 0.11,6.95 0.47,14.59 1.21,22.12 1.84,19.64 6.37,25.49 7.16,30.49 0.68,4.21 6.9,8.37 10.95,10.11 1.26,20.54 7.16,67.93 7.16,67.93l16.06 4.74c3.95,17.96 7.74,25.12 9.32,23.54 0,0 0,0 0,0 1.16,10.74 4.37,33.02 19.32,54.6 4.69,6.74 9.16,10.32 13.22,12.11 -1.47,2 -3.53,5.42 -5.53,11.11 -0.11,0.21 -20.27,37.81 -16.85,176.66 1.37,55.82 -0.95,94.2 -4.26,120.16 23.75,4.21 48.18,6.37 73.19,6.37 32.38,0 63.87,-3.69 94.1,-10.64 -8.9,-66.61 -10,-105.63 -14.11,-157.18 -5.21,-64.82 -6.21,-99.42 -34.23,-140.96 0,0 8,-68.72 13.01,-109.84l10.53 22.8 0.16 -3.32c0.16,-3.32 3,-17.22 3,-17.22 0,0 -5.27,-15.96 -6.85,-16.38 -1.11,-0.32 -3.9,1.16 -5.42,2.05 0.16,-1.32 0.32,-2.63 0.42,-3.95 2.16,-1.26 6,-3.26 7.43,-2.21 1.95,1.47 7.85,17.32 7.85,17.32l16.8 -22.85c0,0 -14.64,-12.27 -19.8,-12.74 -3.47,-0.32 -7.85,1.63 -10.37,3 0.11,-1.26 0.21,-2.48 0.32,-3.63 2.95,-1.42 5.63,-2.42 7.9,-2.53 10.79,-0.42 25.64,17.9 38.02,21.96 5.21,1.74 13.32,0.74 22.06,-0.26 11.85,-1.32 24.85,-2.68 33.49,2.74 18.64,11.74 34.38,107.1 37.91,107.53 3.53,0.42 -14.8,-114.85 -30.28,-125.38 -15.48,-10.53 -49.39,-3 -59.92,-1.79 -5.37,0.63 -13.17,-4.32 -20.85,-9.27 -7.32,-4.74 -14.48,-9.43 -19.38,-9.32 -0.58,0 -1.32,0.16 -2.11,0.42 -0.16,-1.84 1.05,-4.69 4.79,-7.9 7.85,-6.74 -0.47,-13.58 -2.37,-16.11 -1.9,-2.53 -1.47,-7.53 3.11,-15.11 4.58,-7.53 2.26,-13.06 1.47,-21.59 -0.26,-2.9 -1.21,-13.01 2.21,-30.54 0,0 0,0 0,-0.05 0.21,-1.05 0.42,-2.11 0.58,-3.21 2.16,-14.43 -0.21,-23.28 -5,-28.91 0,-0.05 -0.05,-0.11 -0.05,-0.11l0 0c-0.74,-0.84 -1.58,-1.69 -2.42,-2.42 -6.42,-5.42 -12.27,-11.64 -20.33,-15.22 0,0 -25.91,-8.79 -34.44,7.27 0,0 -4.37,1.63 -5.58,2.63 -1.21,1 -4.21,4.11 -8.16,6.32 -4,2.21 -4.95,8.06 -4.95,8.06l-0.21 2.26c0,0 -5.11,1.63 -6.37,2.32 -1.26,0.68 -8.74,4.05 -9.74,4.79 -1.05,0.74 -2.11,1.9 -1.63,4.11 0.47,2.21 2.84,4 2.84,4 0,0 -2.53,1.74 -2.63,2.21 -0.11,0.32 -0.37,0.79 0.11,2.26 -24.54,-14.74 -49.02,-29.49 -73.51,-44.34 0.16,-3.69 -0.16,-6.85 -1,-8.11 -1.74,-2.63 -24.91,-18.43 -29.01,-20.01 -2.48,-0.95 -4.37,1.26 -5.69,6.48 -14.59,-8.95 -29.01,-18.17 -42.86,-28.22 -13.37,-9.74 -24.27,-21.8 -27.54,-38.91 -1.63,-8.48 -0.63,-17.01 -0.63,-25.54 0,-2.11 1.26,-5.16 -1.9,-5.95 -0.32,-0.11 -0.58,-0.11 -0.84,-0.11 -2.16,0 -2.32,2.74 -3.16,4.16l0.06 -0.05z"/>
 </g>
</svg>
