<svg width="25" height="24" viewBox="0 0 25 24" fill="none" xmlns="http://www.w3.org/2000/svg">
<g clip-path="url(#clip0_76_256)">
<path d="M22.9439 11.9529C22.9462 12.2594 22.8531 12.559 22.6773 12.81C22.5016 13.0611 22.252 13.2512 21.9632 13.3539L16.0381 15.5085L13.8844 21.4327C13.7782 21.7187 13.5871 21.9653 13.3366 22.1395C13.0862 22.3137 12.7885 22.407 12.4834 22.407C12.1784 22.407 11.8806 22.3137 11.6302 22.1395C11.3797 21.9653 11.1886 21.7187 11.0825 21.4327L8.92873 15.5076L3.00363 13.3539C2.71765 13.2477 2.471 13.0566 2.29683 12.8061C2.12266 12.5557 2.0293 12.258 2.0293 11.9529C2.0293 11.6479 2.12266 11.3501 2.29683 11.0997C2.471 10.8492 2.71765 10.6581 3.00363 10.5519L8.92873 8.39822L11.0825 2.47312C11.1886 2.18713 11.3797 1.94049 11.6302 1.76631C11.8806 1.59214 12.1784 1.49878 12.4834 1.49878C12.7885 1.49878 13.0862 1.59214 13.3366 1.76631C13.5871 1.94049 13.7782 2.18713 13.8844 2.47312L16.039 8.39822L21.9632 10.5519C22.252 10.6546 22.5016 10.8447 22.6773 11.0958C22.8531 11.3468 22.9462 11.6464 22.9439 11.9529Z" fill="white"/>
</g>
<defs>
<clipPath id="clip0_76_256">
<rect width="23.9096" height="23.9096" fill="white" transform="translate(0.528687 -0.00195312)"/>
</clipPath>
</defs>
</svg>
