<svg width="1440" height="916" viewBox="0 0 1440 916" fill="none" xmlns="http://www.w3.org/2000/svg">
<mask id="mask0_76_299" style="mask-type:alpha" maskUnits="userSpaceOnUse" x="0" y="0" width="1440" height="916">
<rect width="1440" height="916" fill="#D9D9D9"/>
</mask>
<g mask="url(#mask0_76_299)">
<path d="M1476 378.111L1474.96 21.3592C1475.81 18.9453 1476.08 16.3608 1475.73 13.8229C1475.38 11.285 1474.43 8.86805 1472.95 6.77507C1471.47 4.6821 1469.52 2.97436 1467.24 1.7954C1464.97 0.616443 1462.44 0.000682427 1459.88 0H1042.87C534.157 0 109.606 365.796 18.3952 848.221C6.15653 912.294 -0.00253003 977.38 7.79631e-07 1042.61V1220.97C7.79631e-07 1225.22 1.68878 1229.3 4.69482 1232.31C7.70087 1235.31 11.7779 1237 16.0291 1237H372.845C377.096 1237 381.173 1235.31 384.179 1232.31C387.185 1229.3 388.874 1225.22 388.874 1220.97V1058.64C388.874 688.688 688.857 388.779 1058.9 388.779H1460.9C1464.21 388.781 1467.44 387.756 1470.15 385.845C1472.85 383.935 1474.9 381.232 1476 378.111Z" fill="url(#paint0_radial_76_299)"/>
</g>
<defs>
<radialGradient id="paint0_radial_76_299" cx="0" cy="0" r="1" gradientUnits="userSpaceOnUse" gradientTransform="translate(1202.65 1226.56) scale(1947.57 1947.09)">
<stop offset="0.49" stop-opacity="0"/>
<stop offset="0.5" stop-color="#0E0A04" stop-opacity="0.07"/>
<stop offset="0.54" stop-color="#33240E" stop-opacity="0.24"/>
<stop offset="0.58" stop-color="#6F4F1E" stop-opacity="0.52"/>
<stop offset="0.63" stop-color="#C08934" stop-opacity="0.91"/>
<stop offset="0.64" stop-color="#D39739"/>
<stop offset="0.65" stop-color="#FAE2BA"/>
</radialGradient>
</defs>
</svg>
