<svg width="1440" height="1689" viewBox="0 0 1440 1689" fill="none" xmlns="http://www.w3.org/2000/svg">
<path d="M2015.03 516.273L2013.61 29.1639C2014.78 25.8679 2015.14 22.339 2014.66 18.8738C2014.19 15.4086 2012.89 12.1084 2010.87 9.25066C2008.85 6.39291 2006.18 4.06116 2003.07 2.45141C1999.97 0.841666 1996.52 0.000907372 1993.02 -2.44141e-05H1423.72C729.229 -2.44141e-05 149.633 499.458 25.1131 1158.16C8.40488 1245.65 -0.00345033 1334.51 4.72646e-06 1423.58V1667.12C4.72646e-06 1672.92 2.30553 1678.49 6.40937 1682.59C10.5132 1686.69 16.0792 1689 21.8829 1689H509.007C514.811 1689 520.377 1686.69 524.481 1682.59C528.584 1678.49 530.89 1672.92 530.89 1667.12V1445.46C530.89 940.335 940.426 530.839 1445.6 530.839H1994.42C1998.94 530.842 2003.35 529.442 2007.04 526.833C2010.73 524.225 2013.52 520.535 2015.03 516.273Z" fill="url(#paint0_radial_76_12)"/>
<defs>
<radialGradient id="paint0_radial_76_12" cx="0" cy="0" r="1" gradientUnits="userSpaceOnUse" gradientTransform="translate(1641.85 1674.75) scale(2658.82 2658.56)">
<stop offset="0.49" stop-opacity="0"/>
<stop offset="0.5" stop-color="#0E0A04" stop-opacity="0.07"/>
<stop offset="0.54" stop-color="#33240E" stop-opacity="0.24"/>
<stop offset="0.58" stop-color="#6F4F1E" stop-opacity="0.52"/>
<stop offset="0.63" stop-color="#C08934" stop-opacity="0.91"/>
<stop offset="0.64" stop-color="#D39739"/>
<stop offset="0.65" stop-color="#FAE2BA"/>
</radialGradient>
</defs>
</svg>
