<svg width="86" height="61" viewBox="0 0 86 61" fill="none" xmlns="http://www.w3.org/2000/svg">
<g clip-path="url(#clip0_76_87)">
<path d="M75.8684 61H10.1198C7.4368 60.9968 4.86463 59.9308 2.96749 58.0356C1.07035 56.1404 0.00314717 53.5709 0 50.8908V10.1093C0 7.42811 1.06619 4.85677 2.96401 2.96092C4.86183 1.06507 7.43583 7.6294e-06 10.1198 7.6294e-06H75.8684C78.5534 5.78188e-06 81.1286 1.0647 83.0283 2.96022C84.928 4.85573 85.9969 7.42702 86 10.1093V50.8908C85.9969 53.573 84.928 56.1443 83.0283 58.0398C81.1286 59.9353 78.5534 61 75.8684 61ZM10.1198 1.25921C7.77111 1.26235 5.51955 2.19576 3.8588 3.85479C2.19805 5.51381 1.26365 7.76304 1.26051 10.1093V50.8908C1.26365 53.237 2.19805 55.4862 3.8588 57.1452C5.51955 58.8042 7.77111 59.7377 10.1198 59.7408H75.8684C78.217 59.7377 80.4686 58.8042 82.1293 57.1452C83.7901 55.4862 84.7245 53.237 84.7276 50.8908V10.1093C84.7245 7.76304 83.7901 5.51381 82.1293 3.85479C80.4686 2.19576 78.217 1.26235 75.8684 1.25921H10.1198Z" fill="url(#paint0_linear_76_87)"/>
<path d="M45.961 17.9021L47.614 13.281H42.3816C40.7514 13.2779 39.1366 13.5961 37.6297 14.2176C36.1229 14.839 34.7536 15.7513 33.6003 16.9023C32.447 18.0533 31.5324 19.4203 30.9089 20.925C30.2854 22.4297 29.9653 24.0426 29.9668 25.6711V28.047H34.5927V25.6711C34.5958 23.6095 35.4178 21.6335 36.8782 20.1768C38.3386 18.7202 40.3179 17.9021 42.3816 17.9021H45.961Z" fill="url(#paint1_linear_76_87)"/>
<path d="M53.5478 29.3418C53.2257 30.946 52.5393 32.455 51.5415 33.7525C50.5436 35.05 49.261 36.1014 47.7923 36.8257C46.098 37.6263 44.244 38.0325 42.3698 38.0136H38.8023L40.4433 33.3926H42.3935C45.6399 33.3926 48.5058 31.9315 49.0766 28.6409C49.0902 28.5485 49.0838 28.4542 49.0579 28.3645C49.0319 28.2747 48.987 28.1916 48.9261 28.1206C48.8653 28.0497 48.7899 27.9926 48.7051 27.9533C48.6203 27.9139 48.528 27.8932 48.4345 27.8925H42.3935L44.0346 23.2715H49.8615C51.0387 23.414 54.5111 24.008 53.5478 29.3418Z" fill="url(#paint2_linear_76_87)"/>
<path d="M68.0199 13.673V32.8105L61.3844 15.8707C61.0864 15.1055 60.5633 14.4484 59.884 13.9861C59.2047 13.5238 58.4011 13.278 57.5791 13.281C56.4016 13.281 55.2722 13.7475 54.4385 14.5781C53.6048 15.4087 53.1348 16.5357 53.1317 17.712V23.3665H57.7694V18.6148L64.0125 34.5924C64.4124 35.603 65.1067 36.4705 66.0056 37.0826C66.9045 37.6947 67.9666 38.0231 69.0545 38.0255C70.0006 38.0255 70.9081 37.65 71.5771 36.9817C72.2461 36.3134 72.622 35.4069 72.622 34.4617V13.673H68.0199Z" fill="white"/>
<path d="M29.075 23.3665L27.422 27.9875H19.3476C18.9818 27.9875 18.6309 28.1327 18.3722 28.3911C18.1136 28.6496 17.9682 29.0001 17.9682 29.3655V37.9067H13.3424V29.3418C13.3424 27.7665 13.9688 26.2557 15.0839 25.1418C16.1989 24.0279 17.7112 23.4022 19.2882 23.4022L29.075 23.3665Z" fill="white"/>
<path d="M32.6662 13.281L31.0133 17.902H13.3423V15.8707C13.3408 15.5302 13.4068 15.1927 13.5365 14.8778C13.6662 14.5629 13.8571 14.2768 14.0981 14.036C14.3392 13.7952 14.6256 13.6045 14.9408 13.4749C15.256 13.3453 15.5938 13.2794 15.9347 13.281H32.6662Z" fill="white"/>
<path d="M80.185 16.1796C80.2643 16.0548 80.3095 15.9114 80.3158 15.7638C80.3246 15.6608 80.3122 15.5571 80.2795 15.4591C80.2468 15.3611 80.1944 15.2707 80.1256 15.1936C79.9736 15.0431 79.7688 14.9578 79.5548 14.956H78.4608V17.4388H78.8532V16.5478H79.4953L79.9234 17.4388H80.3753L79.8996 16.4765C80.0203 16.4056 80.1191 16.3029 80.185 16.1796ZM79.7807 16.0608C79.7429 16.1019 79.6969 16.1347 79.6458 16.1572C79.5946 16.1797 79.5393 16.1914 79.4834 16.1914H78.7937V15.3242H79.4834C79.5901 15.3269 79.6918 15.3693 79.7688 15.443C79.8152 15.4823 79.8522 15.5316 79.8769 15.5871C79.9016 15.6426 79.9134 15.703 79.9115 15.7638C79.9087 15.8761 79.8617 15.9828 79.7807 16.0608Z" fill="white"/>
<path d="M81.5763 15.253C81.4606 14.9506 81.2776 14.6785 81.0412 14.4571C80.8146 14.2239 80.5437 14.0381 80.2445 13.9106C79.6192 13.657 78.9195 13.657 78.2943 13.9106C77.6951 14.1759 77.2161 14.6544 76.9505 15.253C76.8208 15.557 76.756 15.8847 76.7602 16.2152C76.7554 16.5534 76.8202 16.889 76.9505 17.2012C77.0781 17.5001 77.2641 17.7707 77.4975 17.9971C77.7228 18.2318 77.994 18.4178 78.2943 18.5435C78.9195 18.7971 79.6192 18.7971 80.2445 18.5435C80.5437 18.416 80.8146 18.2303 81.0412 17.9971C81.2749 17.7734 81.4574 17.5019 81.5763 17.2012C81.7104 16.8897 81.7792 16.5542 81.7785 16.2152C81.779 15.8839 81.7101 15.5561 81.5763 15.253ZM81.0531 17.2606C80.8693 17.5651 80.6117 17.8184 80.3039 17.9971C79.991 18.1833 79.6336 18.2816 79.2694 18.2816C78.9051 18.2816 78.5477 18.1833 78.2348 17.9971C77.9271 17.8184 77.6694 17.5651 77.4856 17.2606C77.3022 16.9429 77.2077 16.5819 77.2121 16.2152C77.2108 15.8564 77.3052 15.5038 77.4856 15.1936C77.6724 14.8883 77.9292 14.6318 78.2348 14.4452C78.5501 14.2661 78.9066 14.1719 79.2694 14.1719C79.6321 14.1719 79.9886 14.2661 80.3039 14.4452C80.6095 14.6318 80.8663 14.8883 81.0531 15.1936C81.2335 15.5038 81.3279 15.8564 81.3266 16.2152C81.331 16.5819 81.2365 16.9429 81.0531 17.2606Z" fill="white"/>
<path d="M15.6612 43.7632H14.1272V44.7492H15.4115C15.5094 44.7457 15.6057 44.775 15.685 44.8323C15.713 44.8603 15.7348 44.8937 15.7491 44.9305C15.7635 44.9673 15.77 45.0067 15.7683 45.0462C15.7725 45.0859 15.7672 45.126 15.7527 45.1632C15.7382 45.2004 15.715 45.2336 15.685 45.26C15.6057 45.3173 15.5094 45.3466 15.4115 45.3431H14.1272V46.6142C14.1354 46.742 14.0975 46.8684 14.0202 46.9706C13.9841 47.0099 13.9399 47.0408 13.8906 47.0613C13.8413 47.0818 13.7882 47.0914 13.7348 47.0894C13.6814 47.0923 13.628 47.083 13.5786 47.0625C13.5292 47.0419 13.485 47.0105 13.4494 46.9706C13.3722 46.8684 13.3342 46.742 13.3424 46.6142V43.7038C13.3211 43.614 13.3211 43.5204 13.3424 43.4306C13.3736 43.3593 13.4281 43.3007 13.497 43.2643C13.5876 43.2498 13.6799 43.2498 13.7705 43.2643H15.6137C15.7155 43.259 15.8161 43.2883 15.8991 43.3474C15.928 43.3772 15.9503 43.4126 15.9646 43.4515C15.9789 43.4904 15.985 43.5318 15.9823 43.5731C15.984 43.6126 15.9775 43.652 15.9632 43.6888C15.9488 43.7256 15.927 43.759 15.8991 43.787C15.8193 43.8039 15.7361 43.7956 15.6612 43.7632Z" fill="white"/>
<path d="M17.1952 46.6142V43.5731C17.1823 43.4449 17.2208 43.3167 17.3023 43.2167C17.336 43.1778 17.3782 43.1469 17.4255 43.1263C17.4728 43.1057 17.5242 43.0961 17.5758 43.098C17.6292 43.0951 17.6826 43.1043 17.732 43.1249C17.7814 43.1454 17.8256 43.1768 17.8612 43.2167C17.9426 43.3167 17.9811 43.4449 17.9682 43.5731V46.6142C17.9764 46.742 17.9384 46.8684 17.8612 46.9706C17.8256 47.0105 17.7814 47.0419 17.732 47.0625C17.6826 47.083 17.6292 47.0923 17.5758 47.0894C17.5242 47.0913 17.4728 47.0816 17.4255 47.0611C17.3782 47.0405 17.336 47.0096 17.3023 46.9706C17.225 46.8684 17.187 46.742 17.1952 46.6142Z" fill="white"/>
<path d="M20.406 43.5613L21.9162 45.8421V43.5494C21.9042 43.4267 21.9381 43.304 22.0113 43.2049C22.0456 43.1704 22.0864 43.143 22.1313 43.1244C22.1762 43.1057 22.2243 43.0961 22.273 43.0961C22.3216 43.0961 22.3697 43.1057 22.4146 43.1244C22.4595 43.143 22.5003 43.1704 22.5346 43.2049C22.6078 43.304 22.6416 43.4267 22.6297 43.5494V46.5786C22.6297 46.9231 22.4989 47.0894 22.2135 47.0894C22.1507 47.1019 22.086 47.1019 22.0232 47.0894C21.9633 47.0739 21.9095 47.0408 21.8686 46.9944C21.8122 46.9518 21.7639 46.8995 21.7259 46.8399L21.5951 46.6617L20.1325 44.4166V46.6736C20.1376 46.7334 20.1308 46.7936 20.1125 46.8507C20.0941 46.9078 20.0645 46.9607 20.0254 47.0062C19.9931 47.0439 19.9529 47.0741 19.9078 47.0948C19.8626 47.1156 19.8135 47.1263 19.7638 47.1263C19.7141 47.1263 19.665 47.1156 19.6199 47.0948C19.5747 47.0741 19.5346 47.0439 19.5022 47.0062C19.4631 46.9607 19.4335 46.9078 19.4152 46.8507C19.3968 46.7936 19.39 46.7334 19.3952 46.6736V43.7038C19.3743 43.6059 19.3743 43.5047 19.3952 43.4068C19.4302 43.3282 19.4883 43.2619 19.5617 43.2167C19.6358 43.1684 19.7229 43.1436 19.8114 43.1455C19.8701 43.1318 19.9311 43.1318 19.9898 43.1455C20.0375 43.166 20.0817 43.1941 20.1206 43.2286C20.163 43.2779 20.2028 43.3294 20.2395 43.3831L20.406 43.5613Z" fill="white"/>
<path d="M26.6134 43.7632H24.8534V44.7135H26.4707C26.5692 44.7047 26.6673 44.7345 26.7442 44.7967C26.7742 44.8231 26.7974 44.8563 26.8119 44.8935C26.8264 44.9307 26.8317 44.9708 26.8274 45.0105C26.8291 45.05 26.8226 45.0894 26.8083 45.1262C26.794 45.163 26.7721 45.1964 26.7442 45.2243C26.6648 45.2817 26.5686 45.311 26.4707 45.3075H24.8534V46.4004H26.6134C26.7119 46.3916 26.81 46.4214 26.8869 46.4835C26.9464 46.5436 26.9799 46.6247 26.9799 46.7093C26.9799 46.7938 26.9464 46.8749 26.8869 46.935C26.81 46.9971 26.7119 47.027 26.6134 47.0181H24.4848C24.4191 47.0345 24.3503 47.0336 24.285 47.0155C24.2198 46.9974 24.1603 46.9628 24.1124 46.9149C24.0646 46.8671 24.0299 46.8077 24.0118 46.7425C23.9937 46.6773 23.9928 46.6086 24.0091 46.5429V43.7038C23.9879 43.614 23.9879 43.5204 24.0091 43.4306C24.0404 43.3593 24.0949 43.3007 24.1637 43.2643C24.2543 43.2498 24.3466 43.2498 24.4372 43.2643H26.6134C26.7113 43.2608 26.8075 43.2901 26.8869 43.3474C26.9173 43.3766 26.9415 43.4116 26.9578 43.4505C26.9742 43.4893 26.9824 43.531 26.982 43.5731C26.9815 43.6134 26.9728 43.653 26.9564 43.6898C26.9401 43.7265 26.9164 43.7596 26.8869 43.787C26.7959 43.8133 26.6984 43.8048 26.6134 43.7632Z" fill="white"/>
<path d="M33.5937 45.4501V46.1985C33.6082 46.273 33.6082 46.3496 33.5937 46.4241C33.5791 46.4906 33.5411 46.5495 33.4867 46.5905C33.4325 46.646 33.3678 46.6904 33.2965 46.7211C33.0823 46.842 32.8548 46.9377 32.6186 47.0062C32.3885 47.0594 32.1532 47.0873 31.917 47.0894C31.6371 47.0925 31.359 47.0442 31.0965 46.9468C30.8617 46.868 30.6496 46.7334 30.4781 46.5548C30.2991 46.3768 30.1612 46.162 30.0738 45.9252C29.9853 45.657 29.9412 45.3761 29.943 45.0937C29.9367 44.8109 29.981 44.5293 30.0738 44.2621C30.1617 44.0284 30.2951 43.8144 30.4663 43.6325C30.6488 43.4535 30.8678 43.3157 31.1084 43.2286C31.3808 43.1392 31.666 43.095 31.9527 43.098C32.1871 43.0939 32.4204 43.13 32.6424 43.2049C32.8223 43.2548 32.9888 43.3441 33.13 43.4662C33.2476 43.5557 33.3448 43.6691 33.4154 43.7988C33.4707 43.893 33.5033 43.9987 33.5105 44.1077C33.5105 44.1544 33.501 44.2005 33.4826 44.2434C33.4642 44.2863 33.4373 44.325 33.4035 44.3572C33.3691 44.3913 33.3282 44.4183 33.2833 44.4367C33.2384 44.455 33.1904 44.4643 33.1419 44.4641C33.0871 44.4764 33.0302 44.4764 32.9754 44.4641C32.9238 44.4343 32.8792 44.3938 32.8446 44.3453C32.7712 44.2273 32.6877 44.116 32.5949 44.0127C32.5232 43.9273 32.434 43.8584 32.3332 43.8107C32.1924 43.7595 32.0431 43.7353 31.8933 43.7394C31.7269 43.735 31.5612 43.7633 31.4057 43.8226C31.268 43.8861 31.1461 43.9794 31.0489 44.0958C30.9421 44.2257 30.8614 44.3749 30.8111 44.5353C30.7576 44.7208 30.7296 44.9126 30.7279 45.1055C30.7026 45.4816 30.8169 45.8538 31.0489 46.1509C31.1553 46.2752 31.289 46.3731 31.4397 46.437C31.5903 46.5009 31.7537 46.529 31.917 46.5192C32.0901 46.5205 32.2623 46.4965 32.4284 46.4479C32.5961 46.3938 32.7591 46.3263 32.9159 46.246V45.6164H32.3094C32.1954 45.6222 32.0815 45.6019 31.9765 45.557C31.9372 45.5345 31.9052 45.5014 31.8841 45.4614C31.8631 45.4214 31.8539 45.3763 31.8576 45.3313C31.8566 45.2908 31.8646 45.2506 31.8811 45.2137C31.8975 45.1767 31.922 45.1438 31.9527 45.1174C32.0259 45.0571 32.1197 45.0273 32.2143 45.0343H33.0943C33.189 45.0215 33.285 45.0215 33.3797 45.0343C33.4528 45.0554 33.516 45.1017 33.5581 45.1649C33.5964 45.2548 33.6087 45.3536 33.5937 45.4501Z" fill="white"/>
<path d="M36.5785 43.098C36.9379 43.0891 37.2937 43.1708 37.6131 43.3355C37.8966 43.4983 38.1245 43.7425 38.2671 44.0364C38.4169 44.3642 38.4901 44.7216 38.4812 45.0818C38.4869 45.3597 38.4467 45.6366 38.3623 45.9015C38.2843 46.132 38.1632 46.3456 38.0055 46.5311C37.8367 46.7128 37.6295 46.8548 37.3991 46.9468C37.1416 47.0472 36.8667 47.0957 36.5904 47.0894C36.3143 47.0936 36.0398 47.0452 35.7818 46.9468C35.5556 46.8533 35.3526 46.7114 35.1872 46.5311C35.019 46.3467 34.8931 46.1277 34.8186 45.8896C34.6523 45.3598 34.6523 44.7919 34.8186 44.2621C34.8933 44.0276 35.0192 43.8126 35.1872 43.6325C35.35 43.452 35.5539 43.3135 35.7818 43.2286C36.0374 43.1376 36.3073 43.0934 36.5785 43.098ZM37.6963 45.0818C37.702 44.8289 37.6533 44.5778 37.5536 44.3453C37.4698 44.1566 37.3336 43.9958 37.1612 43.882C36.9876 43.7703 36.7849 43.7125 36.5785 43.7157C36.4306 43.7161 36.2846 43.7485 36.1504 43.8107C36.0177 43.866 35.8996 43.9514 35.8056 44.0602C35.7017 44.1857 35.6248 44.3313 35.5796 44.4878C35.4686 44.876 35.4686 45.2876 35.5796 45.6758C35.6233 45.8365 35.7002 45.9862 35.8056 46.1153C35.9047 46.2265 36.0263 46.3156 36.1623 46.3766C36.2965 46.4389 36.4425 46.4713 36.5904 46.4717C36.7833 46.4698 36.9721 46.4165 37.1374 46.3172C37.3187 46.2104 37.4606 46.0479 37.5417 45.8539C37.6477 45.6105 37.7004 45.3472 37.6963 45.0818Z" fill="white"/>
<path d="M40.4671 43.5731V46.3766H42.0725C42.1799 46.371 42.2856 46.4048 42.3698 46.4717C42.4005 46.503 42.4248 46.5402 42.4411 46.581C42.4574 46.6217 42.4655 46.6653 42.4649 46.7093C42.4653 46.7514 42.457 46.7931 42.4407 46.8319C42.4243 46.8707 42.4002 46.9058 42.3698 46.935C42.284 46.9976 42.1784 47.0272 42.0725 47.0181H40.1817C40.116 47.0345 40.0472 47.0336 39.9819 47.0155C39.9167 46.9974 39.8572 46.9628 39.8093 46.9149C39.7615 46.8671 39.7268 46.8077 39.7087 46.7425C39.6906 46.6773 39.6897 46.6086 39.706 46.5429V43.5731C39.6931 43.4449 39.7316 43.3167 39.8131 43.2167C39.8469 43.1778 39.889 43.1469 39.9363 43.1263C39.9836 43.1057 40.035 43.0961 40.0866 43.098C40.14 43.0951 40.1934 43.1043 40.2428 43.1249C40.2922 43.1454 40.3364 43.1768 40.372 43.2167C40.4492 43.3185 40.4834 43.4465 40.4671 43.5731Z" fill="white"/>
<path d="M43.987 43.1573H44.9978C45.2306 43.1512 45.4629 43.1792 45.6875 43.2405C45.8779 43.288 46.0536 43.3819 46.1989 43.5137C46.4107 43.7133 46.5752 43.9577 46.6801 44.2291C46.7851 44.5004 46.8278 44.7918 46.8053 45.0818C46.8246 45.2912 46.8246 45.502 46.8053 45.7114C46.7656 45.8933 46.7016 46.0692 46.6151 46.2341C46.5293 46.3879 46.4211 46.528 46.294 46.6498C46.1915 46.7425 46.0751 46.8187 45.9491 46.8756C45.823 46.9292 45.6914 46.9691 45.5567 46.9944H45.081H44.0584C43.9534 47.0238 43.8423 47.0238 43.7373 46.9944C43.6708 46.9529 43.6205 46.89 43.5946 46.8162C43.5801 46.7137 43.5801 46.6097 43.5946 46.5073V43.7038C43.5875 43.6375 43.5943 43.5705 43.6148 43.507C43.6353 43.4436 43.6689 43.3852 43.7135 43.3355C43.7821 43.2472 43.8784 43.1844 43.987 43.1573ZM44.2843 43.7751V46.4004H45.1881C45.2631 46.4104 45.339 46.4104 45.414 46.4004C45.4867 46.3707 45.5548 46.3307 45.6162 46.2816C45.767 46.1259 45.8806 45.9382 45.9485 45.7325C46.0165 45.5268 46.037 45.3084 46.0086 45.0937C46.0258 44.7953 45.9686 44.4973 45.8421 44.2265C45.7462 44.0608 45.5945 43.9345 45.414 43.8701C45.2128 43.8135 45.0047 43.7855 44.7956 43.787L44.2843 43.7751Z" fill="white"/>
<path d="M50.9436 43.5612L52.4538 45.8421V43.5494C52.4419 43.4267 52.4757 43.304 52.5489 43.2049C52.5797 43.1692 52.6182 43.1411 52.6614 43.1225C52.7047 43.104 52.7517 43.0956 52.7987 43.098C52.8493 43.0954 52.8998 43.1036 52.9469 43.122C52.9941 43.1404 53.0368 43.1687 53.0722 43.2049C53.14 43.3065 53.1734 43.4273 53.1673 43.5494V46.5786C53.1673 46.9231 53.0246 47.0894 52.7511 47.0894C52.6884 47.1029 52.6236 47.1029 52.5609 47.0894C52.4985 47.0715 52.4414 47.0389 52.3944 46.9944C52.3417 46.9513 52.2974 46.8989 52.2636 46.8399L52.1328 46.6617L50.6701 44.4166V46.6736C50.6753 46.7334 50.6685 46.7936 50.6501 46.8507C50.6317 46.9078 50.6021 46.9607 50.5631 47.0062C50.5317 47.045 50.4917 47.0759 50.4463 47.0965C50.4009 47.1171 50.3513 47.1269 50.3014 47.125C50.2499 47.1269 50.1985 47.1173 50.1512 47.0967C50.1038 47.0761 50.0617 47.0452 50.0279 47.0062C49.9585 46.9098 49.9248 46.7922 49.9328 46.6736V43.7038C49.9119 43.6059 49.9119 43.5047 49.9328 43.4068C49.9641 43.3258 50.0231 43.2585 50.0993 43.2167C50.1734 43.1684 50.2605 43.1436 50.349 43.1455C50.4077 43.1318 50.4687 43.1318 50.5274 43.1455C50.5751 43.166 50.6193 43.1941 50.6582 43.2286L50.7771 43.383C50.8282 43.4464 50.8838 43.506 50.9436 43.5612Z" fill="white"/>
<path d="M56.9726 46.5904L56.7823 46.1034H55.2127L55.0224 46.5904C54.9813 46.7287 54.9212 46.8606 54.844 46.9825C54.8153 47.0205 54.7772 47.0503 54.7334 47.0691C54.6896 47.0878 54.6416 47.0949 54.5943 47.0894C54.5458 47.0896 54.4977 47.0803 54.4528 47.062C54.4079 47.0436 54.3671 47.0166 54.3327 46.9825C54.2948 46.953 54.2644 46.9151 54.2437 46.8718C54.2231 46.8285 54.2128 46.781 54.2138 46.733C54.2037 46.678 54.2037 46.6217 54.2138 46.5667C54.2332 46.4887 54.2611 46.413 54.297 46.341L55.284 43.8345C55.3136 43.745 55.3493 43.6577 55.391 43.5731C55.4162 43.4838 55.4565 43.3995 55.5099 43.3237C55.5573 43.2565 55.618 43.1999 55.6883 43.1573C55.7741 43.1179 55.8674 43.0975 55.9618 43.0975C56.0562 43.0975 56.1496 43.1179 56.2353 43.1573C56.3025 43.1992 56.3626 43.2514 56.4137 43.3118C56.4541 43.3806 56.4898 43.452 56.5207 43.5256C56.5207 43.5969 56.5921 43.7038 56.6396 43.8226L57.6504 46.3172C57.7152 46.4474 57.7555 46.5883 57.7693 46.733C57.7606 46.8287 57.7171 46.9178 57.6469 46.9835C57.5768 47.0492 57.4849 47.0869 57.3888 47.0894C57.334 47.1017 57.2772 47.1017 57.2223 47.0894L57.1153 47.0062C57.1153 47.0062 57.0559 46.9112 57.0202 46.828L56.9726 46.5904ZM55.4148 45.5095H56.604L56.0213 43.9176L55.4148 45.5095Z" fill="white"/>
<path d="M60.9563 43.8107H60.1001V46.6142C60.1083 46.742 60.0703 46.8684 59.9931 46.9706C59.9575 47.0105 59.9133 47.0419 59.8639 47.0625C59.8145 47.083 59.7611 47.0922 59.7077 47.0894C59.6545 47.0899 59.6018 47.0797 59.5528 47.0592C59.5037 47.0388 59.4593 47.0087 59.4223 46.9706C59.345 46.8684 59.3071 46.742 59.3153 46.6142V43.8107H58.4591C58.3517 43.8164 58.2459 43.7826 58.1618 43.7157C58.1313 43.6865 58.1072 43.6515 58.0909 43.6126C58.0745 43.5738 58.0662 43.5321 58.0666 43.49C58.0643 43.4447 58.0728 43.3996 58.0914 43.3583C58.11 43.3169 58.1382 43.2806 58.1737 43.2524C58.2536 43.1863 58.3554 43.1524 58.4591 43.1573H60.9563C61.0638 43.1505 61.17 43.1845 61.2536 43.2524C61.2877 43.2812 61.3141 43.3179 61.3307 43.3594C61.3473 43.4008 61.3535 43.4456 61.3487 43.49C61.3525 43.5325 61.3458 43.5753 61.3293 43.6146C61.3127 43.654 61.2867 43.6887 61.2536 43.7157C61.1695 43.7826 61.0637 43.8164 60.9563 43.8107Z" fill="white"/>
<path d="M62.3952 46.6142V43.5731C62.3822 43.4449 62.4207 43.3167 62.5022 43.2167C62.536 43.1778 62.5781 43.1469 62.6254 43.1263C62.6728 43.1057 62.7241 43.0961 62.7757 43.098C62.8291 43.0951 62.8825 43.1043 62.9319 43.1249C62.9814 43.1454 63.0255 43.1768 63.0611 43.2167C63.1426 43.3167 63.1811 43.4449 63.1681 43.5731V46.6142C63.1763 46.742 63.1383 46.8684 63.0611 46.9706C63.0255 47.0105 62.9814 47.0419 62.9319 47.0625C62.8825 47.083 62.8291 47.0923 62.7757 47.0894C62.7241 47.0913 62.6728 47.0816 62.6254 47.0611C62.5781 47.0405 62.536 47.0096 62.5022 46.9706C62.4249 46.8684 62.387 46.742 62.3952 46.6142Z" fill="white"/>
<path d="M66.2838 43.098C66.6431 43.0891 66.9989 43.1708 67.3183 43.3355C67.6047 43.4946 67.8336 43.7399 67.9724 44.0364C68.1318 44.3613 68.2093 44.7202 68.1983 45.0818C68.1982 45.3593 68.1581 45.6353 68.0794 45.9015C68.0019 46.1348 67.8763 46.3493 67.7108 46.5311C67.5464 46.7126 67.3431 46.8547 67.1162 46.9468C66.8581 47.0452 66.5837 47.0936 66.3076 47.0894C66.0275 47.0936 65.7492 47.0453 65.487 46.9468C65.2624 46.8504 65.06 46.7089 64.8925 46.5311C64.7322 46.343 64.6109 46.1249 64.5357 45.8896C64.3615 45.3611 64.3615 44.7906 64.5357 44.2621C64.6153 44.0298 64.7407 43.8157 64.9043 43.6325C65.0694 43.4547 65.2727 43.3166 65.4989 43.2286C65.751 43.14 66.0166 43.0958 66.2838 43.098ZM67.4016 45.0818C67.4072 44.8289 67.3586 44.5778 67.2589 44.3453C67.1832 44.1551 67.0502 43.9932 66.8783 43.882C66.6997 43.7719 66.4937 43.7142 66.2838 43.7157C66.1383 43.7176 65.9946 43.7491 65.8617 43.8083C65.7288 43.8676 65.6094 43.9533 65.5108 44.0602C65.4123 44.1892 65.3359 44.3337 65.2849 44.4878C65.1738 44.876 65.1738 45.2876 65.2849 45.6758C65.3321 45.8375 65.4131 45.9873 65.5227 46.1153C65.6151 46.2287 65.7333 46.3183 65.8676 46.3766C66.0017 46.4389 66.1478 46.4713 66.2957 46.4717C66.4919 46.4671 66.6839 46.414 66.8546 46.3172C67.032 46.2091 67.1696 46.0466 67.247 45.8539C67.3588 45.6123 67.4118 45.3478 67.4016 45.0818Z" fill="white"/>
<path d="M70.422 43.5613L71.9322 45.8421V43.5494C71.9262 43.4273 71.9595 43.3066 72.0274 43.2049C72.0617 43.1704 72.1024 43.143 72.1473 43.1244C72.1922 43.1057 72.2404 43.0961 72.289 43.0961C72.3376 43.0961 72.3858 43.1057 72.4307 43.1244C72.4756 43.143 72.5164 43.1704 72.5506 43.2049C72.6238 43.304 72.6577 43.4267 72.6458 43.5494V46.5786C72.6458 46.9231 72.5149 47.0894 72.2295 47.0894C72.1667 47.1019 72.1021 47.1019 72.0393 47.0894C71.9794 47.0739 71.9255 47.0408 71.8847 46.9944C71.8283 46.9518 71.78 46.8995 71.742 46.8399L71.6112 46.6617L70.1485 44.4166V46.6736C70.1537 46.7334 70.1469 46.7936 70.1285 46.8507C70.1101 46.9078 70.0806 46.9607 70.0415 47.0062C70.0091 47.0439 69.969 47.0741 69.9238 47.0948C69.8787 47.1156 69.8296 47.1263 69.7799 47.1263C69.7302 47.1263 69.6811 47.1156 69.6359 47.0948C69.5908 47.0741 69.5506 47.0439 69.5183 47.0062C69.4792 46.9607 69.4496 46.9078 69.4312 46.8507C69.4128 46.7936 69.4061 46.7334 69.4112 46.6736V43.7038C69.396 43.6054 69.396 43.5052 69.4112 43.4068C69.4463 43.3282 69.5043 43.2619 69.5777 43.2167C69.6519 43.1684 69.7389 43.1436 69.8274 43.1455C69.8861 43.1318 69.9471 43.1318 70.0058 43.1455C70.0536 43.166 70.0977 43.1941 70.1366 43.2286C70.1791 43.2779 70.2188 43.3294 70.2555 43.3831L70.422 43.5613Z" fill="white"/>
</g>
<defs>
<linearGradient id="paint0_linear_76_87" x1="0" y1="30.4941" x2="86" y2="30.4941" gradientUnits="userSpaceOnUse">
<stop stop-color="#A97538"/>
<stop offset="0.21" stop-color="#B78038"/>
<stop offset="0.52" stop-color="#D39739"/>
<stop offset="0.73" stop-color="#E3B66F"/>
<stop offset="1" stop-color="#FAE2BA"/>
</linearGradient>
<linearGradient id="paint1_linear_76_87" x1="28.1712" y1="27.0729" x2="40.2197" y2="17.5454" gradientUnits="userSpaceOnUse">
<stop stop-color="#A97538"/>
<stop offset="0.21" stop-color="#B78038"/>
<stop offset="0.52" stop-color="#D39739"/>
<stop offset="0.73" stop-color="#E3B66F"/>
<stop offset="1" stop-color="#FAE2BA"/>
</linearGradient>
<linearGradient id="paint2_linear_76_87" x1="36.6023" y1="37.5979" x2="48.0091" y2="28.57" gradientUnits="userSpaceOnUse">
<stop stop-color="#A97538"/>
<stop offset="0.21" stop-color="#B78038"/>
<stop offset="0.52" stop-color="#D39739"/>
<stop offset="0.73" stop-color="#E3B66F"/>
<stop offset="1" stop-color="#FAE2BA"/>
</linearGradient>
<clipPath id="clip0_76_87">
<rect width="86" height="61" fill="white"/>
</clipPath>
</defs>
</svg>
